{"glyphs":{"0":{"ha":778,"x_min":0,"x_max":0,"o":"m 33 356 b 389 0 33 160 193 0 b 744 356 585 0 744 160 l 744 533 b 389 889 744 729 585 889 b 33 533 193 889 33 729 z m 211 533 b 389 711 211 632 290 711 b 567 533 488 711 567 632 l 567 356 b 389 178 567 257 488 178 b 211 356 290 178 211 257 z m 289 444 b 389 344 289 389 333 344 b 489 444 444 344 489 389 b 389 544 489 500 444 544 b 289 444 333 544 289 500 z "},"1":{"ha":578,"x_min":0,"x_max":0,"o":"m 211 586 l 211 178 l 122 178 b 33 89 74 178 33 138 b 122 0 33 40 74 0 l 478 0 b 567 89 526 0 567 40 b 478 178 567 138 526 178 l 389 178 l 389 800 b 300 889 389 849 349 889 b 238 863 276 889 254 879 l 60 685 b 33 622 42 668 33 644 b 122 533 33 574 74 533 b 185 560 144 533 167 542 z "},"2":{"ha":756,"x_min":0,"x_max":0,"o":"m 11 89 b 100 0 11 40 51 0 l 633 0 b 722 89 682 0 722 40 b 633 178 722 138 682 178 l 189 178 b 367 356 189 276 268 356 l 456 356 b 722 622 603 356 722 475 b 456 889 722 769 603 889 l 144 889 b 56 800 96 889 56 849 b 144 711 56 751 96 711 l 456 711 b 544 622 504 711 544 671 b 456 533 544 574 504 533 l 367 533 b 11 178 171 533 11 374 z "},"3":{"ha":756,"x_min":0,"x_max":0,"o":"m 456 356 b 544 267 504 356 544 315 b 456 178 544 218 504 178 l 100 178 b 11 89 51 178 11 138 b 100 0 11 40 51 0 l 456 0 b 722 267 603 0 722 119 b 654 444 722 335 697 397 b 722 622 697 492 722 554 b 456 889 722 769 603 889 l 100 889 b 11 800 51 889 11 849 b 100 711 11 751 51 711 l 456 711 b 544 622 504 711 544 671 b 456 533 544 574 504 533 l 189 533 b 100 444 140 533 100 493 b 189 356 100 396 140 356 z "},"4":{"ha":800,"x_min":0,"x_max":0,"o":"m 33 444 b 122 356 33 396 74 356 l 567 356 l 567 89 b 656 0 567 40 607 0 b 744 89 704 0 744 40 l 744 800 b 656 889 744 849 704 889 b 567 800 607 889 567 849 l 567 533 l 211 533 l 211 800 b 122 889 211 849 171 889 b 33 800 74 889 33 849 z "},"5":{"ha":800,"x_min":0,"x_max":0,"o":"m 144 889 b 56 800 96 889 56 849 l 56 444 b 144 356 56 396 96 356 l 500 356 b 589 267 549 356 589 315 b 500 178 589 218 549 178 l 144 178 b 56 89 96 178 56 138 b 144 0 56 40 96 0 l 500 0 b 767 267 647 0 767 119 b 500 533 767 414 647 533 l 233 533 l 233 711 l 633 711 b 722 800 682 711 722 751 b 633 889 722 849 682 889 z "},"6":{"ha":778,"x_min":0,"x_max":0,"o":"m 389 889 b 33 533 193 889 33 729 l 33 267 b 300 0 33 119 153 0 l 478 0 b 744 267 625 0 744 119 b 478 533 744 414 625 533 l 300 533 b 211 518 268 533 239 528 l 211 533 b 389 711 211 632 290 711 l 567 711 b 656 800 615 711 656 751 b 567 889 656 849 615 889 z m 300 178 b 211 267 251 178 211 218 b 300 356 211 315 251 356 l 478 356 b 567 267 526 356 567 315 b 478 178 567 218 526 178 z "},"7":{"ha":733,"x_min":0,"x_max":0,"o":"m 456 367 b 722 711 608 406 722 546 l 722 800 b 633 889 722 849 682 889 l 100 889 b 11 800 51 889 11 849 b 100 711 11 751 51 711 l 544 711 b 367 533 544 613 465 533 b 278 444 318 533 278 493 l 278 89 b 367 0 278 40 318 0 b 456 89 415 0 456 40 z "},"8":{"ha":778,"x_min":0,"x_max":0,"o":"m 344 889 b 78 622 197 889 78 769 b 126 469 78 565 96 513 b 33 267 69 421 33 347 b 300 0 33 119 153 0 l 478 0 b 744 267 625 0 744 119 b 651 469 744 347 708 421 b 700 622 682 513 700 565 b 433 889 700 769 581 889 z m 478 356 b 567 267 526 356 567 315 b 478 178 567 218 526 178 l 300 178 b 211 267 251 178 211 218 b 300 356 211 315 251 356 z m 256 622 b 344 711 256 671 296 711 l 433 711 b 522 622 482 711 522 671 b 433 533 522 574 482 533 l 344 533 b 256 622 296 533 256 574 z "},"9":{"ha":778,"x_min":0,"x_max":0,"o":"m 389 0 b 744 356 585 0 744 160 l 744 622 b 478 889 744 769 625 889 l 300 889 b 33 622 153 889 33 769 b 300 356 33 475 153 356 l 478 356 b 567 371 510 356 539 361 l 567 356 b 389 178 567 257 488 178 l 211 178 b 122 89 163 178 122 138 b 211 0 122 40 163 0 z m 478 711 b 567 622 526 711 567 671 b 478 533 567 574 526 533 l 300 533 b 211 622 251 533 211 574 b 300 711 211 671 251 711 z "}," ":{"ha":378,"x_min":0,"x_max":0,"o":""},"!":{"ha":289,"x_min":0,"x_max":0,"o":"m 233 889 b 144 978 233 938 193 978 b 56 889 96 978 56 938 l 56 356 b 144 267 56 307 96 267 b 233 356 193 267 233 307 z m 44 100 b 144 0 44 44 89 0 b 244 100 200 0 244 44 b 144 200 244 156 200 200 b 44 100 89 200 44 156 z "},"\"":{"ha":467,"x_min":0,"x_max":0,"o":"m 33 711 b 122 622 33 663 74 622 b 211 711 171 622 211 663 l 211 889 b 122 978 211 938 171 978 b 33 889 74 978 33 938 z m 256 711 b 344 622 256 663 296 622 b 433 711 393 622 433 663 l 433 889 b 344 978 433 938 393 978 b 256 889 296 978 256 938 z "},"#":{"ha":867,"x_min":0,"x_max":0,"o":"m 167 178 l 167 133 b 256 44 167 85 207 44 b 344 133 304 44 344 85 l 344 178 l 522 178 l 522 133 b 611 44 522 85 563 44 b 700 133 660 44 700 85 l 700 178 l 744 178 b 833 267 793 178 833 218 b 744 356 833 315 793 356 l 700 356 l 700 533 l 744 533 b 833 622 793 533 833 574 b 744 711 833 671 793 711 l 700 711 l 700 756 b 611 844 700 804 660 844 b 522 756 563 844 522 804 l 522 711 l 344 711 l 344 756 b 256 844 344 804 304 844 b 167 756 207 844 167 804 l 167 711 l 122 711 b 33 622 74 711 33 671 b 122 533 33 574 74 533 l 167 533 l 167 356 l 122 356 b 33 267 74 356 33 315 b 122 178 33 218 74 178 z m 344 533 l 522 533 l 522 356 l 344 356 z "},"$":{"ha":778,"x_min":0,"x_max":0,"o":"m 256 800 b 33 578 133 800 33 700 b 256 356 33 456 133 356 l 322 356 l 322 267 l 122 267 b 33 178 74 267 33 226 b 122 89 33 129 74 89 l 322 89 l 322 67 b 389 0 322 31 353 0 b 456 67 425 0 456 31 l 456 89 l 522 89 b 744 311 644 89 744 189 b 522 533 744 433 644 533 l 456 533 l 456 622 l 611 622 b 700 711 660 622 700 663 b 611 800 700 760 660 800 l 456 800 l 456 822 b 389 889 456 858 425 889 b 322 822 353 889 322 858 l 322 800 z m 456 267 l 456 356 l 522 356 b 567 311 547 356 567 336 b 522 267 567 286 547 267 z m 256 533 b 211 578 231 533 211 553 b 256 622 211 603 231 622 l 322 622 l 322 533 z "},"%":{"ha":956,"x_min":0,"x_max":0,"o":"m 903 775 b 922 822 915 788 922 804 b 856 889 922 860 893 889 b 808 869 838 889 821 882 l 53 114 b 33 67 40 101 33 83 b 100 0 33 29 63 0 b 147 19 118 0 135 7 z m 33 689 b 233 489 33 579 124 489 b 433 689 343 489 433 579 b 233 889 433 799 343 889 b 33 689 124 889 33 799 z m 522 200 b 722 0 522 90 613 0 b 922 200 832 0 922 90 b 722 400 922 310 832 400 b 522 200 613 400 522 310 z m 656 200 b 722 267 656 236 686 267 b 789 200 758 267 789 236 b 722 133 789 164 758 133 b 656 200 686 133 656 164 z m 167 689 b 233 756 167 725 197 756 b 300 689 269 756 300 725 b 233 622 300 653 269 622 b 167 689 197 622 167 653 z "},"&":{"ha":867,"x_min":0,"x_max":0,"o":"m 478 0 b 744 267 625 0 744 119 l 744 356 l 789 356 b 878 444 838 356 878 396 b 789 533 878 493 838 533 l 300 533 b 211 622 251 533 211 574 b 300 711 211 671 251 711 l 467 711 b 593 660 513 711 557 694 b 656 633 610 643 632 633 b 744 722 703 633 744 675 b 718 785 744 746 735 768 b 467 889 649 854 557 889 l 300 889 b 33 622 153 889 33 769 b 101 444 33 553 58 492 b 33 267 58 397 33 335 b 300 0 33 119 153 0 z m 567 356 l 567 267 b 478 178 567 218 526 178 l 300 178 b 211 267 251 178 211 218 b 300 356 211 315 251 356 z "},"'":{"ha":244,"x_min":0,"x_max":0,"o":"m 33 711 b 122 622 33 663 74 622 b 211 711 171 622 211 663 l 211 889 b 122 978 211 938 171 978 b 33 889 74 978 33 938 z "},"(":{"ha":567,"x_min":0,"x_max":0,"o":"m 467 178 b 200 444 319 178 200 297 b 467 711 200 592 319 711 b 556 800 515 711 556 751 b 467 889 556 849 515 889 b 22 444 221 889 22 690 b 467 0 22 199 221 0 b 556 89 515 0 556 40 b 467 178 556 138 515 178 z "},")":{"ha":567,"x_min":0,"x_max":0,"o":"m 100 178 b 11 89 51 178 11 138 b 100 0 11 40 51 0 b 544 444 346 0 544 199 b 100 889 544 690 346 889 b 11 800 51 889 11 849 b 100 711 11 751 51 711 b 367 444 247 711 367 592 b 100 178 367 297 247 178 z "},"*":{"ha":600,"x_min":0,"x_max":0,"o":"m 278 644 l 278 769 l 185 863 b 122 889 168 879 146 889 b 33 800 75 889 33 847 b 60 738 33 776 43 754 l 153 644 z m 153 600 l 60 507 b 33 444 43 490 33 468 b 122 356 33 397 75 356 b 185 382 146 356 168 365 l 278 475 l 278 600 z m 444 644 l 540 738 b 567 800 557 754 567 776 b 478 889 567 847 525 889 b 415 863 454 889 432 879 l 322 769 l 322 644 z m 322 600 l 322 475 l 415 382 b 478 356 432 365 454 356 b 567 444 525 356 567 397 b 540 507 567 468 557 490 l 444 600 z "},"+":{"ha":778,"x_min":0,"x_max":0,"o":"m 478 711 b 389 800 478 760 438 800 b 300 711 340 800 300 760 l 300 533 l 122 533 b 33 444 74 533 33 493 b 122 356 33 396 74 356 l 300 356 l 300 178 b 389 89 300 129 340 89 b 478 178 438 89 478 129 l 478 356 l 656 356 b 744 444 704 356 744 396 b 656 533 744 493 704 533 l 478 533 z "},",":{"ha":244,"x_min":0,"x_max":0,"o":"m 33 -89 b 122 -178 33 -137 74 -178 b 211 -89 171 -178 211 -137 l 211 89 b 122 178 211 138 171 178 b 33 89 74 178 33 138 z "},"-":{"ha":511,"x_min":0,"x_max":0,"o":"m 389 356 b 478 444 438 356 478 396 b 389 533 478 493 438 533 l 122 533 b 33 444 74 533 33 493 b 122 356 33 396 74 356 z "},".":{"ha":244,"x_min":0,"x_max":0,"o":"m 22 100 b 122 0 22 44 67 0 b 222 100 178 0 222 44 b 122 200 222 156 178 200 b 22 100 67 200 22 156 z "},"/":{"ha":867,"x_min":0,"x_max":0,"o":"m 851 738 b 878 800 868 754 878 776 b 789 889 878 847 836 889 b 726 863 765 889 743 879 l 15 151 b -11 89 -3 135 -11 111 b 78 0 -11 40 29 0 b 140 26 100 0 124 8 z "},":":{"ha":244,"x_min":0,"x_max":0,"o":"m 22 567 b 122 467 22 511 67 467 b 222 567 178 467 222 511 b 122 667 222 622 178 667 b 22 567 67 667 22 622 z m 22 233 b 122 133 22 178 67 133 b 222 233 178 133 222 178 b 122 333 222 289 178 333 b 22 233 67 333 22 289 z "},";":{"ha":244,"x_min":0,"x_max":0,"o":"m 33 44 b 122 -44 33 -4 74 -44 b 211 44 171 -44 211 -4 l 211 222 b 122 311 211 271 171 311 b 33 222 74 311 33 271 z m 22 567 b 122 467 22 511 67 467 b 222 567 178 467 222 511 b 122 667 222 622 178 667 b 22 567 67 667 22 622 z "},"<":{"ha":600,"x_min":0,"x_max":0,"o":"m 58 507 b 33 444 43 492 33 467 b 58 382 33 421 42 397 l 415 26 b 478 0 432 10 454 0 b 567 89 525 0 567 42 b 542 151 565 111 557 135 l 249 444 l 542 738 b 567 800 557 753 567 778 b 478 889 567 847 525 889 b 415 863 454 889 432 879 z "},"=":{"ha":778,"x_min":0,"x_max":0,"o":"m 656 533 b 744 622 704 533 744 574 b 656 711 744 671 704 711 l 122 711 b 33 622 74 711 33 671 b 122 533 33 574 74 533 z m 656 178 b 744 267 704 178 744 218 b 656 356 744 315 704 356 l 122 356 b 33 267 74 356 33 315 b 122 178 33 218 74 178 z "},">":{"ha":600,"x_min":0,"x_max":0,"o":"m 185 863 b 122 889 168 879 146 889 b 33 800 75 889 33 847 b 58 738 33 776 42 753 l 351 444 l 58 151 b 33 89 43 136 33 111 b 122 0 33 42 75 0 b 185 26 146 0 168 10 l 542 382 b 567 444 557 397 567 422 b 542 507 565 467 558 492 z "},"?":{"ha":756,"x_min":0,"x_max":0,"o":"m 11 622 b 100 533 11 574 51 533 b 189 622 149 533 189 574 b 367 800 189 721 268 800 b 544 622 465 800 544 721 b 367 444 544 524 465 444 b 278 356 318 444 278 404 b 367 267 278 307 318 267 b 722 622 563 267 722 426 b 367 978 722 818 563 978 b 11 622 171 978 11 818 z m 267 100 b 367 0 267 44 311 0 b 467 100 422 0 467 44 b 367 200 467 156 422 200 b 267 100 311 200 267 156 z "},"@":{"ha":1111,"x_min":0,"x_max":0,"o":"m 556 267 b 467 356 507 267 467 307 b 556 444 467 404 507 444 b 644 356 604 444 644 404 l 644 267 z m 1089 356 b 556 889 1089 650 850 889 b 22 356 261 889 22 650 b 556 -178 22 61 261 -178 l 733 -178 b 822 -89 782 -178 822 -137 b 733 0 822 -40 782 0 l 556 0 b 200 356 360 0 200 160 b 556 711 200 551 360 711 b 911 356 751 711 911 551 b 822 267 911 307 871 267 l 822 356 b 556 622 822 503 703 622 b 289 356 408 622 289 503 b 556 89 289 208 408 89 l 822 89 b 1089 356 969 89 1089 208 z "},"A":{"ha":911,"x_min":0,"x_max":0,"o":"m 856 489 b 456 889 856 710 676 889 b 56 489 235 889 56 710 l 56 89 b 144 0 56 40 96 0 b 233 89 193 0 233 40 l 233 267 l 678 267 l 678 89 b 767 0 678 40 718 0 b 856 89 815 0 856 40 z m 233 489 b 456 711 233 611 333 711 b 678 489 578 711 678 611 l 678 444 l 233 444 z "},"B":{"ha":878,"x_min":0,"x_max":0,"o":"m 589 0 b 856 267 736 0 856 119 b 763 469 856 347 819 421 b 811 622 793 513 811 565 b 544 889 811 769 692 889 l 144 889 b 56 800 96 889 56 849 l 56 89 b 144 0 56 40 96 0 z m 589 356 b 678 267 638 356 678 315 b 589 178 678 218 638 178 l 233 178 l 233 356 z m 544 711 b 633 622 593 711 633 671 b 544 533 633 574 593 533 l 233 533 l 233 711 z "},"C":{"ha":822,"x_min":0,"x_max":0,"o":"m 781 131 b 807 193 797 147 807 169 b 718 282 807 240 765 282 b 656 256 694 282 672 272 b 467 178 603 203 535 178 b 200 444 319 178 200 297 b 467 711 200 592 319 711 b 656 633 535 711 604 686 b 718 607 672 615 694 607 b 807 696 765 607 807 647 b 781 758 807 718 797 742 b 467 889 693 844 581 889 b 22 444 221 889 22 690 b 467 0 22 199 221 0 b 781 131 581 0 693 43 z "},"D":{"ha":878,"x_min":0,"x_max":0,"o":"m 411 0 b 856 444 657 0 856 199 b 411 889 856 690 657 889 l 144 889 b 56 800 96 889 56 849 l 56 89 b 144 0 56 40 96 0 z m 411 711 b 678 444 558 711 678 592 b 411 178 678 297 558 178 l 233 178 l 233 711 z "},"E":{"ha":778,"x_min":0,"x_max":0,"o":"m 233 356 l 589 356 b 678 444 638 356 678 396 b 589 533 678 493 638 533 l 233 533 l 233 711 l 678 711 b 767 800 726 711 767 751 b 678 889 767 849 726 889 l 144 889 b 56 800 96 889 56 849 l 56 89 b 144 0 56 40 96 0 l 678 0 b 767 89 726 0 767 40 b 678 178 767 138 726 178 l 233 178 z "},"F":{"ha":778,"x_min":0,"x_max":0,"o":"m 233 356 l 567 356 b 656 444 615 356 656 396 b 567 533 656 493 615 533 l 233 533 l 233 711 l 678 711 b 767 800 726 711 767 751 b 678 889 767 849 726 889 l 144 889 b 56 800 96 889 56 849 l 56 89 b 144 0 56 40 96 0 b 233 89 193 0 233 40 z "},"G":{"ha":867,"x_min":0,"x_max":0,"o":"m 807 444 b 718 533 807 493 767 533 l 556 533 b 467 444 507 533 467 493 b 556 356 467 396 507 356 l 629 356 l 629 232 b 467 178 581 194 524 178 b 200 444 319 178 200 297 b 467 711 200 592 319 711 b 656 633 535 711 604 686 b 718 607 672 615 694 607 b 807 696 765 607 807 647 b 781 758 807 718 797 742 b 467 889 693 844 581 889 b 22 444 221 889 22 690 b 467 0 22 199 221 0 b 635 33 524 0 581 11 b 718 -11 653 6 683 -11 b 818 89 774 -11 818 33 b 796 151 818 113 810 133 b 807 193 803 164 807 178 z "},"H":{"ha":911,"x_min":0,"x_max":0,"o":"m 233 356 l 678 356 l 678 89 b 767 0 678 40 718 0 b 856 89 815 0 856 40 l 856 800 b 767 889 856 849 815 889 b 678 800 718 889 678 849 l 678 533 l 233 533 l 233 800 b 144 889 233 849 193 889 b 56 800 96 889 56 849 l 56 89 b 144 0 56 40 96 0 b 233 89 193 0 233 40 z "},"I":{"ha":556,"x_min":0,"x_max":0,"o":"m 189 178 l 100 178 b 11 89 51 178 11 138 b 100 0 11 40 51 0 l 456 0 b 544 89 504 0 544 40 b 456 178 544 138 504 178 l 367 178 l 367 711 l 456 711 b 544 800 504 711 544 751 b 456 889 544 849 504 889 l 100 889 b 11 800 51 889 11 849 b 100 711 11 751 51 711 l 189 711 z "},"J":{"ha":756,"x_min":0,"x_max":0,"o":"m 11 356 b 367 0 11 160 171 0 b 722 356 563 0 722 160 l 722 800 b 633 889 722 849 682 889 b 544 800 585 889 544 849 l 544 356 b 367 178 544 257 465 178 b 189 356 268 178 189 257 b 100 444 189 404 149 444 b 11 356 51 444 11 404 z "},"K":{"ha":967,"x_min":0,"x_max":0,"o":"m 918 738 b 944 800 935 754 944 776 b 856 889 944 849 904 889 b 793 863 832 889 810 879 l 233 303 l 233 800 b 144 889 233 849 193 889 b 56 800 96 889 56 849 l 56 89 b 144 0 56 40 96 0 b 207 26 167 0 190 8 l 500 319 l 793 26 b 856 0 810 8 833 0 b 944 89 904 0 944 40 b 918 151 944 111 936 135 l 625 444 z "},"L":{"ha":778,"x_min":0,"x_max":0,"o":"m 56 89 b 144 0 56 40 96 0 l 678 0 b 767 89 726 0 767 40 b 678 178 767 138 726 178 l 233 178 l 233 800 b 144 889 233 849 193 889 b 56 800 96 889 56 849 z "},"M":{"ha":1089,"x_min":0,"x_max":0,"o":"m 544 311 b 607 338 567 311 590 319 l 856 586 l 856 89 b 944 0 856 40 896 0 b 1033 89 993 0 1033 40 l 1033 800 b 944 889 1033 849 993 889 b 882 863 921 889 899 879 l 544 525 l 207 863 b 144 889 190 879 168 889 b 56 800 96 889 56 849 l 56 89 b 144 0 56 40 96 0 b 233 89 193 0 233 40 l 233 586 l 482 338 b 544 311 499 319 522 311 z "},"N":{"ha":1000,"x_min":0,"x_max":0,"o":"m 767 303 b 207 863 767 303 207 863 b 144 889 190 879 168 889 b 56 800 96 889 56 849 l 56 89 b 144 0 56 40 96 0 b 233 89 193 0 233 40 l 233 586 b 793 26 233 586 793 26 b 856 0 810 8 833 0 b 944 89 904 0 944 40 l 944 800 b 856 889 944 849 904 889 b 767 800 807 889 767 849 z "},"O":{"ha":933,"x_min":0,"x_max":0,"o":"m 22 444 b 467 0 22 199 221 0 b 911 444 713 0 911 199 b 467 889 911 690 713 889 b 22 444 221 889 22 690 z m 200 444 b 467 711 200 592 319 711 b 733 444 614 711 733 592 b 467 178 733 297 614 178 b 200 444 319 178 200 297 z "},"P":{"ha":878,"x_min":0,"x_max":0,"o":"m 544 267 b 856 578 717 267 856 406 b 544 889 856 750 717 889 l 144 889 b 56 800 96 889 56 849 l 56 89 b 144 0 56 40 96 0 b 233 89 193 0 233 40 l 233 267 z m 544 711 b 678 578 618 711 678 651 b 544 444 678 504 618 444 l 233 444 l 233 711 z "},"Q":{"ha":956,"x_min":0,"x_max":0,"o":"m 22 444 b 467 0 22 199 221 0 b 722 81 561 0 650 29 b 822 -11 726 29 769 -11 b 922 89 878 -11 922 33 b 831 189 922 142 882 185 b 911 444 881 261 911 349 b 467 889 911 690 713 889 b 22 444 221 889 22 690 z m 200 444 b 467 711 200 592 319 711 b 733 444 614 711 733 592 b 467 178 733 297 614 178 b 200 444 319 178 200 297 z "},"R":{"ha":889,"x_min":0,"x_max":0,"o":"m 233 356 l 375 356 l 704 26 b 767 0 721 8 744 0 b 856 89 815 0 856 40 b 829 151 856 111 847 135 l 622 357 b 856 622 754 374 856 486 b 589 889 856 769 736 889 l 144 889 b 56 800 96 889 56 849 l 56 89 b 144 0 56 40 96 0 b 233 89 193 0 233 40 z m 589 711 b 678 622 638 711 678 671 b 589 533 678 574 638 533 l 233 533 l 233 711 z "},"S":{"ha":844,"x_min":0,"x_max":0,"o":"m 122 178 b 33 89 74 178 33 138 b 122 0 33 40 74 0 l 567 0 b 833 267 714 0 833 119 b 567 533 833 414 714 533 l 300 533 b 211 622 251 533 211 574 b 300 711 211 671 251 711 l 700 711 b 789 800 749 711 789 751 b 700 889 789 849 749 889 l 300 889 b 33 622 153 889 33 769 b 300 356 33 475 153 356 l 567 356 b 656 267 615 356 656 315 b 567 178 656 218 615 178 z "},"T":{"ha":822,"x_min":0,"x_max":0,"o":"m 322 89 b 411 0 322 40 363 0 b 500 89 460 0 500 40 l 500 711 l 722 711 b 811 800 771 711 811 751 b 722 889 811 849 771 889 l 100 889 b 11 800 51 889 11 849 b 100 711 11 751 51 711 l 322 711 z "},"U":{"ha":867,"x_min":0,"x_max":0,"o":"m 833 800 b 744 889 833 849 793 889 b 656 800 696 889 656 849 l 656 400 b 433 178 656 278 556 178 b 211 400 311 178 211 278 l 211 800 b 122 889 211 849 171 889 b 33 800 74 889 33 849 l 33 400 b 433 0 33 179 213 0 b 833 400 654 0 833 179 z "},"V":{"ha":867,"x_min":0,"x_max":0,"o":"m 211 436 l 211 800 b 122 889 211 849 171 889 b 33 800 74 889 33 849 l 33 400 b 60 338 33 376 43 354 l 371 26 b 433 0 389 8 410 0 b 496 26 456 0 478 8 l 807 338 b 833 400 824 354 833 376 l 833 800 b 744 889 833 849 793 889 b 656 800 696 889 656 849 l 656 436 b 433 214 656 436 433 214 z "},"W":{"ha":1089,"x_min":0,"x_max":0,"o":"m 1033 800 b 944 889 1033 849 993 889 b 856 800 896 889 856 849 l 856 303 l 607 551 b 544 578 590 569 567 578 b 482 551 522 578 499 569 l 233 303 l 233 800 b 144 889 233 849 193 889 b 56 800 96 889 56 849 l 56 89 b 144 0 56 40 96 0 b 207 26 168 0 190 10 l 544 364 l 882 26 b 944 0 899 10 921 0 b 1033 89 993 0 1033 40 z "},"X":{"ha":933,"x_min":0,"x_max":0,"o":"m 342 444 l 49 151 b 22 89 31 133 22 113 b 111 0 22 40 63 0 b 174 26 133 0 156 8 l 467 319 l 760 26 b 822 0 778 8 799 0 b 911 89 871 0 911 40 b 885 151 911 111 901 133 l 592 444 l 885 738 b 911 800 901 754 911 776 b 822 889 911 847 869 889 b 760 863 799 889 776 879 l 467 569 l 174 863 b 111 889 157 879 135 889 b 22 800 64 889 22 847 b 49 738 22 776 32 754 z "},"Y":{"ha":911,"x_min":0,"x_max":0,"o":"m 456 0 b 544 89 504 0 544 40 l 544 408 l 874 738 b 900 800 890 754 900 776 b 811 889 900 847 858 889 b 749 863 788 889 765 879 l 456 569 l 163 863 b 100 889 146 879 124 889 b 11 800 53 889 11 847 b 38 738 11 776 21 754 l 367 408 l 367 89 b 456 0 367 40 407 0 z "},"Z":{"ha":933,"x_min":0,"x_max":0,"o":"m 608 711 b 49 151 608 711 49 151 b 22 89 32 135 22 113 b 111 0 22 40 63 0 l 822 0 b 911 89 871 0 911 40 b 822 178 911 138 871 178 l 325 178 b 885 738 325 178 885 738 b 911 800 903 754 911 778 b 822 889 911 849 871 889 l 111 889 b 22 800 63 889 22 849 b 111 711 22 751 63 711 z "},"[":{"ha":422,"x_min":0,"x_max":0,"o":"m 56 0 b 144 -89 56 -49 96 -89 l 322 -89 b 411 0 371 -89 411 -49 b 322 89 411 49 371 89 l 233 89 l 233 800 l 322 800 b 411 889 371 800 411 840 b 322 978 411 938 371 978 l 144 978 b 56 889 96 978 56 938 z "},"\\":{"ha":867,"x_min":0,"x_max":0,"o":"m 726 26 b 789 0 744 8 767 0 b 878 89 838 0 878 40 b 851 151 878 111 868 133 l 140 863 b 78 889 124 879 101 889 b -11 800 31 889 -11 847 b 15 738 -11 776 -1 754 z "},"]":{"ha":422,"x_min":0,"x_max":0,"o":"m 367 889 b 278 978 367 938 326 978 l 100 978 b 11 889 51 978 11 938 b 100 800 11 840 51 800 l 189 800 l 189 89 l 100 89 b 11 0 51 89 11 49 b 100 -89 11 -49 51 -89 l 278 -89 b 367 0 326 -89 367 -49 z "},"^":{"ha":689,"x_min":0,"x_max":0,"o":"m 407 864 b 344 889 392 879 367 889 b 282 864 321 888 297 879 l 60 640 b 33 578 43 624 33 601 b 122 489 33 531 75 489 b 185 514 144 489 168 497 l 344 674 l 504 514 b 567 489 519 499 544 489 b 656 578 614 489 656 531 b 629 640 656 601 646 624 z "},"_":{"ha":778,"x_min":0,"x_max":0,"o":"m 656 -267 b 744 -178 704 -267 744 -226 b 656 -89 744 -129 704 -89 l 122 -89 b 33 -178 74 -89 33 -129 b 122 -267 33 -226 74 -267 z "},"`":{"ha":289,"x_min":0,"x_max":0,"o":"m 142 775 b 189 756 154 763 172 756 b 256 822 226 756 256 785 b 236 869 256 840 249 857 l 147 958 b 100 978 135 971 117 978 b 33 911 63 978 33 949 b 53 864 33 893 40 876 z "},"a":{"ha":778,"x_min":0,"x_max":0,"o":"m 22 356 b 378 0 22 160 182 0 b 553 47 442 0 501 17 b 644 -11 569 13 604 -11 b 744 89 700 -11 744 33 b 686 179 744 129 721 164 b 733 356 715 232 733 292 b 378 711 733 551 574 711 b 22 356 182 711 22 551 z m 200 356 b 378 533 200 454 279 533 b 556 356 476 533 556 454 b 378 178 556 257 476 178 b 200 356 279 178 200 257 z "},"b":{"ha":789,"x_min":0,"x_max":0,"o":"m 56 356 b 101 181 56 292 72 232 b 43 89 67 165 43 129 b 143 -11 43 33 88 -11 b 233 47 183 -11 218 13 b 411 0 286 17 346 0 b 767 356 607 0 767 160 b 411 711 767 551 607 711 b 233 663 346 711 285 693 l 233 889 b 144 978 233 938 193 978 b 56 889 96 978 56 938 z m 233 356 b 411 533 233 454 313 533 b 589 356 510 533 589 454 b 411 178 589 257 510 178 b 233 356 313 178 233 257 z "},"c":{"ha":678,"x_min":0,"x_max":0,"o":"m 629 104 b 656 167 646 121 656 143 b 567 256 656 214 614 256 b 504 229 543 256 521 246 b 378 178 468 194 424 178 b 200 356 279 178 200 257 b 378 533 200 454 279 533 b 504 482 424 533 469 518 b 567 456 521 464 543 456 b 656 544 614 456 656 496 b 629 607 656 567 646 590 b 378 711 560 676 468 711 b 22 356 182 711 22 551 b 378 0 22 160 182 0 b 629 104 468 0 560 35 z "},"d":{"ha":789,"x_min":0,"x_max":0,"o":"m 733 356 l 733 889 b 644 978 733 938 693 978 b 556 889 596 978 556 938 l 556 663 b 378 711 503 693 442 711 b 22 356 182 711 22 551 b 378 0 22 160 182 0 b 553 47 442 0 501 17 b 644 -11 569 13 604 -11 b 744 89 700 -11 744 33 b 686 179 744 129 721 164 b 733 356 715 232 733 292 z m 556 356 b 378 178 556 257 476 178 b 200 356 279 178 200 257 b 378 533 200 454 279 533 b 556 356 476 533 556 454 z "},"e":{"ha":756,"x_min":0,"x_max":0,"o":"m 467 0 b 556 89 515 0 556 40 b 467 178 556 138 515 178 l 378 178 b 224 267 311 178 254 213 l 644 267 b 733 356 693 267 733 307 b 378 711 733 551 574 711 b 22 356 182 711 22 551 b 378 0 22 160 182 0 z m 378 533 b 532 444 443 533 501 497 l 224 444 b 378 533 254 497 311 533 z "},"f":{"ha":578,"x_min":0,"x_max":0,"o":"m 478 533 b 567 622 526 533 567 574 b 478 711 567 671 526 711 l 344 711 b 433 800 344 760 385 800 l 478 800 b 567 889 526 800 567 840 b 478 978 567 938 526 978 l 433 978 b 167 711 286 978 167 858 l 100 711 b 11 622 51 711 11 671 b 100 533 11 574 51 533 l 167 533 l 167 89 b 256 0 167 40 207 0 b 344 89 304 0 344 40 l 344 533 z "},"g":{"ha":789,"x_min":0,"x_max":0,"o":"m 378 -89 b 251 -37 332 -89 288 -72 b 189 -11 235 -21 213 -11 b 100 -100 142 -11 100 -53 b 126 -162 100 -124 110 -146 b 378 -267 196 -232 288 -267 b 733 89 574 -267 733 -107 l 733 356 b 686 531 733 419 715 479 b 744 622 721 547 744 582 b 644 722 744 678 700 722 b 553 664 604 722 569 699 b 378 711 501 693 442 711 b 22 356 182 711 22 551 b 378 0 22 160 182 0 b 550 44 440 0 499 17 b 378 -89 531 -32 461 -89 z m 200 356 b 378 533 200 454 279 533 b 556 356 476 533 556 454 b 378 178 556 257 476 178 b 200 356 279 178 200 257 z "},"h":{"ha":800,"x_min":0,"x_max":0,"o":"m 767 356 b 411 711 767 551 607 711 b 233 663 346 711 285 693 l 233 889 b 144 978 233 938 193 978 b 56 889 96 978 56 938 l 56 89 b 144 0 56 40 96 0 b 233 89 193 0 233 40 l 233 356 b 411 533 233 454 313 533 b 589 356 510 533 589 454 l 589 89 b 678 0 589 40 629 0 b 767 89 726 0 767 40 z "},"i":{"ha":289,"x_min":0,"x_max":0,"o":"m 233 622 b 144 711 233 671 193 711 b 56 622 96 711 56 671 l 56 89 b 144 0 56 40 96 0 b 233 89 193 0 233 40 z m 44 856 b 144 756 44 800 89 756 b 244 856 200 756 244 800 b 144 956 244 911 200 956 b 44 856 89 956 44 911 z "},"j":{"ha":289,"x_min":0,"x_max":0,"o":"m -33 -89 b -122 -178 -82 -89 -122 -129 b -33 -267 -122 -226 -82 -267 b 233 0 114 -267 233 -147 l 233 622 b 144 711 233 671 193 711 b 56 622 96 711 56 671 l 56 0 b -33 -89 56 -49 15 -89 z m 44 856 b 144 756 44 800 89 756 b 244 856 200 756 244 800 b 144 956 244 911 200 956 b 44 856 89 956 44 911 z "},"k":{"ha":800,"x_min":0,"x_max":0,"o":"m 740 560 b 767 622 757 576 767 599 b 678 711 767 671 726 711 b 615 685 654 711 632 701 l 233 303 l 233 889 b 144 978 233 938 193 978 b 56 889 96 978 56 938 l 56 89 b 144 0 56 40 96 0 b 207 26 167 0 190 8 l 411 231 l 615 26 b 678 0 632 8 656 0 b 767 89 726 0 767 40 b 740 151 767 111 758 135 l 536 356 z "},"l":{"ha":289,"x_min":0,"x_max":0,"o":"m 233 889 b 144 978 233 938 193 978 b 56 889 96 978 56 938 l 56 89 b 144 0 56 40 96 0 b 233 89 193 0 233 40 z "},"m":{"ha":1156,"x_min":0,"x_max":0,"o":"m 500 89 b 589 0 500 40 540 0 b 678 89 638 0 678 40 l 678 400 b 811 533 678 474 738 533 b 944 400 885 533 944 474 l 944 89 b 1033 0 944 40 985 0 b 1122 89 1082 0 1122 40 l 1122 400 b 811 711 1122 572 983 711 b 589 618 724 711 644 675 b 367 711 532 675 454 711 b 228 678 317 711 269 699 b 144 722 210 704 179 722 b 44 622 89 722 44 678 b 88 539 44 588 61 557 b 56 400 67 497 56 450 l 56 89 b 144 0 56 40 96 0 b 233 89 193 0 233 40 l 233 400 b 367 533 233 474 293 533 b 500 400 440 533 500 474 z "},"n":{"ha":800,"x_min":0,"x_max":0,"o":"m 44 622 b 103 531 44 582 68 547 b 56 356 72 479 56 419 l 56 89 b 144 0 56 40 96 0 b 233 89 193 0 233 40 l 233 356 b 411 533 233 454 313 533 b 589 356 510 533 589 454 l 589 89 b 678 0 589 40 629 0 b 767 89 726 0 767 40 l 767 356 b 411 711 767 551 607 711 b 235 664 347 711 288 693 b 144 722 219 699 185 722 b 44 622 89 722 44 678 z "},"o":{"ha":756,"x_min":0,"x_max":0,"o":"m 22 356 b 378 0 22 160 182 0 b 733 356 574 0 733 160 b 378 711 733 551 574 711 b 22 356 182 711 22 551 z m 200 356 b 378 533 200 454 279 533 b 556 356 476 533 556 454 b 378 178 556 257 476 178 b 200 356 279 178 200 257 z "},"p":{"ha":789,"x_min":0,"x_max":0,"o":"m 44 622 b 103 531 44 582 68 547 b 56 356 72 479 56 419 l 56 -178 b 144 -267 56 -226 96 -267 b 233 -178 193 -267 233 -226 l 233 47 b 411 0 285 17 346 0 b 767 356 607 0 767 160 b 411 711 767 551 607 711 b 235 664 347 711 288 693 b 144 722 219 699 185 722 b 44 622 89 722 44 678 z m 233 356 b 411 533 233 454 313 533 b 589 356 510 533 589 454 b 411 178 589 257 510 178 b 233 356 313 178 233 257 z "},"q":{"ha":789,"x_min":0,"x_max":0,"o":"m 733 356 b 686 531 733 419 715 479 b 744 622 721 547 744 582 b 644 722 744 678 700 722 b 553 664 604 722 569 699 b 378 711 501 693 442 711 b 22 356 182 711 22 551 b 378 0 22 160 182 0 b 556 47 442 0 503 17 l 556 -178 b 644 -267 556 -226 596 -267 b 733 -178 693 -267 733 -226 z m 556 356 b 378 178 556 257 476 178 b 200 356 279 178 200 257 b 378 533 200 454 279 533 b 556 356 476 533 556 454 z "},"r":{"ha":511,"x_min":0,"x_max":0,"o":"m 44 622 b 103 531 44 582 68 547 b 56 356 72 479 56 419 l 56 89 b 144 0 56 40 96 0 b 233 89 193 0 233 40 l 233 356 b 411 533 233 454 313 533 b 500 622 460 533 500 574 b 411 711 500 671 460 711 b 235 664 347 711 288 693 b 144 722 219 699 185 722 b 44 622 89 722 44 678 z "},"s":{"ha":678,"x_min":0,"x_max":0,"o":"m 122 178 b 33 89 74 178 33 138 b 122 0 33 40 74 0 l 433 0 b 656 222 556 0 656 100 b 433 444 656 344 556 444 l 256 444 b 211 489 231 444 211 464 b 256 533 211 514 231 533 l 522 533 b 611 622 571 533 611 574 b 522 711 611 671 571 711 l 256 711 b 33 489 133 711 33 611 b 256 267 33 367 133 267 l 433 267 b 478 222 458 267 478 247 b 433 178 478 197 458 178 z "},"t":{"ha":578,"x_min":0,"x_max":0,"o":"m 100 711 b 11 622 51 711 11 671 b 100 533 11 574 51 533 l 167 533 l 167 267 b 433 0 167 119 286 0 l 478 0 b 567 89 526 0 567 40 b 478 178 567 138 526 178 l 433 178 b 344 267 385 178 344 218 l 344 533 l 478 533 b 567 622 526 533 567 574 b 478 711 567 671 526 711 l 344 711 l 344 800 b 256 889 344 849 304 889 b 167 800 207 889 167 849 l 167 711 z "},"u":{"ha":800,"x_min":0,"x_max":0,"o":"m 744 622 b 656 711 744 671 704 711 b 567 622 607 711 567 671 l 567 356 b 389 178 567 257 488 178 b 211 356 290 178 211 257 l 211 622 b 122 711 211 671 171 711 b 33 622 74 711 33 671 l 33 356 b 389 0 33 160 193 0 b 564 47 453 0 513 17 b 656 -11 581 13 615 -11 b 756 89 711 -11 756 33 b 697 179 756 129 732 164 b 744 356 726 232 744 292 z "},"v":{"ha":778,"x_min":0,"x_max":0,"o":"m 211 392 l 211 622 b 122 711 211 671 171 711 b 33 622 74 711 33 671 l 33 356 b 60 293 33 332 43 310 l 326 26 b 389 0 343 8 367 0 b 451 26 411 0 435 8 l 718 293 b 744 356 735 310 744 332 l 744 622 b 656 711 744 671 704 711 b 567 622 607 711 567 671 l 567 392 b 389 214 567 392 389 214 z "},"w":{"ha":1133,"x_min":0,"x_max":0,"o":"m 344 178 b 211 311 271 178 211 238 l 211 622 b 122 711 211 671 171 711 b 33 622 74 711 33 671 l 33 311 b 344 0 33 139 172 0 b 567 93 432 0 510 35 b 789 0 622 35 701 0 b 1100 311 961 0 1100 139 l 1100 622 b 1011 711 1100 671 1060 711 b 922 622 963 711 922 671 l 922 311 b 789 178 922 238 863 178 b 656 311 715 178 656 238 l 656 622 b 567 711 656 671 615 711 b 478 622 518 711 478 671 l 478 311 b 344 178 478 238 418 178 z "},"x":{"ha":778,"x_min":0,"x_max":0,"o":"m 264 356 l 60 151 b 33 89 42 133 33 113 b 122 0 33 40 74 0 b 185 26 144 0 167 8 l 389 231 l 593 26 b 656 0 611 8 632 0 b 744 89 704 0 744 40 b 718 151 744 111 735 133 l 514 356 l 718 560 b 744 622 735 576 744 599 b 656 711 744 669 703 711 b 593 685 632 711 610 701 l 389 481 l 185 685 b 122 711 168 701 146 711 b 33 622 75 711 33 669 b 60 560 33 599 43 576 z "},"y":{"ha":800,"x_min":0,"x_max":0,"o":"m 389 -89 b 263 -37 343 -89 299 -72 b 200 -11 246 -21 224 -11 b 111 -100 153 -11 111 -53 b 138 -162 111 -124 121 -146 b 389 -267 207 -232 299 -267 b 744 89 585 -267 744 -107 l 744 622 b 656 711 744 671 704 711 b 567 622 607 711 567 671 l 567 356 b 389 178 567 257 488 178 b 211 356 290 178 211 257 l 211 622 b 122 711 211 671 171 711 b 33 622 74 711 33 671 l 33 356 b 389 0 33 160 193 0 b 561 44 451 0 510 17 b 389 -89 542 -32 472 -89 z "},"z":{"ha":767,"x_min":0,"x_max":0,"o":"m 58 151 b 33 89 42 135 33 113 b 122 0 33 40 74 0 l 644 0 b 733 89 693 0 733 40 b 644 178 733 138 693 178 l 333 178 l 708 560 b 733 622 725 576 733 599 b 644 711 733 671 693 711 l 122 711 b 33 622 74 711 33 671 b 122 533 33 574 74 533 l 433 533 z "},"{":{"ha":511,"x_min":0,"x_max":0,"o":"m 11 444 b 111 344 11 389 56 344 b 144 350 122 344 133 346 l 144 178 b 411 -89 144 31 264 -89 b 500 0 460 -89 500 -49 b 411 89 500 49 460 89 b 322 178 363 89 322 129 l 322 711 b 411 800 322 760 363 800 b 500 889 460 800 500 840 b 411 978 500 938 460 978 b 144 711 264 978 144 858 l 144 539 b 111 544 133 542 122 544 b 11 444 56 544 11 500 z "},"|":{"ha":289,"x_min":0,"x_max":0,"o":"m 233 889 b 144 978 233 938 193 978 b 56 889 96 978 56 938 l 56 -89 b 144 -178 56 -137 96 -178 b 233 -89 193 -178 233 -137 z "},"}":{"ha":511,"x_min":0,"x_max":0,"o":"m 367 711 b 100 978 367 858 247 978 b 11 889 51 978 11 938 b 100 800 11 840 51 800 b 189 711 149 800 189 760 l 189 178 b 100 89 189 129 149 89 b 11 0 51 89 11 49 b 100 -89 11 -49 51 -89 b 367 178 247 -89 367 31 l 367 350 b 400 344 376 346 388 344 b 500 444 456 344 500 389 b 400 544 500 500 456 544 b 367 539 388 544 376 542 z "},"~":{"ha":778,"x_min":0,"x_max":0,"o":"m 33 356 b 122 267 33 307 74 267 b 211 356 171 267 211 307 l 211 444 b 256 489 211 469 231 489 b 300 444 281 489 300 469 b 522 222 300 322 400 222 b 744 444 644 222 744 322 l 744 533 b 656 622 744 582 704 622 b 567 533 607 622 567 582 l 567 444 b 522 400 567 419 547 400 b 478 444 497 400 478 419 b 256 667 478 567 378 667 b 33 444 133 667 33 567 z "}," ":{"ha":378,"x_min":0,"x_max":0,"o":""},"¡":{"ha":289,"x_min":0,"x_max":0,"o":"m 233 533 b 144 622 233 582 193 622 b 56 533 96 622 56 582 l 56 0 b 144 -89 56 -49 96 -89 b 233 0 193 -89 233 -49 z m 44 789 b 144 689 44 733 89 689 b 244 789 200 689 244 733 b 144 889 244 844 200 889 b 44 789 89 889 44 844 z "},"¢":{"ha":678,"x_min":0,"x_max":0,"o":"m 629 193 b 656 256 646 210 656 232 b 567 344 656 303 614 344 b 504 318 543 344 521 335 b 444 279 486 300 465 288 l 444 610 b 504 571 465 601 486 589 b 567 544 521 553 543 544 b 656 633 614 544 656 585 b 629 696 656 656 646 679 b 444 793 576 747 511 781 l 444 822 b 378 889 444 858 414 889 b 311 822 342 889 311 858 l 311 793 b 22 444 147 763 22 617 b 311 94 22 271 147 126 l 311 67 b 378 0 311 31 342 0 b 444 67 414 0 444 31 l 444 94 b 629 193 511 108 576 140 z m 200 444 b 311 610 200 519 246 583 l 311 279 b 200 444 246 306 200 369 z "},"£":{"ha":778,"x_min":0,"x_max":0,"o":"m 478 889 b 122 533 282 889 122 729 l 122 178 b 33 89 74 178 33 138 b 122 0 33 40 74 0 l 656 0 b 744 89 704 0 744 40 b 656 178 744 138 704 178 l 300 178 l 300 356 l 478 356 b 567 444 526 356 567 396 b 478 533 567 493 526 533 l 300 533 b 478 711 300 632 379 711 b 604 660 524 711 568 694 b 667 633 621 642 643 633 b 756 722 714 633 756 674 b 729 785 756 744 746 768 b 478 889 660 854 568 889 z "},"¤":{"ha":778,"x_min":0,"x_max":0,"o":"m 389 711 b 274 685 347 711 308 701 l 185 774 b 122 800 168 790 146 800 b 33 711 75 800 33 758 b 60 649 33 688 43 665 l 149 560 b 122 444 132 525 122 486 b 149 329 122 403 132 364 l 60 240 b 33 178 42 224 33 200 b 122 89 33 129 74 89 b 185 115 144 89 168 97 l 274 204 b 389 178 308 188 347 178 b 504 204 431 178 469 188 l 593 115 b 656 89 610 97 633 89 b 744 178 704 89 744 129 b 718 240 744 200 736 224 l 629 329 b 656 444 646 364 656 403 b 629 560 656 486 646 525 l 718 649 b 744 711 735 665 744 688 b 656 800 744 758 703 800 b 593 774 632 800 610 790 l 504 685 b 389 711 469 701 431 711 z m 389 533 b 478 444 438 533 478 493 b 389 356 478 396 438 356 b 300 444 340 356 300 396 b 389 533 300 493 340 533 z "},"¥":{"ha":911,"x_min":0,"x_max":0,"o":"m 456 0 b 544 89 504 0 544 40 l 544 111 l 700 111 b 767 178 736 111 767 142 b 700 244 767 214 736 244 l 544 244 l 544 311 l 700 311 b 767 378 736 311 767 342 b 700 444 767 414 736 444 l 581 444 l 874 738 b 900 800 890 754 900 776 b 811 889 900 847 858 889 b 749 863 788 889 765 879 l 456 569 l 163 863 b 100 889 146 879 124 889 b 11 800 53 889 11 847 b 38 738 11 776 21 754 l 331 444 l 211 444 b 144 378 175 444 144 414 b 211 311 144 342 175 311 l 367 311 l 367 244 l 211 244 b 144 178 175 244 144 214 b 211 111 144 142 175 111 l 367 111 l 367 89 b 456 0 367 40 407 0 z "},"¦":{"ha":289,"x_min":0,"x_max":0,"o":"m 233 889 b 144 978 233 938 193 978 b 56 889 96 978 56 938 l 56 533 b 144 444 56 485 96 444 b 233 533 193 444 233 485 z m 233 267 b 144 356 233 315 193 356 b 56 267 96 356 56 315 l 56 -89 b 144 -178 56 -137 96 -178 b 233 -89 193 -178 233 -137 z "},"§":{"ha":667,"x_min":0,"x_max":0,"o":"m 244 711 b 289 756 244 736 264 756 l 467 756 b 556 844 515 756 556 796 b 467 933 556 893 515 933 l 289 933 b 67 711 167 933 67 833 b 93 607 67 674 76 638 b 22 444 49 565 22 508 b 244 222 22 322 122 222 l 378 222 b 422 178 403 222 422 203 b 378 133 422 153 403 133 l 200 133 b 111 44 151 133 111 93 b 200 -44 111 -4 151 -44 l 378 -44 b 600 178 500 -44 600 56 b 574 282 600 215 590 250 b 644 444 617 322 644 381 b 422 667 644 567 544 667 l 289 667 b 244 711 264 667 244 686 z m 244 400 b 200 444 219 400 200 419 b 244 489 200 469 219 489 l 422 489 b 467 444 447 489 467 469 b 422 400 467 419 447 400 z "},"¨":{"ha":422,"x_min":0,"x_max":0,"o":"m 11 844 b 100 756 11 796 51 756 b 189 844 149 756 189 796 b 100 933 189 893 149 933 b 11 844 51 933 11 893 z m 233 844 b 322 756 233 796 274 756 b 411 844 371 756 411 796 b 322 933 411 893 371 933 b 233 844 274 933 233 893 z "},"©":{"ha":933,"x_min":0,"x_max":0,"o":"m 22 444 b 467 0 22 199 221 0 b 911 444 713 0 911 199 b 467 889 911 690 713 889 b 22 444 221 889 22 690 z m 156 444 b 467 756 156 617 294 756 b 778 444 639 756 778 617 b 467 133 778 272 639 133 b 156 444 294 133 156 272 z m 467 533 b 529 507 490 533 513 522 b 576 488 542 494 558 488 b 643 554 614 488 643 517 b 624 601 643 572 636 589 b 467 667 583 643 528 667 b 244 444 344 667 244 567 b 467 222 244 322 344 222 b 624 288 528 222 583 246 b 643 335 636 300 643 317 b 576 401 643 372 614 401 b 529 382 558 401 542 394 b 467 356 513 367 490 356 b 378 444 418 356 378 396 b 467 533 378 493 418 533 z "},"ª":{"ha":600,"x_min":0,"x_max":0,"o":"m 300 889 b 33 622 153 889 33 769 b 300 356 33 475 153 356 b 438 394 350 356 397 369 b 511 344 449 365 478 344 b 589 422 554 344 589 379 b 535 496 589 457 565 486 b 567 622 554 533 567 576 b 300 889 567 769 447 889 z m 167 622 b 300 756 167 696 226 756 b 433 622 374 756 433 696 b 300 489 433 549 374 489 b 167 622 226 489 167 549 z "},"«":{"ha":822,"x_min":0,"x_max":0,"o":"m 58 418 b 33 356 43 403 33 378 b 58 293 33 332 42 308 l 282 71 b 344 44 299 54 321 44 b 433 133 392 44 433 86 b 408 196 432 156 424 179 l 249 356 l 408 515 b 433 578 424 531 433 556 b 344 667 433 625 392 667 b 282 640 321 667 299 657 z m 414 418 b 389 356 399 403 389 378 b 414 293 389 332 397 308 l 638 71 b 700 44 654 54 676 44 b 789 133 747 44 789 86 b 764 196 788 156 779 179 l 604 356 l 764 515 b 789 578 779 531 789 556 b 700 667 789 625 747 667 b 638 640 676 667 654 657 z "},"¬":{"ha":778,"x_min":0,"x_max":0,"o":"m 567 356 l 567 267 b 656 178 567 218 607 178 b 744 267 704 178 744 218 l 744 444 b 656 533 744 493 704 533 l 122 533 b 33 444 74 533 33 493 b 122 356 33 396 74 356 z "},"­":{"ha":511,"x_min":0,"x_max":0,"o":"m 389 356 b 478 444 438 356 478 396 b 389 533 478 493 438 533 l 122 533 b 33 444 74 533 33 493 b 122 356 33 396 74 356 z "},"®":{"ha":778,"x_min":0,"x_max":0,"o":"m 33 533 b 389 178 33 338 193 178 b 744 533 585 178 744 338 b 389 889 744 729 585 889 b 33 533 193 889 33 729 z m 167 533 b 389 756 167 656 267 756 b 611 533 511 756 611 656 b 389 311 611 411 511 311 b 167 533 267 311 167 411 z m 411 533 l 411 444 b 344 378 411 408 381 378 b 278 444 308 378 278 408 l 278 533 b 411 667 278 607 338 667 l 478 667 b 544 600 514 667 544 636 b 478 533 544 564 514 533 z "},"¯":{"ha":511,"x_min":0,"x_max":0,"o":"m 100 911 b 33 844 64 911 33 881 b 100 778 33 808 64 778 l 411 778 b 478 844 447 778 478 808 b 411 911 478 881 447 911 z "},"°":{"ha":467,"x_min":0,"x_max":0,"o":"m 33 689 b 233 489 33 579 124 489 b 433 689 343 489 433 579 b 233 889 433 799 343 889 b 33 689 124 889 33 799 z m 167 689 b 233 756 167 725 197 756 b 300 689 269 756 300 725 b 233 622 300 653 269 622 b 167 689 197 622 167 653 z "},"±":{"ha":778,"x_min":0,"x_max":0,"o":"m 478 800 b 389 889 478 849 438 889 b 300 800 340 889 300 849 l 300 644 l 122 644 b 33 556 74 644 33 604 b 122 467 33 507 74 467 l 300 467 l 300 311 b 389 222 300 263 340 222 b 478 311 438 222 478 263 l 478 467 l 656 467 b 744 556 704 467 744 507 b 656 644 744 604 704 644 l 478 644 z m 656 0 b 744 89 704 0 744 40 b 656 178 744 138 704 178 l 122 178 b 33 89 74 178 33 138 b 122 0 33 40 74 0 z "},"²":{"ha":600,"x_min":0,"x_max":0,"o":"m 233 689 b 33 489 124 689 33 599 l 33 422 b 100 356 33 386 64 356 l 500 356 b 567 422 536 356 567 386 b 500 489 567 458 536 489 l 167 489 b 233 556 167 525 197 556 l 400 556 b 567 722 492 556 567 631 b 400 889 567 814 492 889 l 100 889 b 33 822 64 889 33 858 b 100 756 33 786 64 756 l 400 756 b 433 722 418 756 433 740 b 400 689 433 704 418 689 z "},"³":{"ha":600,"x_min":0,"x_max":0,"o":"m 189 689 b 122 622 153 689 122 658 b 189 556 122 586 153 556 l 400 556 b 433 522 418 556 433 540 b 400 489 433 504 418 489 l 100 489 b 33 422 64 489 33 458 b 100 356 33 386 64 356 l 400 356 b 567 522 492 356 567 431 b 533 622 567 560 554 594 b 567 722 554 650 567 685 b 400 889 567 814 492 889 l 100 889 b 33 822 64 889 33 858 b 100 756 33 786 64 756 l 400 756 b 433 722 418 756 433 740 b 400 689 433 704 418 689 z "},"´":{"ha":289,"x_min":0,"x_max":0,"o":"m 236 864 b 256 911 249 876 256 893 b 189 978 256 949 226 978 b 142 958 172 978 154 971 l 53 869 b 33 822 40 857 33 840 b 100 756 33 785 63 756 b 147 775 117 756 135 763 z "},"µ":{"ha":822,"x_min":0,"x_max":0,"o":"m 767 622 b 678 711 767 671 726 711 b 589 622 629 711 589 671 l 589 356 b 411 178 589 257 510 178 b 233 356 313 178 233 257 l 233 622 b 144 711 233 671 193 711 b 56 622 96 711 56 671 l 56 -178 b 144 -267 56 -226 96 -267 b 233 -178 193 -267 233 -226 l 233 47 b 411 0 285 17 346 0 b 596 53 479 0 542 19 b 678 0 610 21 642 0 b 767 89 726 0 767 40 z "},"¶":{"ha":733,"x_min":0,"x_max":0,"o":"m 567 711 l 633 711 b 722 800 682 711 722 751 b 633 889 722 849 682 889 l 344 889 b 33 578 172 889 33 750 b 344 267 33 406 172 267 l 389 267 l 389 0 b 300 -89 389 -49 349 -89 b 211 -178 251 -89 211 -129 b 300 -267 211 -226 251 -267 b 567 0 447 -267 567 -147 z "},"·":{"ha":244,"x_min":0,"x_max":0,"o":"m 22 444 b 122 344 22 389 67 344 b 222 444 178 344 222 389 b 122 544 222 500 178 544 b 22 444 67 544 22 500 z "},"¸":{"ha":422,"x_min":0,"x_max":0,"o":"m 142 -114 b 94 -94 129 -101 113 -94 b 28 -161 57 -94 28 -124 b 47 -208 28 -179 35 -196 b 189 -267 83 -244 133 -267 b 389 -67 299 -267 389 -176 b 189 133 389 43 299 133 b 122 67 153 133 122 103 b 189 0 122 31 153 0 b 256 -67 225 0 256 -31 b 189 -133 256 -103 225 -133 b 142 -114 171 -133 154 -126 z "},"¹":{"ha":444,"x_min":0,"x_max":0,"o":"m 167 489 l 100 489 b 33 422 64 489 33 458 b 100 356 33 386 64 356 l 367 356 b 433 422 403 356 433 386 b 367 489 433 458 403 489 l 300 489 l 300 822 b 233 889 300 858 269 889 b 188 871 217 889 200 883 l 53 736 b 33 689 40 724 33 706 b 100 622 33 653 64 622 b 149 640 118 622 135 628 l 167 658 z "},"º":{"ha":600,"x_min":0,"x_max":0,"o":"m 300 889 b 33 622 153 889 33 769 b 300 356 33 475 153 356 b 567 622 447 356 567 475 b 300 889 567 769 447 889 z m 167 622 b 300 756 167 696 226 756 b 433 622 374 756 433 696 b 300 489 433 549 374 489 b 167 622 226 489 167 549 z "},"»":{"ha":822,"x_min":0,"x_max":0,"o":"m 540 640 b 478 667 524 657 501 667 b 389 578 431 667 389 625 b 414 515 389 554 397 531 l 574 356 l 414 196 b 389 133 399 181 389 156 b 478 44 389 86 431 44 b 540 71 501 44 524 54 l 764 293 b 789 356 779 308 789 333 b 764 418 789 379 781 403 z m 185 640 b 122 667 168 657 146 667 b 33 578 75 667 33 625 b 58 515 33 554 42 531 l 218 356 l 58 196 b 33 133 43 181 33 156 b 122 44 33 86 75 44 b 185 71 146 44 168 54 l 408 293 b 433 356 424 308 433 333 b 408 418 432 378 425 403 z "},"¼":{"ha":1356,"x_min":0,"x_max":0,"o":"m 1081 775 b 1100 822 1093 788 1100 804 b 1033 889 1100 860 1071 889 b 986 869 1015 889 999 882 l 231 114 b 211 67 218 101 211 83 b 278 0 211 29 240 0 b 325 19 296 0 313 7 z m 1011 333 l 1011 467 b 944 533 1011 503 981 533 b 878 467 908 533 878 503 l 878 267 b 944 200 878 231 908 200 l 1189 200 l 1189 67 b 1256 0 1189 31 1219 0 b 1322 67 1292 0 1322 31 l 1322 467 b 1256 533 1322 503 1292 533 b 1189 467 1219 533 1189 503 l 1189 333 z m 167 489 l 100 489 b 33 422 64 489 33 458 b 100 356 33 386 64 356 l 367 356 b 433 422 403 356 433 386 b 367 489 433 458 403 489 l 300 489 l 300 822 b 233 889 300 858 269 889 b 188 871 217 889 200 883 l 53 736 b 33 689 40 724 33 706 b 100 622 33 653 64 622 b 149 640 118 622 135 628 l 167 658 z "},"½":{"ha":1356,"x_min":0,"x_max":0,"o":"m 1156 200 b 1322 367 1247 200 1322 275 b 1156 533 1322 458 1247 533 l 944 533 b 878 467 908 533 878 503 b 944 400 878 431 908 400 l 1156 400 b 1189 367 1174 400 1189 385 b 1156 333 1189 349 1174 333 l 1078 333 b 878 133 968 333 878 243 l 878 67 b 944 0 878 31 908 0 l 1256 0 b 1322 67 1292 0 1322 31 b 1256 133 1322 103 1292 133 l 1011 133 b 1078 200 1011 169 1042 200 z m 1081 775 b 1100 822 1093 788 1100 804 b 1033 889 1100 860 1071 889 b 986 869 1015 889 999 882 l 231 114 b 211 67 218 101 211 83 b 278 0 211 29 240 0 b 325 19 296 0 313 7 z m 167 489 l 100 489 b 33 422 64 489 33 458 b 100 356 33 386 64 356 l 367 356 b 433 422 403 356 433 386 b 367 489 433 458 403 489 l 300 489 l 300 822 b 233 889 300 858 269 889 b 188 871 217 889 200 883 l 53 736 b 33 689 40 724 33 706 b 100 622 33 653 64 622 b 149 640 118 622 135 628 l 167 658 z "},"¾":{"ha":1356,"x_min":0,"x_max":0,"o":"m 344 522 b 311 489 344 504 329 489 l 100 489 b 33 422 64 489 33 458 b 100 356 33 386 64 356 l 311 356 b 478 522 403 356 478 431 b 444 622 478 560 465 594 b 478 722 465 650 478 685 b 311 889 478 814 403 889 l 100 889 b 33 822 64 889 33 858 b 100 756 33 786 64 756 l 311 756 b 344 722 329 756 344 740 b 311 689 344 704 329 689 l 189 689 b 122 622 153 689 122 658 b 189 556 122 586 153 556 l 311 556 b 344 522 329 556 344 540 z m 1081 775 b 1100 822 1093 788 1100 804 b 1033 889 1100 860 1071 889 b 986 869 1015 889 999 882 l 231 114 b 211 67 218 101 211 83 b 278 0 211 29 240 0 b 325 19 296 0 313 7 z m 1011 333 l 1011 467 b 944 533 1011 503 981 533 b 878 467 908 533 878 503 l 878 267 b 944 200 878 231 908 200 l 1189 200 l 1189 67 b 1256 0 1189 31 1219 0 b 1322 67 1292 0 1322 31 l 1322 467 b 1256 533 1322 503 1292 533 b 1189 467 1219 533 1189 503 l 1189 333 z "},"¿":{"ha":767,"x_min":0,"x_max":0,"o":"m 744 267 b 656 356 744 315 704 356 b 567 267 607 356 567 315 b 389 89 567 168 488 89 b 211 267 290 89 211 168 b 389 444 211 365 290 444 b 478 533 438 444 478 485 b 389 622 478 582 438 622 b 33 267 193 622 33 463 b 389 -89 33 71 193 -89 b 744 267 585 -89 744 71 z m 289 789 b 389 689 289 733 333 689 b 489 789 444 689 489 733 b 389 889 489 844 444 889 b 289 789 333 889 289 844 z "},"À":{"ha":911,"x_min":0,"x_max":0,"o":"m 856 489 b 456 889 856 710 676 889 b 56 489 235 889 56 710 l 56 89 b 144 0 56 40 96 0 b 233 89 193 0 233 40 l 233 267 l 678 267 l 678 89 b 767 0 678 40 718 0 b 856 89 815 0 856 40 z m 233 489 b 456 711 233 611 333 711 b 678 489 578 711 678 611 l 678 444 l 233 444 z m 431 953 b 478 933 443 940 461 933 b 544 1000 515 933 544 963 b 525 1047 544 1018 538 1035 l 436 1136 b 389 1156 424 1149 406 1156 b 322 1089 351 1156 322 1126 b 342 1042 322 1071 329 1054 z "},"Á":{"ha":911,"x_min":0,"x_max":0,"o":"m 856 489 b 456 889 856 710 676 889 b 56 489 235 889 56 710 l 56 89 b 144 0 56 40 96 0 b 233 89 193 0 233 40 l 233 267 l 678 267 l 678 89 b 767 0 678 40 718 0 b 856 89 815 0 856 40 z m 233 489 b 456 711 233 611 333 711 b 678 489 578 711 678 611 l 678 444 l 233 444 z m 569 1042 b 589 1089 582 1054 589 1071 b 522 1156 589 1126 560 1156 b 475 1136 506 1156 488 1149 l 386 1047 b 367 1000 374 1035 367 1018 b 433 933 367 963 396 933 b 481 953 450 933 468 940 z "},"Â":{"ha":911,"x_min":0,"x_max":0,"o":"m 856 489 b 456 889 856 710 676 889 b 56 489 235 889 56 710 l 56 89 b 144 0 56 40 96 0 b 233 89 193 0 233 40 l 233 267 l 678 267 l 678 89 b 767 0 678 40 718 0 b 856 89 815 0 856 40 z m 233 489 b 456 711 233 611 333 711 b 678 489 578 711 678 611 l 678 444 l 233 444 z m 456 994 l 497 953 b 544 933 510 940 528 933 b 611 1000 582 933 611 963 b 592 1047 611 1018 604 1035 l 503 1136 b 456 1156 490 1149 472 1156 b 408 1136 439 1156 421 1149 l 319 1047 b 300 1000 307 1035 300 1018 b 367 933 300 963 329 933 b 414 953 383 933 401 940 z "},"Ã":{"ha":911,"x_min":0,"x_max":0,"o":"m 856 489 b 456 889 856 710 676 889 b 56 489 235 889 56 710 l 56 89 b 144 0 56 40 96 0 b 233 89 193 0 233 40 l 233 267 l 678 267 l 678 89 b 767 0 678 40 718 0 b 856 89 815 0 856 40 z m 233 489 b 456 711 233 611 333 711 b 678 489 578 711 678 611 l 678 444 l 233 444 z m 397 978 b 514 933 426 978 465 933 b 658 997 571 933 615 954 b 678 1044 671 1010 678 1026 b 611 1111 678 1082 649 1111 b 564 1092 594 1111 576 1104 b 514 1067 547 1075 538 1067 b 397 1111 485 1067 446 1111 b 253 1047 340 1111 296 1090 b 233 1000 240 1035 233 1018 b 300 933 233 963 263 933 b 347 953 317 933 335 940 b 397 978 364 969 374 978 z "},"Ä":{"ha":911,"x_min":0,"x_max":0,"o":"m 856 489 b 456 889 856 710 676 889 b 56 489 235 889 56 710 l 56 89 b 144 0 56 40 96 0 b 233 89 193 0 233 40 l 233 267 l 678 267 l 678 89 b 767 0 678 40 718 0 b 856 89 815 0 856 40 z m 233 489 b 456 711 233 611 333 711 b 678 489 578 711 678 611 l 678 444 l 233 444 z m 256 1022 b 344 933 256 974 296 933 b 433 1022 393 933 433 974 b 344 1111 433 1071 393 1111 b 256 1022 296 1111 256 1071 z m 478 1022 b 567 933 478 974 518 933 b 656 1022 615 933 656 974 b 567 1111 656 1071 615 1111 b 478 1022 518 1111 478 1071 z "},"Å":{"ha":911,"x_min":0,"x_max":0,"o":"m 261 961 b 293 854 261 922 272 885 b 56 489 153 792 56 651 l 56 89 b 144 0 56 40 96 0 b 233 89 193 0 233 40 l 233 267 l 678 267 l 678 89 b 767 0 678 40 718 0 b 856 89 815 0 856 40 l 856 489 b 618 854 856 651 758 792 b 650 961 638 885 650 922 b 456 1156 650 1068 563 1156 b 261 961 349 1156 261 1068 z m 233 489 b 456 711 233 611 333 711 b 678 489 578 711 678 611 l 678 444 l 233 444 z m 383 961 b 456 1033 383 1001 415 1033 b 528 961 496 1033 528 1001 b 456 889 528 921 496 889 b 383 961 415 889 383 921 z "},"Æ":{"ha":1222,"x_min":0,"x_max":0,"o":"m 456 889 b 56 489 235 889 56 710 l 56 89 b 144 0 56 40 96 0 b 233 89 193 0 233 40 l 233 267 l 567 267 l 567 89 b 656 0 567 40 607 0 l 1122 0 b 1211 89 1171 0 1211 40 b 1122 178 1211 138 1171 178 l 744 178 l 744 356 l 1033 356 b 1122 444 1082 356 1122 396 b 1033 533 1122 493 1082 533 l 744 533 l 744 711 l 1122 711 b 1211 800 1171 711 1211 751 b 1122 889 1211 849 1171 889 z m 233 444 l 233 489 b 456 711 233 611 333 711 l 567 711 l 567 444 z "},"Ç":{"ha":822,"x_min":0,"x_max":0,"o":"m 467 0 b 533 -67 503 0 533 -31 b 467 -133 533 -103 503 -133 b 419 -114 449 -133 432 -126 b 372 -94 407 -101 390 -94 b 306 -161 335 -94 306 -124 b 325 -208 306 -179 313 -196 b 467 -267 361 -244 411 -267 b 667 -67 576 -267 667 -176 b 639 35 667 -29 657 4 b 781 131 690 56 738 88 b 807 193 797 147 807 169 b 718 282 807 240 765 282 b 656 256 694 282 672 272 b 467 178 603 203 535 178 b 200 444 319 178 200 297 b 467 711 200 592 319 711 b 656 633 535 711 603 685 b 718 607 672 615 694 607 b 807 696 765 607 807 647 b 781 758 807 718 797 742 b 467 889 693 844 581 889 b 22 444 221 889 22 690 b 467 0 22 199 221 0 z "},"È":{"ha":778,"x_min":0,"x_max":0,"o":"m 233 356 l 589 356 b 678 444 638 356 678 396 b 589 533 678 493 638 533 l 233 533 l 233 711 l 678 711 b 767 800 726 711 767 751 b 678 889 767 849 726 889 l 144 889 b 56 800 96 889 56 849 l 56 89 b 144 0 56 40 96 0 l 678 0 b 767 89 726 0 767 40 b 678 178 767 138 726 178 l 233 178 z m 408 953 b 456 933 421 940 439 933 b 522 1000 493 933 522 963 b 503 1047 522 1018 515 1035 l 414 1136 b 367 1156 401 1149 383 1156 b 300 1089 329 1156 300 1126 b 319 1042 300 1071 307 1054 z "},"É":{"ha":778,"x_min":0,"x_max":0,"o":"m 233 356 l 589 356 b 678 444 638 356 678 396 b 589 533 678 493 638 533 l 233 533 l 233 711 l 678 711 b 767 800 726 711 767 751 b 678 889 767 849 726 889 l 144 889 b 56 800 96 889 56 849 l 56 89 b 144 0 56 40 96 0 l 678 0 b 767 89 726 0 767 40 b 678 178 767 138 726 178 l 233 178 z m 503 1042 b 522 1089 515 1054 522 1071 b 456 1156 522 1126 493 1156 b 408 1136 439 1156 421 1149 l 319 1047 b 300 1000 307 1035 300 1018 b 367 933 300 963 329 933 b 414 953 383 933 401 940 z "},"Ê":{"ha":778,"x_min":0,"x_max":0,"o":"m 233 356 l 589 356 b 678 444 638 356 678 396 b 589 533 678 493 638 533 l 233 533 l 233 711 l 678 711 b 767 800 726 711 767 751 b 678 889 767 849 726 889 l 144 889 b 56 800 96 889 56 849 l 56 89 b 144 0 56 40 96 0 l 678 0 b 767 89 726 0 767 40 b 678 178 767 138 726 178 l 233 178 z m 411 994 l 453 953 b 500 933 465 940 483 933 b 567 1000 538 933 567 963 b 547 1047 567 1018 560 1035 l 458 1136 b 411 1156 446 1149 428 1156 b 364 1136 394 1156 376 1149 l 275 1047 b 256 1000 263 1035 256 1018 b 322 933 256 963 285 933 b 369 953 339 933 357 940 z "},"Ë":{"ha":778,"x_min":0,"x_max":0,"o":"m 233 356 l 589 356 b 678 444 638 356 678 396 b 589 533 678 493 638 533 l 233 533 l 233 711 l 678 711 b 767 800 726 711 767 751 b 678 889 767 849 726 889 l 144 889 b 56 800 96 889 56 849 l 56 89 b 144 0 56 40 96 0 l 678 0 b 767 89 726 0 767 40 b 678 178 767 138 726 178 l 233 178 z m 211 1022 b 300 933 211 974 251 933 b 389 1022 349 933 389 974 b 300 1111 389 1071 349 1111 b 211 1022 251 1111 211 1071 z m 433 1022 b 522 933 433 974 474 933 b 611 1022 571 933 611 974 b 522 1111 611 1071 571 1111 b 433 1022 474 1111 433 1071 z "},"Ì":{"ha":556,"x_min":0,"x_max":0,"o":"m 189 178 l 100 178 b 11 89 51 178 11 138 b 100 0 11 40 51 0 l 456 0 b 544 89 504 0 544 40 b 456 178 544 138 504 178 l 367 178 l 367 711 l 456 711 b 544 800 504 711 544 751 b 456 889 544 849 504 889 l 100 889 b 11 800 51 889 11 849 b 100 711 11 751 51 711 l 189 711 z m 253 953 b 300 933 265 940 283 933 b 367 1000 338 933 367 963 b 347 1047 367 1018 360 1035 l 258 1136 b 211 1156 246 1149 228 1156 b 144 1089 174 1156 144 1126 b 164 1042 144 1071 151 1054 z "},"Í":{"ha":556,"x_min":0,"x_max":0,"o":"m 189 178 l 100 178 b 11 89 51 178 11 138 b 100 0 11 40 51 0 l 456 0 b 544 89 504 0 544 40 b 456 178 544 138 504 178 l 367 178 l 367 711 l 456 711 b 544 800 504 711 544 751 b 456 889 544 849 504 889 l 100 889 b 11 800 51 889 11 849 b 100 711 11 751 51 711 l 189 711 z m 392 1042 b 411 1089 404 1054 411 1071 b 344 1156 411 1126 382 1156 b 297 1136 328 1156 310 1149 l 208 1047 b 189 1000 196 1035 189 1018 b 256 933 189 963 218 933 b 303 953 272 933 290 940 z "},"Î":{"ha":556,"x_min":0,"x_max":0,"o":"m 189 178 l 100 178 b 11 89 51 178 11 138 b 100 0 11 40 51 0 l 456 0 b 544 89 504 0 544 40 b 456 178 544 138 504 178 l 367 178 l 367 711 l 456 711 b 544 800 504 711 544 751 b 456 889 544 849 504 889 l 100 889 b 11 800 51 889 11 849 b 100 711 11 751 51 711 l 189 711 z m 278 994 l 319 953 b 367 933 332 940 350 933 b 433 1000 404 933 433 963 b 414 1047 433 1018 426 1035 l 325 1136 b 278 1156 313 1149 294 1156 b 231 1136 261 1156 243 1149 l 142 1047 b 122 1000 129 1035 122 1018 b 189 933 122 963 151 933 b 236 953 206 933 224 940 z "},"Ï":{"ha":556,"x_min":0,"x_max":0,"o":"m 189 178 l 100 178 b 11 89 51 178 11 138 b 100 0 11 40 51 0 l 456 0 b 544 89 504 0 544 40 b 456 178 544 138 504 178 l 367 178 l 367 711 l 456 711 b 544 800 504 711 544 751 b 456 889 544 849 504 889 l 100 889 b 11 800 51 889 11 849 b 100 711 11 751 51 711 l 189 711 z m 78 1022 b 167 933 78 974 118 933 b 256 1022 215 933 256 974 b 167 1111 256 1071 215 1111 b 78 1022 118 1111 78 1071 z m 300 1022 b 389 933 300 974 340 933 b 478 1022 438 933 478 974 b 389 1111 478 1071 438 1111 b 300 1022 340 1111 300 1071 z "},"Ð":{"ha":944,"x_min":0,"x_max":0,"o":"m 478 0 b 922 444 724 0 922 199 b 478 889 922 690 724 889 l 211 889 b 122 800 163 889 122 849 l 122 533 l 100 533 b 11 444 51 533 11 493 b 100 356 11 396 51 356 l 122 356 l 122 89 b 211 0 122 40 163 0 z m 367 356 b 456 444 415 356 456 396 b 367 533 456 493 415 533 l 300 533 l 300 711 l 478 711 b 744 444 625 711 744 592 b 478 178 744 297 625 178 l 300 178 l 300 356 z "},"Ñ":{"ha":1000,"x_min":0,"x_max":0,"o":"m 767 303 b 207 863 767 303 207 863 b 144 889 190 879 168 889 b 56 800 96 889 56 849 l 56 89 b 144 0 56 40 96 0 b 233 89 193 0 233 40 l 233 586 b 793 26 233 586 793 26 b 856 0 810 8 833 0 b 944 89 904 0 944 40 l 944 800 b 856 889 944 849 904 889 b 767 800 807 889 767 849 z m 442 978 b 558 933 471 978 510 933 b 703 997 615 933 660 954 b 722 1044 715 1010 722 1026 b 656 1111 722 1082 693 1111 b 608 1092 639 1111 621 1104 b 558 1067 592 1075 582 1067 b 442 1111 529 1067 490 1111 b 297 1047 385 1111 340 1090 b 278 1000 285 1035 278 1018 b 344 933 278 963 307 933 b 392 953 361 933 379 940 b 442 978 408 969 418 978 z "},"Ò":{"ha":933,"x_min":0,"x_max":0,"o":"m 22 444 b 467 0 22 199 221 0 b 911 444 713 0 911 199 b 467 889 911 690 713 889 b 22 444 221 889 22 690 z m 200 444 b 467 711 200 592 319 711 b 733 444 614 711 733 592 b 467 178 733 297 614 178 b 200 444 319 178 200 297 z m 442 953 b 489 933 454 940 472 933 b 556 1000 526 933 556 963 b 536 1047 556 1018 549 1035 l 447 1136 b 400 1156 435 1149 417 1156 b 333 1089 363 1156 333 1126 b 353 1042 333 1071 340 1054 z "},"Ó":{"ha":933,"x_min":0,"x_max":0,"o":"m 22 444 b 467 0 22 199 221 0 b 911 444 713 0 911 199 b 467 889 911 690 713 889 b 22 444 221 889 22 690 z m 200 444 b 467 711 200 592 319 711 b 733 444 614 711 733 592 b 467 178 733 297 614 178 b 200 444 319 178 200 297 z m 581 1042 b 600 1089 593 1054 600 1071 b 533 1156 600 1126 571 1156 b 486 1136 517 1156 499 1149 l 397 1047 b 378 1000 385 1035 378 1018 b 444 933 378 963 407 933 b 492 953 461 933 479 940 z "},"Ô":{"ha":933,"x_min":0,"x_max":0,"o":"m 22 444 b 467 0 22 199 221 0 b 911 444 713 0 911 199 b 467 889 911 690 713 889 b 22 444 221 889 22 690 z m 200 444 b 467 711 200 592 319 711 b 733 444 614 711 733 592 b 467 178 733 297 614 178 b 200 444 319 178 200 297 z m 467 994 l 508 953 b 556 933 521 940 539 933 b 622 1000 593 933 622 963 b 603 1047 622 1018 615 1035 l 514 1136 b 467 1156 501 1149 483 1156 b 419 1136 450 1156 432 1149 l 331 1047 b 311 1000 318 1035 311 1018 b 378 933 311 963 340 933 b 425 953 394 933 413 940 z "},"Õ":{"ha":933,"x_min":0,"x_max":0,"o":"m 22 444 b 467 0 22 199 221 0 b 911 444 713 0 911 199 b 467 889 911 690 713 889 b 22 444 221 889 22 690 z m 200 444 b 467 711 200 592 319 711 b 733 444 614 711 733 592 b 467 178 733 297 614 178 b 200 444 319 178 200 297 z m 408 978 b 525 933 438 978 476 933 b 669 997 582 933 626 954 b 689 1044 682 1010 689 1026 b 622 1111 689 1082 660 1111 b 575 1092 606 1111 588 1104 b 525 1067 558 1075 549 1067 b 408 1111 496 1067 457 1111 b 264 1047 351 1111 307 1090 b 244 1000 251 1035 244 1018 b 311 933 244 963 274 933 b 358 953 328 933 346 940 b 408 978 375 969 385 978 z "},"Ö":{"ha":933,"x_min":0,"x_max":0,"o":"m 22 444 b 467 0 22 199 221 0 b 911 444 713 0 911 199 b 467 889 911 690 713 889 b 22 444 221 889 22 690 z m 200 444 b 467 711 200 592 319 711 b 733 444 614 711 733 592 b 467 178 733 297 614 178 b 200 444 319 178 200 297 z m 267 1022 b 356 933 267 974 307 933 b 444 1022 404 933 444 974 b 356 1111 444 1071 404 1111 b 267 1022 307 1111 267 1071 z m 489 1022 b 578 933 489 974 529 933 b 667 1022 626 933 667 974 b 578 1111 667 1071 626 1111 b 489 1022 529 1111 489 1071 z "},"×":{"ha":778,"x_min":0,"x_max":0,"o":"m 264 444 l 60 240 b 33 178 42 222 33 201 b 122 89 33 129 74 89 b 185 115 144 89 167 97 l 389 319 l 593 115 b 656 89 611 97 632 89 b 744 178 704 89 744 129 b 718 240 744 200 735 222 l 514 444 l 718 649 b 744 711 735 665 744 688 b 656 800 744 758 703 800 b 593 774 632 800 610 790 l 389 569 l 185 774 b 122 800 168 790 146 800 b 33 711 75 800 33 758 b 60 649 33 688 43 665 z "},"Ø":{"ha":956,"x_min":0,"x_max":0,"o":"m 56 133 b 33 78 40 118 33 99 b 111 0 33 35 68 0 b 167 22 132 0 151 7 l 224 79 b 478 0 296 29 383 0 b 922 444 724 0 922 199 b 843 699 922 539 893 626 l 900 756 b 922 811 915 771 922 790 b 844 889 922 854 888 889 b 789 867 824 889 804 882 l 732 810 b 478 889 660 860 572 889 b 33 444 232 889 33 690 b 113 190 33 350 63 263 z m 211 444 b 478 711 211 592 331 711 b 601 679 522 711 565 700 l 240 318 b 211 444 221 356 211 399 z m 744 444 b 478 178 744 297 625 178 b 351 207 432 178 389 188 l 713 568 b 744 444 733 532 744 489 z "},"Ù":{"ha":867,"x_min":0,"x_max":0,"o":"m 833 800 b 744 889 833 849 793 889 b 656 800 696 889 656 849 l 656 400 b 433 178 656 278 556 178 b 211 400 311 178 211 278 l 211 800 b 122 889 211 849 171 889 b 33 800 74 889 33 849 l 33 400 b 433 0 33 179 213 0 b 833 400 654 0 833 179 z m 408 953 b 456 933 421 940 439 933 b 522 1000 493 933 522 963 b 503 1047 522 1018 515 1035 l 414 1136 b 367 1156 401 1149 383 1156 b 300 1089 329 1156 300 1126 b 319 1042 300 1071 307 1054 z "},"Ú":{"ha":867,"x_min":0,"x_max":0,"o":"m 833 800 b 744 889 833 849 793 889 b 656 800 696 889 656 849 l 656 400 b 433 178 656 278 556 178 b 211 400 311 178 211 278 l 211 800 b 122 889 211 849 171 889 b 33 800 74 889 33 849 l 33 400 b 433 0 33 179 213 0 b 833 400 654 0 833 179 z m 547 1042 b 567 1089 560 1054 567 1071 b 500 1156 567 1126 538 1156 b 453 1136 483 1156 465 1149 l 364 1047 b 344 1000 351 1035 344 1018 b 411 933 344 963 374 933 b 458 953 428 933 446 940 z "},"Û":{"ha":867,"x_min":0,"x_max":0,"o":"m 833 800 b 744 889 833 849 793 889 b 656 800 696 889 656 849 l 656 400 b 433 178 656 278 556 178 b 211 400 311 178 211 278 l 211 800 b 122 889 211 849 171 889 b 33 800 74 889 33 849 l 33 400 b 433 0 33 179 213 0 b 833 400 654 0 833 179 z m 433 994 l 475 953 b 522 933 488 940 506 933 b 589 1000 560 933 589 963 b 569 1047 589 1018 582 1035 l 481 1136 b 433 1156 468 1149 450 1156 b 386 1136 417 1156 399 1149 l 297 1047 b 278 1000 285 1035 278 1018 b 344 933 278 963 307 933 b 392 953 361 933 379 940 z "},"Ü":{"ha":867,"x_min":0,"x_max":0,"o":"m 833 800 b 744 889 833 849 793 889 b 656 800 696 889 656 849 l 656 400 b 433 178 656 278 556 178 b 211 400 311 178 211 278 l 211 800 b 122 889 211 849 171 889 b 33 800 74 889 33 849 l 33 400 b 433 0 33 179 213 0 b 833 400 654 0 833 179 z m 233 1022 b 322 933 233 974 274 933 b 411 1022 371 933 411 974 b 322 1111 411 1071 371 1111 b 233 1022 274 1111 233 1071 z m 456 1022 b 544 933 456 974 496 933 b 633 1022 593 933 633 974 b 544 1111 633 1071 593 1111 b 456 1022 496 1111 456 1071 z "},"Ý":{"ha":911,"x_min":0,"x_max":0,"o":"m 456 0 b 544 89 504 0 544 40 l 544 408 l 874 738 b 900 800 890 754 900 776 b 811 889 900 847 858 889 b 749 863 788 889 765 879 l 456 569 l 163 863 b 100 889 146 879 124 889 b 11 800 53 889 11 847 b 38 738 11 776 21 754 l 367 408 l 367 89 b 456 0 367 40 407 0 z m 569 1042 b 589 1089 582 1054 589 1071 b 522 1156 589 1126 560 1156 b 475 1136 506 1156 488 1149 l 386 1047 b 367 1000 374 1035 367 1018 b 433 933 367 963 396 933 b 481 953 450 933 468 940 z "},"Þ":{"ha":767,"x_min":0,"x_max":0,"o":"m 233 311 l 233 578 l 433 578 b 567 444 507 578 567 518 b 433 311 567 371 507 311 z m 433 133 b 744 444 606 133 744 272 b 433 756 744 617 606 756 l 233 756 l 233 800 b 144 889 233 849 193 889 b 56 800 96 889 56 849 l 56 89 b 144 0 56 40 96 0 b 233 89 193 0 233 40 l 233 133 z "},"ß":{"ha":800,"x_min":0,"x_max":0,"o":"m 389 178 b 300 89 340 178 300 138 b 389 0 300 40 340 0 l 567 0 b 789 222 689 0 789 100 b 567 444 789 344 689 444 l 522 444 b 478 489 497 444 478 464 b 522 533 478 514 497 533 b 744 756 644 533 744 633 b 522 978 744 878 644 978 l 411 978 b 56 622 215 978 56 818 l 56 89 b 144 0 56 40 96 0 b 233 89 193 0 233 40 l 233 622 b 411 800 233 721 313 800 l 522 800 b 567 756 547 800 567 781 b 522 711 567 731 547 711 b 300 489 400 711 300 611 b 522 267 300 367 400 267 l 567 267 b 611 222 592 267 611 247 b 567 178 611 197 592 178 z "},"à":{"ha":778,"x_min":0,"x_max":0,"o":"m 22 356 b 378 0 22 160 182 0 b 553 47 442 0 501 17 b 644 -11 569 13 604 -11 b 744 89 700 -11 744 33 b 686 179 744 129 721 164 b 733 356 715 232 733 292 b 378 711 733 551 574 711 b 22 356 182 711 22 551 z m 200 356 b 378 533 200 454 279 533 b 556 356 476 533 556 454 b 378 178 556 257 476 178 b 200 356 279 178 200 257 z m 353 775 b 400 756 365 763 383 756 b 467 822 438 756 467 785 b 447 869 467 840 460 857 l 358 958 b 311 978 346 971 328 978 b 244 911 274 978 244 949 b 264 864 244 893 251 876 z "},"á":{"ha":778,"x_min":0,"x_max":0,"o":"m 22 356 b 378 0 22 160 182 0 b 553 47 442 0 501 17 b 644 -11 569 13 604 -11 b 744 89 700 -11 744 33 b 686 179 744 129 721 164 b 733 356 715 232 733 292 b 378 711 733 551 574 711 b 22 356 182 711 22 551 z m 200 356 b 378 533 200 454 279 533 b 556 356 476 533 556 454 b 378 178 556 257 476 178 b 200 356 279 178 200 257 z m 492 864 b 511 911 504 876 511 893 b 444 978 511 949 482 978 b 397 958 428 978 410 971 l 308 869 b 289 822 296 857 289 840 b 356 756 289 785 318 756 b 403 775 372 756 390 763 z "},"â":{"ha":778,"x_min":0,"x_max":0,"o":"m 22 356 b 378 0 22 160 182 0 b 553 47 442 0 501 17 b 644 -11 569 13 604 -11 b 744 89 700 -11 744 33 b 686 179 744 129 721 164 b 733 356 715 232 733 292 b 378 711 733 551 574 711 b 22 356 182 711 22 551 z m 200 356 b 378 533 200 454 279 533 b 556 356 476 533 556 454 b 378 178 556 257 476 178 b 200 356 279 178 200 257 z m 378 817 l 419 775 b 467 756 432 763 450 756 b 533 822 504 756 533 785 b 514 869 533 840 526 857 l 425 958 b 378 978 413 971 394 978 b 331 958 361 978 343 971 l 242 869 b 222 822 229 857 222 840 b 289 756 222 785 251 756 b 336 775 306 756 324 763 z "},"ã":{"ha":778,"x_min":0,"x_max":0,"o":"m 22 356 b 378 0 22 160 182 0 b 553 47 442 0 501 17 b 644 -11 569 13 604 -11 b 744 89 700 -11 744 33 b 686 179 744 129 721 164 b 733 356 715 232 733 292 b 378 711 733 551 574 711 b 22 356 182 711 22 551 z m 200 356 b 378 533 200 454 279 533 b 556 356 476 533 556 454 b 378 178 556 257 476 178 b 200 356 279 178 200 257 z m 319 800 b 436 756 349 800 388 756 b 581 819 493 756 538 776 b 600 867 593 832 600 849 b 533 933 600 904 571 933 b 486 914 517 933 499 926 b 436 889 469 897 460 889 b 319 933 407 889 368 933 b 175 869 263 933 218 913 b 156 822 163 857 156 840 b 222 756 156 785 185 756 b 269 775 239 756 257 763 b 319 800 286 792 296 800 z "},"ä":{"ha":778,"x_min":0,"x_max":0,"o":"m 22 356 b 378 0 22 160 182 0 b 553 47 442 0 501 17 b 644 -11 569 13 604 -11 b 744 89 700 -11 744 33 b 686 179 744 129 721 164 b 733 356 715 232 733 292 b 378 711 733 551 574 711 b 22 356 182 711 22 551 z m 200 356 b 378 533 200 454 279 533 b 556 356 476 533 556 454 b 378 178 556 257 476 178 b 200 356 279 178 200 257 z m 178 844 b 267 756 178 796 218 756 b 356 844 315 756 356 796 b 267 933 356 893 315 933 b 178 844 218 933 178 893 z m 400 844 b 489 756 400 796 440 756 b 578 844 538 756 578 796 b 489 933 578 893 538 933 b 400 844 440 933 400 893 z "},"å":{"ha":778,"x_min":0,"x_max":0,"o":"m 183 783 b 218 672 183 742 196 704 b 22 356 101 614 22 493 b 378 0 22 160 182 0 b 553 47 442 0 501 17 b 644 -11 569 13 604 -11 b 744 89 700 -11 744 33 b 686 179 744 129 721 164 b 733 356 715 232 733 292 b 538 672 733 493 653 614 b 572 783 560 704 572 742 b 378 978 572 890 485 978 b 183 783 271 978 183 890 z m 200 356 b 378 533 200 454 279 533 b 556 356 476 533 556 454 b 378 178 556 257 476 178 b 200 356 279 178 200 257 z m 306 783 b 378 856 306 824 338 856 b 450 783 418 856 450 824 b 378 711 450 743 418 711 b 306 783 338 711 306 743 z "},"æ":{"ha":1289,"x_min":0,"x_max":0,"o":"m 22 356 b 378 0 22 160 182 0 b 553 47 442 0 501 17 b 644 -11 569 13 604 -11 b 735 47 685 -11 719 13 b 911 0 788 17 847 0 l 1000 0 b 1089 89 1049 0 1089 40 b 1000 178 1089 138 1049 178 l 911 178 b 757 267 844 178 788 213 l 1178 267 b 1267 356 1226 267 1267 307 b 911 711 1267 551 1107 711 b 644 590 804 711 710 664 b 378 711 579 664 483 711 b 22 356 182 711 22 551 z m 200 356 b 378 533 200 454 279 533 b 556 356 476 533 556 454 b 378 178 556 257 476 178 b 200 356 279 178 200 257 z m 911 533 b 1065 444 976 533 1035 497 l 757 444 b 911 533 788 497 844 533 z "},"ç":{"ha":678,"x_min":0,"x_max":0,"o":"m 378 0 b 444 -67 414 0 444 -31 b 378 -133 444 -103 414 -133 b 331 -114 360 -133 343 -126 b 283 -94 318 -101 301 -94 b 217 -161 246 -94 217 -124 b 236 -208 217 -179 224 -196 b 378 -267 272 -244 322 -267 b 578 -67 488 -267 578 -176 b 546 42 578 -26 565 10 b 629 104 575 57 604 79 b 656 167 646 121 656 143 b 567 256 656 214 614 256 b 504 229 543 256 521 246 b 378 178 468 194 424 178 b 200 356 279 178 200 257 b 378 533 200 454 279 533 b 504 482 424 533 468 517 b 567 456 521 464 543 456 b 656 544 614 456 656 496 b 629 607 656 567 646 590 b 378 711 560 676 468 711 b 22 356 182 711 22 551 b 378 0 22 160 182 0 z "},"è":{"ha":756,"x_min":0,"x_max":0,"o":"m 467 0 b 556 89 515 0 556 40 b 467 178 556 138 515 178 l 378 178 b 224 267 311 178 254 213 l 644 267 b 733 356 693 267 733 307 b 378 711 733 551 574 711 b 22 356 182 711 22 551 b 378 0 22 160 182 0 z m 378 533 b 532 444 443 533 501 497 l 224 444 b 378 533 254 497 311 533 z m 353 775 b 400 756 365 763 383 756 b 467 822 438 756 467 785 b 447 869 467 840 460 857 l 358 958 b 311 978 346 971 328 978 b 244 911 274 978 244 949 b 264 864 244 893 251 876 z "},"é":{"ha":756,"x_min":0,"x_max":0,"o":"m 467 0 b 556 89 515 0 556 40 b 467 178 556 138 515 178 l 378 178 b 224 267 311 178 254 213 l 644 267 b 733 356 693 267 733 307 b 378 711 733 551 574 711 b 22 356 182 711 22 551 b 378 0 22 160 182 0 z m 378 533 b 532 444 443 533 501 497 l 224 444 b 378 533 254 497 311 533 z m 492 864 b 511 911 504 876 511 893 b 444 978 511 949 482 978 b 397 958 428 978 410 971 l 308 869 b 289 822 296 857 289 840 b 356 756 289 785 318 756 b 403 775 372 756 390 763 z "},"ê":{"ha":756,"x_min":0,"x_max":0,"o":"m 467 0 b 556 89 515 0 556 40 b 467 178 556 138 515 178 l 378 178 b 224 267 311 178 254 213 l 644 267 b 733 356 693 267 733 307 b 378 711 733 551 574 711 b 22 356 182 711 22 551 b 378 0 22 160 182 0 z m 378 533 b 532 444 443 533 501 497 l 224 444 b 378 533 254 497 311 533 z m 378 817 l 419 775 b 467 756 432 763 450 756 b 533 822 504 756 533 785 b 514 869 533 840 526 857 l 425 958 b 378 978 413 971 394 978 b 331 958 361 978 343 971 l 242 869 b 222 822 229 857 222 840 b 289 756 222 785 251 756 b 336 775 306 756 324 763 z "},"ë":{"ha":756,"x_min":0,"x_max":0,"o":"m 467 0 b 556 89 515 0 556 40 b 467 178 556 138 515 178 l 378 178 b 224 267 311 178 254 213 l 644 267 b 733 356 693 267 733 307 b 378 711 733 551 574 711 b 22 356 182 711 22 551 b 378 0 22 160 182 0 z m 378 533 b 532 444 443 533 501 497 l 224 444 b 378 533 254 497 311 533 z m 178 844 b 267 756 178 796 218 756 b 356 844 315 756 356 796 b 267 933 356 893 315 933 b 178 844 218 933 178 893 z m 400 844 b 489 756 400 796 440 756 b 578 844 538 756 578 796 b 489 933 578 893 538 933 b 400 844 440 933 400 893 z "},"ì":{"ha":289,"x_min":0,"x_max":0,"o":"m 233 622 b 144 711 233 671 193 711 b 56 622 96 711 56 671 l 56 89 b 144 0 56 40 96 0 b 233 89 193 0 233 40 z m 119 775 b 167 756 132 763 150 756 b 233 822 204 756 233 785 b 214 869 233 840 226 857 l 125 958 b 78 978 113 971 94 978 b 11 911 40 978 11 949 b 31 864 11 893 18 876 z "},"í":{"ha":289,"x_min":0,"x_max":0,"o":"m 233 622 b 144 711 233 671 193 711 b 56 622 96 711 56 671 l 56 89 b 144 0 56 40 96 0 b 233 89 193 0 233 40 z m 258 864 b 278 911 271 876 278 893 b 211 978 278 949 249 978 b 164 958 194 978 176 971 l 75 869 b 56 822 63 857 56 840 b 122 756 56 785 85 756 b 169 775 139 756 157 763 z "},"î":{"ha":289,"x_min":0,"x_max":0,"o":"m 233 622 b 144 711 233 671 193 711 b 56 622 96 711 56 671 l 56 89 b 144 0 56 40 96 0 b 233 89 193 0 233 40 z m 144 817 l 186 775 b 233 756 199 763 217 756 b 300 822 271 756 300 785 b 281 869 300 840 293 857 l 192 958 b 144 978 179 971 161 978 b 97 958 128 978 110 971 l 8 869 b -11 822 -4 857 -11 840 b 56 756 -11 785 18 756 b 103 775 72 756 90 763 z "},"ï":{"ha":289,"x_min":0,"x_max":0,"o":"m 233 622 b 144 711 233 671 193 711 b 56 622 96 711 56 671 l 56 89 b 144 0 56 40 96 0 b 233 89 193 0 233 40 z m -56 844 b 33 756 -56 796 -15 756 b 122 844 82 756 122 796 b 33 933 122 893 82 933 b -56 844 -15 933 -56 893 z m 167 844 b 256 756 167 796 207 756 b 344 844 304 756 344 796 b 256 933 344 893 304 933 b 167 844 207 933 167 893 z "},"ð":{"ha":778,"x_min":0,"x_max":0,"o":"m 456 0 b 744 289 615 0 744 129 l 744 622 b 682 821 744 696 721 764 l 725 864 b 744 911 738 876 744 893 b 678 978 744 949 715 978 b 631 958 661 978 643 971 l 588 915 b 389 978 531 954 463 978 l 344 978 b 256 889 296 978 256 938 b 344 800 256 840 296 800 l 389 800 b 458 786 413 800 436 794 l 408 736 b 389 689 396 724 389 707 b 456 622 389 651 418 622 b 503 642 472 622 490 629 l 553 692 b 567 622 561 669 567 646 l 567 556 b 456 578 532 569 494 578 l 322 578 b 33 289 163 578 33 449 b 322 0 33 129 163 0 z m 322 178 b 211 289 261 178 211 228 b 322 400 211 350 261 400 l 456 400 b 567 289 517 400 567 350 b 456 178 567 228 517 178 z "},"ñ":{"ha":800,"x_min":0,"x_max":0,"o":"m 44 622 b 103 531 44 582 68 547 b 56 356 72 479 56 419 l 56 89 b 144 0 56 40 96 0 b 233 89 193 0 233 40 l 233 356 b 411 533 233 454 313 533 b 589 356 510 533 589 454 l 589 89 b 678 0 589 40 629 0 b 767 89 726 0 767 40 l 767 356 b 411 711 767 551 607 711 b 235 664 347 711 288 693 b 144 722 219 699 185 722 b 44 622 89 722 44 678 z m 353 800 b 469 756 382 800 421 756 b 614 819 526 756 571 776 b 633 867 626 832 633 849 b 567 933 633 904 604 933 b 519 914 550 933 532 926 b 469 889 503 897 493 889 b 353 933 440 889 401 933 b 208 869 296 933 251 913 b 189 822 196 857 189 840 b 256 756 189 785 218 756 b 303 775 272 756 290 763 b 353 800 319 792 329 800 z "},"ò":{"ha":756,"x_min":0,"x_max":0,"o":"m 22 356 b 378 0 22 160 182 0 b 733 356 574 0 733 160 b 378 711 733 551 574 711 b 22 356 182 711 22 551 z m 200 356 b 378 533 200 454 279 533 b 556 356 476 533 556 454 b 378 178 556 257 476 178 b 200 356 279 178 200 257 z m 353 775 b 400 756 365 763 383 756 b 467 822 438 756 467 785 b 447 869 467 840 460 857 l 358 958 b 311 978 346 971 328 978 b 244 911 274 978 244 949 b 264 864 244 893 251 876 z "},"ó":{"ha":756,"x_min":0,"x_max":0,"o":"m 22 356 b 378 0 22 160 182 0 b 733 356 574 0 733 160 b 378 711 733 551 574 711 b 22 356 182 711 22 551 z m 200 356 b 378 533 200 454 279 533 b 556 356 476 533 556 454 b 378 178 556 257 476 178 b 200 356 279 178 200 257 z m 492 864 b 511 911 504 876 511 893 b 444 978 511 949 482 978 b 397 958 428 978 410 971 l 308 869 b 289 822 296 857 289 840 b 356 756 289 785 318 756 b 403 775 372 756 390 763 z "},"ô":{"ha":756,"x_min":0,"x_max":0,"o":"m 22 356 b 378 0 22 160 182 0 b 733 356 574 0 733 160 b 378 711 733 551 574 711 b 22 356 182 711 22 551 z m 200 356 b 378 533 200 454 279 533 b 556 356 476 533 556 454 b 378 178 556 257 476 178 b 200 356 279 178 200 257 z m 378 817 l 419 775 b 467 756 432 763 450 756 b 533 822 504 756 533 785 b 514 869 533 840 526 857 l 425 958 b 378 978 413 971 394 978 b 331 958 361 978 343 971 l 242 869 b 222 822 229 857 222 840 b 289 756 222 785 251 756 b 336 775 306 756 324 763 z "},"õ":{"ha":756,"x_min":0,"x_max":0,"o":"m 22 356 b 378 0 22 160 182 0 b 733 356 574 0 733 160 b 378 711 733 551 574 711 b 22 356 182 711 22 551 z m 200 356 b 378 533 200 454 279 533 b 556 356 476 533 556 454 b 378 178 556 257 476 178 b 200 356 279 178 200 257 z m 319 800 b 436 756 349 800 388 756 b 581 819 493 756 538 776 b 600 867 593 832 600 849 b 533 933 600 904 571 933 b 486 914 517 933 499 926 b 436 889 469 897 460 889 b 319 933 407 889 368 933 b 175 869 263 933 218 913 b 156 822 163 857 156 840 b 222 756 156 785 185 756 b 269 775 239 756 257 763 b 319 800 286 792 296 800 z "},"ö":{"ha":756,"x_min":0,"x_max":0,"o":"m 22 356 b 378 0 22 160 182 0 b 733 356 574 0 733 160 b 378 711 733 551 574 711 b 22 356 182 711 22 551 z m 200 356 b 378 533 200 454 279 533 b 556 356 476 533 556 454 b 378 178 556 257 476 178 b 200 356 279 178 200 257 z m 178 844 b 267 756 178 796 218 756 b 356 844 315 756 356 796 b 267 933 356 893 315 933 b 178 844 218 933 178 893 z m 400 844 b 489 756 400 796 440 756 b 578 844 538 756 578 796 b 489 933 578 893 538 933 b 400 844 440 933 400 893 z "},"÷":{"ha":778,"x_min":0,"x_max":0,"o":"m 656 356 b 744 444 704 356 744 396 b 656 533 744 493 704 533 l 122 533 b 33 444 74 533 33 493 b 122 356 33 396 74 356 z m 289 167 b 389 67 289 111 333 67 b 489 167 444 67 489 111 b 389 267 489 222 444 267 b 289 167 333 267 289 222 z m 289 722 b 389 622 289 667 333 622 b 489 722 444 622 489 667 b 389 822 489 778 444 822 b 289 722 333 822 289 778 z "},"ø":{"ha":778,"x_min":0,"x_max":0,"o":"m 725 597 b 744 644 738 610 744 626 b 678 711 744 682 715 711 b 631 692 660 711 643 704 l 588 649 b 389 711 531 688 463 711 b 33 356 193 711 33 551 b 94 156 33 282 56 213 l 53 114 b 33 67 40 101 33 83 b 100 0 33 29 63 0 b 147 19 118 0 135 7 l 189 61 b 389 0 246 22 315 0 b 744 356 585 0 744 160 b 682 554 744 429 721 497 z m 567 356 b 389 178 567 257 488 178 b 319 192 364 178 340 182 l 553 425 b 567 356 561 403 567 379 z m 211 356 b 389 533 211 454 290 533 b 458 519 413 533 436 528 l 225 286 b 211 356 215 307 211 331 z "},"ù":{"ha":800,"x_min":0,"x_max":0,"o":"m 744 622 b 656 711 744 671 704 711 b 567 622 607 711 567 671 l 567 356 b 389 178 567 257 488 178 b 211 356 290 178 211 257 l 211 622 b 122 711 211 671 171 711 b 33 622 74 711 33 671 l 33 356 b 389 0 33 160 193 0 b 564 47 453 0 513 17 b 656 -11 581 13 615 -11 b 756 89 711 -11 756 33 b 697 179 756 129 732 164 b 744 356 726 232 744 292 z m 364 775 b 411 756 376 763 394 756 b 478 822 449 756 478 785 b 458 869 478 840 471 857 l 369 958 b 322 978 357 971 339 978 b 256 911 285 978 256 949 b 275 864 256 893 263 876 z "},"ú":{"ha":800,"x_min":0,"x_max":0,"o":"m 744 622 b 656 711 744 671 704 711 b 567 622 607 711 567 671 l 567 356 b 389 178 567 257 488 178 b 211 356 290 178 211 257 l 211 622 b 122 711 211 671 171 711 b 33 622 74 711 33 671 l 33 356 b 389 0 33 160 193 0 b 564 47 453 0 513 17 b 656 -11 581 13 615 -11 b 756 89 711 -11 756 33 b 697 179 756 129 732 164 b 744 356 726 232 744 292 z m 503 864 b 522 911 515 876 522 893 b 456 978 522 949 493 978 b 408 958 439 978 421 971 l 319 869 b 300 822 307 857 300 840 b 367 756 300 785 329 756 b 414 775 383 756 401 763 z "},"û":{"ha":800,"x_min":0,"x_max":0,"o":"m 744 622 b 656 711 744 671 704 711 b 567 622 607 711 567 671 l 567 356 b 389 178 567 257 488 178 b 211 356 290 178 211 257 l 211 622 b 122 711 211 671 171 711 b 33 622 74 711 33 671 l 33 356 b 389 0 33 160 193 0 b 564 47 453 0 513 17 b 656 -11 581 13 615 -11 b 756 89 711 -11 756 33 b 697 179 756 129 732 164 b 744 356 726 232 744 292 z m 389 817 l 431 775 b 478 756 443 763 461 756 b 544 822 515 756 544 785 b 525 869 544 840 538 857 l 436 958 b 389 978 424 971 406 978 b 342 958 372 978 354 971 l 253 869 b 233 822 240 857 233 840 b 300 756 233 785 263 756 b 347 775 317 756 335 763 z "},"ü":{"ha":800,"x_min":0,"x_max":0,"o":"m 744 622 b 656 711 744 671 704 711 b 567 622 607 711 567 671 l 567 356 b 389 178 567 257 488 178 b 211 356 290 178 211 257 l 211 622 b 122 711 211 671 171 711 b 33 622 74 711 33 671 l 33 356 b 389 0 33 160 193 0 b 564 47 453 0 513 17 b 656 -11 581 13 615 -11 b 756 89 711 -11 756 33 b 697 179 756 129 732 164 b 744 356 726 232 744 292 z m 189 844 b 278 756 189 796 229 756 b 367 844 326 756 367 796 b 278 933 367 893 326 933 b 189 844 229 933 189 893 z m 411 844 b 500 756 411 796 451 756 b 589 844 549 756 589 796 b 500 933 589 893 549 933 b 411 844 451 933 411 893 z "},"ý":{"ha":800,"x_min":0,"x_max":0,"o":"m 389 -89 b 263 -37 343 -89 299 -72 b 200 -11 246 -21 224 -11 b 111 -100 153 -11 111 -53 b 138 -162 111 -124 121 -146 b 389 -267 207 -232 299 -267 b 744 89 585 -267 744 -107 l 744 622 b 656 711 744 671 704 711 b 567 622 607 711 567 671 l 567 356 b 389 178 567 257 488 178 b 211 356 290 178 211 257 l 211 622 b 122 711 211 671 171 711 b 33 622 74 711 33 671 l 33 356 b 389 0 33 160 193 0 b 561 44 451 0 510 17 b 389 -89 542 -32 472 -89 z m 503 864 b 522 911 515 876 522 893 b 456 978 522 949 493 978 b 408 958 439 978 421 971 l 319 869 b 300 822 307 857 300 840 b 367 756 300 785 329 756 b 414 775 383 756 401 763 z "},"þ":{"ha":789,"x_min":0,"x_max":0,"o":"m 233 356 b 411 533 233 454 313 533 b 589 356 510 533 589 454 b 411 178 589 257 510 178 b 233 356 313 178 233 257 z m 56 -178 b 144 -267 56 -226 96 -267 b 233 -178 193 -267 233 -226 l 233 47 b 411 0 285 17 346 0 b 767 356 607 0 767 160 b 411 711 767 551 607 711 b 233 663 346 711 285 693 l 233 889 b 144 978 233 938 193 978 b 56 889 96 978 56 938 z "},"ÿ":{"ha":800,"x_min":0,"x_max":0,"o":"m 389 -89 b 263 -37 343 -89 299 -72 b 200 -11 246 -21 224 -11 b 111 -100 153 -11 111 -53 b 138 -162 111 -124 121 -146 b 389 -267 207 -232 299 -267 b 744 89 585 -267 744 -107 l 744 622 b 656 711 744 671 704 711 b 567 622 607 711 567 671 l 567 356 b 389 178 567 257 488 178 b 211 356 290 178 211 257 l 211 622 b 122 711 211 671 171 711 b 33 622 74 711 33 671 l 33 356 b 389 0 33 160 193 0 b 561 44 451 0 510 17 b 389 -89 542 -32 472 -89 z m 189 844 b 278 756 189 796 229 756 b 367 844 326 756 367 796 b 278 933 367 893 326 933 b 189 844 229 933 189 893 z m 411 844 b 500 756 411 796 451 756 b 589 844 549 756 589 796 b 500 933 589 893 549 933 b 411 844 451 933 411 893 z "},"Ā":{"ha":911,"x_min":0,"x_max":0,"o":"m 856 489 b 456 889 856 710 676 889 b 56 489 235 889 56 710 l 56 89 b 144 0 56 40 96 0 b 233 89 193 0 233 40 l 233 267 l 678 267 l 678 89 b 767 0 678 40 718 0 b 856 89 815 0 856 40 z m 233 489 b 456 711 233 611 333 711 b 678 489 578 711 678 611 l 678 444 l 233 444 z m 300 1089 b 233 1022 264 1089 233 1058 b 300 956 233 986 264 956 l 611 956 b 678 1022 647 956 678 986 b 611 1089 678 1058 647 1089 z "},"ā":{"ha":778,"x_min":0,"x_max":0,"o":"m 22 356 b 378 0 22 160 182 0 b 553 47 442 0 501 17 b 644 -11 569 13 604 -11 b 744 89 700 -11 744 33 b 686 179 744 129 721 164 b 733 356 715 232 733 292 b 378 711 733 551 574 711 b 22 356 182 711 22 551 z m 200 356 b 378 533 200 454 279 533 b 556 356 476 533 556 454 b 378 178 556 257 476 178 b 200 356 279 178 200 257 z m 222 911 b 156 844 186 911 156 881 b 222 778 156 808 186 778 l 533 778 b 600 844 569 778 600 808 b 533 911 600 881 569 911 z "},"Ă":{"ha":911,"x_min":0,"x_max":0,"o":"m 856 489 b 456 889 856 710 676 889 b 56 489 235 889 56 710 l 56 89 b 144 0 56 40 96 0 b 233 89 193 0 233 40 l 233 267 l 678 267 l 678 89 b 767 0 678 40 718 0 b 856 89 815 0 856 40 z m 233 489 b 456 711 233 611 333 711 b 678 489 578 711 678 611 l 678 444 l 233 444 z m 433 1067 b 411 1089 421 1067 411 1076 b 344 1156 411 1125 381 1156 b 278 1089 308 1156 278 1125 b 433 933 278 1003 347 933 l 478 933 b 633 1089 564 933 633 1003 b 567 1156 633 1125 603 1156 b 500 1089 531 1156 500 1125 b 478 1067 500 1076 490 1067 z "},"ă":{"ha":778,"x_min":0,"x_max":0,"o":"m 22 356 b 378 0 22 160 182 0 b 553 47 442 0 501 17 b 644 -11 569 13 604 -11 b 744 89 700 -11 744 33 b 686 179 744 129 721 164 b 733 356 715 232 733 292 b 378 711 733 551 574 711 b 22 356 182 711 22 551 z m 200 356 b 378 533 200 454 279 533 b 556 356 476 533 556 454 b 378 178 556 257 476 178 b 200 356 279 178 200 257 z m 356 889 b 333 911 343 889 333 899 b 267 978 333 947 303 978 b 200 911 231 978 200 947 b 356 756 200 825 269 756 l 400 756 b 556 911 486 756 556 825 b 489 978 556 947 525 978 b 422 911 453 978 422 947 b 400 889 422 899 413 889 z "},"Ą":{"ha":911,"x_min":0,"x_max":0,"o":"m 567 -67 b 767 -267 567 -176 657 -267 b 908 -208 822 -267 872 -244 b 928 -161 921 -196 928 -179 b 861 -94 928 -124 899 -94 b 814 -114 843 -94 826 -101 b 767 -133 801 -126 785 -133 b 700 -67 731 -133 700 -103 b 767 0 700 -31 731 0 b 856 89 815 0 856 40 l 856 489 b 456 889 856 710 676 889 b 56 489 235 889 56 710 l 56 89 b 144 0 56 40 96 0 b 233 89 193 0 233 40 l 233 267 l 678 267 l 678 113 b 567 -67 611 79 567 11 z m 233 489 b 456 711 233 611 333 711 b 678 489 578 711 678 611 l 678 444 l 233 444 z "},"ą":{"ha":778,"x_min":0,"x_max":0,"o":"m 22 356 b 378 0 22 160 182 0 b 460 10 406 0 433 3 b 444 -67 450 -14 444 -39 b 644 -267 444 -176 535 -267 b 786 -208 700 -267 750 -244 b 806 -161 799 -196 806 -179 b 739 -94 806 -124 776 -94 b 692 -114 721 -94 704 -101 b 644 -133 679 -126 663 -133 b 578 -67 608 -133 578 -103 b 644 0 578 -31 608 0 b 744 100 700 0 744 44 b 692 188 744 138 722 171 b 733 356 718 238 733 294 b 378 711 733 551 574 711 b 22 356 182 711 22 551 z m 200 356 b 378 533 200 454 279 533 b 556 356 476 533 556 454 b 378 178 556 257 476 178 b 200 356 279 178 200 257 z "},"Ć":{"ha":822,"x_min":0,"x_max":0,"o":"m 781 131 b 807 193 797 147 807 169 b 718 282 807 240 765 282 b 656 256 694 282 672 272 b 467 178 603 203 535 178 b 200 444 319 178 200 297 b 467 711 200 592 319 711 b 656 633 535 711 604 686 b 718 607 672 615 694 607 b 807 696 765 607 807 647 b 781 758 807 718 797 742 b 467 889 693 844 581 889 b 22 444 221 889 22 690 b 467 0 22 199 221 0 b 781 131 581 0 693 43 z m 581 1042 b 600 1089 593 1054 600 1071 b 533 1156 600 1126 571 1156 b 486 1136 517 1156 499 1149 l 397 1047 b 378 1000 385 1035 378 1018 b 444 933 378 963 407 933 b 492 953 461 933 479 940 z "},"ć":{"ha":678,"x_min":0,"x_max":0,"o":"m 629 104 b 656 167 646 121 656 143 b 567 256 656 214 614 256 b 504 229 543 256 521 246 b 378 178 468 194 424 178 b 200 356 279 178 200 257 b 378 533 200 454 279 533 b 504 482 424 533 469 518 b 567 456 521 464 543 456 b 656 544 614 456 656 496 b 629 607 656 567 646 590 b 378 711 560 676 468 711 b 22 356 182 711 22 551 b 378 0 22 160 182 0 b 629 104 468 0 560 35 z m 492 864 b 511 911 504 876 511 893 b 444 978 511 949 482 978 b 397 958 428 978 410 971 l 308 869 b 289 822 296 857 289 840 b 356 756 289 785 318 756 b 403 775 372 756 390 763 z "},"Ĉ":{"ha":822,"x_min":0,"x_max":0,"o":"m 781 131 b 807 193 797 147 807 169 b 718 282 807 240 765 282 b 656 256 694 282 672 272 b 467 178 603 203 535 178 b 200 444 319 178 200 297 b 467 711 200 592 319 711 b 656 633 535 711 604 686 b 718 607 672 615 694 607 b 807 696 765 607 807 647 b 781 758 807 718 797 742 b 467 889 693 844 581 889 b 22 444 221 889 22 690 b 467 0 22 199 221 0 b 781 131 581 0 693 43 z m 467 994 l 508 953 b 556 933 521 940 539 933 b 622 1000 593 933 622 963 b 603 1047 622 1018 615 1035 l 514 1136 b 467 1156 501 1149 483 1156 b 419 1136 450 1156 432 1149 l 331 1047 b 311 1000 318 1035 311 1018 b 378 933 311 963 340 933 b 425 953 394 933 413 940 z "},"ĉ":{"ha":678,"x_min":0,"x_max":0,"o":"m 629 104 b 656 167 646 121 656 143 b 567 256 656 214 614 256 b 504 229 543 256 521 246 b 378 178 468 194 424 178 b 200 356 279 178 200 257 b 378 533 200 454 279 533 b 504 482 424 533 469 518 b 567 456 521 464 543 456 b 656 544 614 456 656 496 b 629 607 656 567 646 590 b 378 711 560 676 468 711 b 22 356 182 711 22 551 b 378 0 22 160 182 0 b 629 104 468 0 560 35 z m 378 817 l 419 775 b 467 756 432 763 450 756 b 533 822 504 756 533 785 b 514 869 533 840 526 857 l 425 958 b 378 978 413 971 394 978 b 331 958 361 978 343 971 l 242 869 b 222 822 229 857 222 840 b 289 756 222 785 251 756 b 336 775 306 756 324 763 z "},"Ċ":{"ha":822,"x_min":0,"x_max":0,"o":"m 781 131 b 807 193 797 147 807 169 b 718 282 807 240 765 282 b 656 256 694 282 672 272 b 467 178 603 203 535 178 b 200 444 319 178 200 297 b 467 711 200 592 319 711 b 656 633 535 711 604 686 b 718 607 672 615 694 607 b 807 696 765 607 807 647 b 781 758 807 718 797 742 b 467 889 693 844 581 889 b 22 444 221 889 22 690 b 467 0 22 199 221 0 b 781 131 581 0 693 43 z m 378 1022 b 467 933 378 974 418 933 b 556 1022 515 933 556 974 b 467 1111 556 1071 515 1111 b 378 1022 418 1111 378 1071 z "},"ċ":{"ha":678,"x_min":0,"x_max":0,"o":"m 629 104 b 656 167 646 121 656 143 b 567 256 656 214 614 256 b 504 229 543 256 521 246 b 378 178 468 194 424 178 b 200 356 279 178 200 257 b 378 533 200 454 279 533 b 504 482 424 533 469 518 b 567 456 521 464 543 456 b 656 544 614 456 656 496 b 629 607 656 567 646 590 b 378 711 560 676 468 711 b 22 356 182 711 22 551 b 378 0 22 160 182 0 b 629 104 468 0 560 35 z m 289 844 b 378 756 289 796 329 756 b 467 844 426 756 467 796 b 378 933 467 893 426 933 b 289 844 329 933 289 893 z "},"Č":{"ha":822,"x_min":0,"x_max":0,"o":"m 781 131 b 807 193 797 147 807 169 b 718 282 807 240 765 282 b 656 256 694 282 672 272 b 467 178 603 203 535 178 b 200 444 319 178 200 297 b 467 711 200 592 319 711 b 656 633 535 711 604 686 b 718 607 672 615 694 607 b 807 696 765 607 807 647 b 781 758 807 718 797 742 b 467 889 693 844 581 889 b 22 444 221 889 22 690 b 467 0 22 199 221 0 b 781 131 581 0 693 43 z m 467 1094 l 425 1136 b 378 1156 413 1149 394 1156 b 311 1089 340 1156 311 1126 b 331 1042 311 1071 318 1054 l 419 953 b 467 933 432 940 450 933 b 514 953 483 933 501 940 l 603 1042 b 622 1089 615 1054 622 1071 b 556 1156 622 1126 593 1156 b 508 1136 539 1156 521 1149 z "},"č":{"ha":678,"x_min":0,"x_max":0,"o":"m 629 104 b 656 167 646 121 656 143 b 567 256 656 214 614 256 b 504 229 543 256 521 246 b 378 178 468 194 424 178 b 200 356 279 178 200 257 b 378 533 200 454 279 533 b 504 482 424 533 469 518 b 567 456 521 464 543 456 b 656 544 614 456 656 496 b 629 607 656 567 646 590 b 378 711 560 676 468 711 b 22 356 182 711 22 551 b 378 0 22 160 182 0 b 629 104 468 0 560 35 z m 378 917 l 336 958 b 289 978 324 971 306 978 b 222 911 251 978 222 949 b 242 864 222 893 229 876 l 331 775 b 378 756 343 763 361 756 b 425 775 394 756 413 763 l 514 864 b 533 911 526 876 533 893 b 467 978 533 949 504 978 b 419 958 450 978 432 971 z "},"Ď":{"ha":878,"x_min":0,"x_max":0,"o":"m 411 0 b 856 444 657 0 856 199 b 411 889 856 690 657 889 l 144 889 b 56 800 96 889 56 849 l 56 89 b 144 0 56 40 96 0 z m 411 711 b 678 444 558 711 678 592 b 411 178 678 297 558 178 l 233 178 l 233 711 z m 411 1094 l 369 1136 b 322 1156 357 1149 339 1156 b 256 1089 285 1156 256 1126 b 275 1042 256 1071 263 1054 l 364 953 b 411 933 376 940 394 933 b 458 953 428 933 446 940 l 547 1042 b 567 1089 560 1054 567 1071 b 500 1156 567 1126 538 1156 b 453 1136 483 1156 465 1149 z "},"ď":{"ha":789,"x_min":0,"x_max":0,"o":"m 733 356 l 733 889 b 644 978 733 938 693 978 b 556 889 596 978 556 938 l 556 663 b 378 711 503 693 442 711 b 22 356 182 711 22 551 b 378 0 22 160 182 0 b 553 47 442 0 501 17 b 644 -11 569 13 604 -11 b 744 89 700 -11 744 33 b 686 179 744 129 721 164 b 733 356 715 232 733 292 z m 556 356 b 378 178 556 257 476 178 b 200 356 279 178 200 257 b 378 533 200 454 279 533 b 556 356 476 533 556 454 z m 778 822 b 844 756 778 786 808 756 b 911 822 881 756 911 786 l 911 911 b 844 978 911 947 881 978 b 778 911 808 978 778 947 z "},"Đ":{"ha":944,"x_min":0,"x_max":0,"o":"m 478 0 b 922 444 724 0 922 199 b 478 889 922 690 724 889 l 211 889 b 122 800 163 889 122 849 l 122 533 l 100 533 b 11 444 51 533 11 493 b 100 356 11 396 51 356 l 122 356 l 122 89 b 211 0 122 40 163 0 z m 367 356 b 456 444 415 356 456 396 b 367 533 456 493 415 533 l 300 533 l 300 711 l 478 711 b 744 444 625 711 744 592 b 478 178 744 297 625 178 l 300 178 l 300 356 z "},"đ":{"ha":789,"x_min":0,"x_max":0,"o":"m 444 889 b 378 822 408 889 378 858 b 444 756 378 786 408 756 l 556 756 l 556 663 b 378 711 503 693 442 711 b 22 356 182 711 22 551 b 378 0 22 160 182 0 b 553 47 442 0 501 17 b 644 -11 569 13 604 -11 b 744 89 700 -11 744 33 b 686 179 744 129 721 164 b 733 356 715 232 733 292 l 733 756 l 756 756 b 822 822 792 756 822 786 b 756 889 822 858 792 889 l 733 889 b 644 978 733 938 693 978 b 556 889 596 978 556 938 z m 556 356 b 378 178 556 257 476 178 b 200 356 279 178 200 257 b 378 533 200 454 279 533 b 556 356 476 533 556 454 z "},"Ē":{"ha":778,"x_min":0,"x_max":0,"o":"m 233 356 l 589 356 b 678 444 638 356 678 396 b 589 533 678 493 638 533 l 233 533 l 233 711 l 678 711 b 767 800 726 711 767 751 b 678 889 767 849 726 889 l 144 889 b 56 800 96 889 56 849 l 56 89 b 144 0 56 40 96 0 l 678 0 b 767 89 726 0 767 40 b 678 178 767 138 726 178 l 233 178 z m 256 1089 b 189 1022 219 1089 189 1058 b 256 956 189 986 219 956 l 567 956 b 633 1022 603 956 633 986 b 567 1089 633 1058 603 1089 z "},"ē":{"ha":756,"x_min":0,"x_max":0,"o":"m 467 0 b 556 89 515 0 556 40 b 467 178 556 138 515 178 l 378 178 b 224 267 311 178 254 213 l 644 267 b 733 356 693 267 733 307 b 378 711 733 551 574 711 b 22 356 182 711 22 551 b 378 0 22 160 182 0 z m 378 533 b 532 444 443 533 501 497 l 224 444 b 378 533 254 497 311 533 z m 222 911 b 156 844 186 911 156 881 b 222 778 156 808 186 778 l 533 778 b 600 844 569 778 600 808 b 533 911 600 881 569 911 z "},"Ĕ":{"ha":778,"x_min":0,"x_max":0,"o":"m 233 356 l 589 356 b 678 444 638 356 678 396 b 589 533 678 493 638 533 l 233 533 l 233 711 l 678 711 b 767 800 726 711 767 751 b 678 889 767 849 726 889 l 144 889 b 56 800 96 889 56 849 l 56 89 b 144 0 56 40 96 0 l 678 0 b 767 89 726 0 767 40 b 678 178 767 138 726 178 l 233 178 z m 389 1067 b 367 1089 376 1067 367 1076 b 300 1156 367 1125 336 1156 b 233 1089 264 1156 233 1125 b 389 933 233 1003 303 933 l 433 933 b 589 1089 519 933 589 1003 b 522 1156 589 1125 558 1156 b 456 1089 486 1156 456 1125 b 433 1067 456 1076 446 1067 z "},"ĕ":{"ha":756,"x_min":0,"x_max":0,"o":"m 467 0 b 556 89 515 0 556 40 b 467 178 556 138 515 178 l 378 178 b 224 267 311 178 254 213 l 644 267 b 733 356 693 267 733 307 b 378 711 733 551 574 711 b 22 356 182 711 22 551 b 378 0 22 160 182 0 z m 378 533 b 532 444 443 533 501 497 l 224 444 b 378 533 254 497 311 533 z m 356 889 b 333 911 343 889 333 899 b 267 978 333 947 303 978 b 200 911 231 978 200 947 b 356 756 200 825 269 756 l 400 756 b 556 911 486 756 556 825 b 489 978 556 947 525 978 b 422 911 453 978 422 947 b 400 889 422 899 413 889 z "},"Ė":{"ha":778,"x_min":0,"x_max":0,"o":"m 233 356 l 589 356 b 678 444 638 356 678 396 b 589 533 678 493 638 533 l 233 533 l 233 711 l 678 711 b 767 800 726 711 767 751 b 678 889 767 849 726 889 l 144 889 b 56 800 96 889 56 849 l 56 89 b 144 0 56 40 96 0 l 678 0 b 767 89 726 0 767 40 b 678 178 767 138 726 178 l 233 178 z m 322 1022 b 411 933 322 974 363 933 b 500 1022 460 933 500 974 b 411 1111 500 1071 460 1111 b 322 1022 363 1111 322 1071 z "},"ė":{"ha":756,"x_min":0,"x_max":0,"o":"m 467 0 b 556 89 515 0 556 40 b 467 178 556 138 515 178 l 378 178 b 224 267 311 178 254 213 l 644 267 b 733 356 693 267 733 307 b 378 711 733 551 574 711 b 22 356 182 711 22 551 b 378 0 22 160 182 0 z m 378 533 b 532 444 443 533 501 497 l 224 444 b 378 533 254 497 311 533 z m 289 844 b 378 756 289 796 329 756 b 467 844 426 756 467 796 b 378 933 467 893 426 933 b 289 844 329 933 289 893 z "},"Ę":{"ha":778,"x_min":0,"x_max":0,"o":"m 678 0 b 767 89 726 0 767 40 b 678 178 767 138 726 178 l 233 178 l 233 356 l 589 356 b 678 444 638 356 678 396 b 589 533 678 493 638 533 l 233 533 l 233 711 l 678 711 b 767 800 726 711 767 751 b 678 889 767 849 726 889 l 144 889 b 56 800 96 889 56 849 l 56 89 b 144 0 56 40 96 0 l 417 0 b 406 -67 410 -21 406 -43 b 606 -267 406 -176 496 -267 b 747 -208 661 -267 711 -244 b 767 -161 760 -196 767 -179 b 700 -94 767 -124 738 -94 b 653 -114 682 -94 665 -101 b 606 -133 640 -126 624 -133 b 539 -67 569 -133 539 -103 b 606 0 539 -31 569 0 z "},"ę":{"ha":756,"x_min":0,"x_max":0,"o":"m 267 -67 b 467 -267 267 -176 357 -267 b 608 -208 522 -267 572 -244 b 628 -161 621 -196 628 -179 b 561 -94 628 -124 599 -94 b 514 -114 543 -94 526 -101 b 467 -133 501 -126 485 -133 b 400 -67 431 -133 400 -103 b 467 0 400 -31 431 0 b 556 89 515 0 556 40 b 467 178 556 138 515 178 l 378 178 b 224 267 311 178 254 213 l 644 267 b 733 356 693 267 733 307 b 378 711 733 551 574 711 b 22 356 182 711 22 551 b 283 13 22 192 133 54 b 267 -67 272 -11 267 -39 z m 378 533 b 532 444 443 533 501 497 l 224 444 b 378 533 254 497 311 533 z "},"Ě":{"ha":778,"x_min":0,"x_max":0,"o":"m 233 356 l 589 356 b 678 444 638 356 678 396 b 589 533 678 493 638 533 l 233 533 l 233 711 l 678 711 b 767 800 726 711 767 751 b 678 889 767 849 726 889 l 144 889 b 56 800 96 889 56 849 l 56 89 b 144 0 56 40 96 0 l 678 0 b 767 89 726 0 767 40 b 678 178 767 138 726 178 l 233 178 z m 411 1094 l 369 1136 b 322 1156 357 1149 339 1156 b 256 1089 285 1156 256 1126 b 275 1042 256 1071 263 1054 l 364 953 b 411 933 376 940 394 933 b 458 953 428 933 446 940 l 547 1042 b 567 1089 560 1054 567 1071 b 500 1156 567 1126 538 1156 b 453 1136 483 1156 465 1149 z "},"ě":{"ha":756,"x_min":0,"x_max":0,"o":"m 467 0 b 556 89 515 0 556 40 b 467 178 556 138 515 178 l 378 178 b 224 267 311 178 254 213 l 644 267 b 733 356 693 267 733 307 b 378 711 733 551 574 711 b 22 356 182 711 22 551 b 378 0 22 160 182 0 z m 378 533 b 532 444 443 533 501 497 l 224 444 b 378 533 254 497 311 533 z m 378 917 l 336 958 b 289 978 324 971 306 978 b 222 911 251 978 222 949 b 242 864 222 893 229 876 l 331 775 b 378 756 343 763 361 756 b 425 775 394 756 413 763 l 514 864 b 533 911 526 876 533 893 b 467 978 533 949 504 978 b 419 958 450 978 432 971 z "},"Ĝ":{"ha":867,"x_min":0,"x_max":0,"o":"m 807 444 b 718 533 807 493 767 533 l 556 533 b 467 444 507 533 467 493 b 556 356 467 396 507 356 l 629 356 l 629 232 b 467 178 581 194 524 178 b 200 444 319 178 200 297 b 467 711 200 592 319 711 b 656 633 535 711 604 686 b 718 607 672 615 694 607 b 807 696 765 607 807 647 b 781 758 807 718 797 742 b 467 889 693 844 581 889 b 22 444 221 889 22 690 b 467 0 22 199 221 0 b 635 33 524 0 581 11 b 718 -11 653 6 683 -11 b 818 89 774 -11 818 33 b 796 151 818 113 810 133 b 807 193 803 164 807 178 z m 467 994 l 508 953 b 556 933 521 940 539 933 b 622 1000 593 933 622 963 b 603 1047 622 1018 615 1035 l 514 1136 b 467 1156 501 1149 483 1156 b 419 1136 450 1156 432 1149 l 331 1047 b 311 1000 318 1035 311 1018 b 378 933 311 963 340 933 b 425 953 394 933 413 940 z "},"ĝ":{"ha":789,"x_min":0,"x_max":0,"o":"m 378 -89 b 251 -37 332 -89 288 -72 b 189 -11 235 -21 213 -11 b 100 -100 142 -11 100 -53 b 126 -162 100 -124 110 -146 b 378 -267 196 -232 288 -267 b 733 89 574 -267 733 -107 l 733 356 b 686 531 733 419 715 479 b 744 622 721 547 744 582 b 644 722 744 678 700 722 b 553 664 604 722 569 699 b 378 711 501 693 442 711 b 22 356 182 711 22 551 b 378 0 22 160 182 0 b 550 44 440 0 499 17 b 378 -89 531 -32 461 -89 z m 200 356 b 378 533 200 454 279 533 b 556 356 476 533 556 454 b 378 178 556 257 476 178 b 200 356 279 178 200 257 z m 378 817 l 419 775 b 467 756 432 763 450 756 b 533 822 504 756 533 785 b 514 869 533 840 526 857 l 425 958 b 378 978 413 971 394 978 b 331 958 361 978 343 971 l 242 869 b 222 822 229 857 222 840 b 289 756 222 785 251 756 b 336 775 306 756 324 763 z "},"Ğ":{"ha":867,"x_min":0,"x_max":0,"o":"m 807 444 b 718 533 807 493 767 533 l 556 533 b 467 444 507 533 467 493 b 556 356 467 396 507 356 l 629 356 l 629 232 b 467 178 581 194 524 178 b 200 444 319 178 200 297 b 467 711 200 592 319 711 b 656 633 535 711 604 686 b 718 607 672 615 694 607 b 807 696 765 607 807 647 b 781 758 807 718 797 742 b 467 889 693 844 581 889 b 22 444 221 889 22 690 b 467 0 22 199 221 0 b 635 33 524 0 581 11 b 718 -11 653 6 683 -11 b 818 89 774 -11 818 33 b 796 151 818 113 810 133 b 807 193 803 164 807 178 z m 444 1067 b 422 1089 432 1067 422 1076 b 356 1156 422 1125 392 1156 b 289 1089 319 1156 289 1125 b 444 933 289 1003 358 933 l 489 933 b 644 1089 575 933 644 1003 b 578 1156 644 1125 614 1156 b 511 1089 542 1156 511 1125 b 489 1067 511 1076 501 1067 z "},"ğ":{"ha":789,"x_min":0,"x_max":0,"o":"m 378 -89 b 251 -37 332 -89 288 -72 b 189 -11 235 -21 213 -11 b 100 -100 142 -11 100 -53 b 126 -162 100 -124 110 -146 b 378 -267 196 -232 288 -267 b 733 89 574 -267 733 -107 l 733 356 b 686 531 733 419 715 479 b 744 622 721 547 744 582 b 644 722 744 678 700 722 b 553 664 604 722 569 699 b 378 711 501 693 442 711 b 22 356 182 711 22 551 b 378 0 22 160 182 0 b 550 44 440 0 499 17 b 378 -89 531 -32 461 -89 z m 200 356 b 378 533 200 454 279 533 b 556 356 476 533 556 454 b 378 178 556 257 476 178 b 200 356 279 178 200 257 z m 356 889 b 333 911 343 889 333 899 b 267 978 333 947 303 978 b 200 911 231 978 200 947 b 356 756 200 825 269 756 l 400 756 b 556 911 486 756 556 825 b 489 978 556 947 525 978 b 422 911 453 978 422 947 b 400 889 422 899 413 889 z "},"Ġ":{"ha":867,"x_min":0,"x_max":0,"o":"m 807 444 b 718 533 807 493 767 533 l 556 533 b 467 444 507 533 467 493 b 556 356 467 396 507 356 l 629 356 l 629 232 b 467 178 581 194 524 178 b 200 444 319 178 200 297 b 467 711 200 592 319 711 b 656 633 535 711 604 686 b 718 607 672 615 694 607 b 807 696 765 607 807 647 b 781 758 807 718 797 742 b 467 889 693 844 581 889 b 22 444 221 889 22 690 b 467 0 22 199 221 0 b 635 33 524 0 581 11 b 718 -11 653 6 683 -11 b 818 89 774 -11 818 33 b 796 151 818 113 810 133 b 807 193 803 164 807 178 z m 378 1022 b 467 933 378 974 418 933 b 556 1022 515 933 556 974 b 467 1111 556 1071 515 1111 b 378 1022 418 1111 378 1071 z "},"ġ":{"ha":789,"x_min":0,"x_max":0,"o":"m 378 -89 b 251 -37 332 -89 288 -72 b 189 -11 235 -21 213 -11 b 100 -100 142 -11 100 -53 b 126 -162 100 -124 110 -146 b 378 -267 196 -232 288 -267 b 733 89 574 -267 733 -107 l 733 356 b 686 531 733 419 715 479 b 744 622 721 547 744 582 b 644 722 744 678 700 722 b 553 664 604 722 569 699 b 378 711 501 693 442 711 b 22 356 182 711 22 551 b 378 0 22 160 182 0 b 550 44 440 0 499 17 b 378 -89 531 -32 461 -89 z m 200 356 b 378 533 200 454 279 533 b 556 356 476 533 556 454 b 378 178 556 257 476 178 b 200 356 279 178 200 257 z m 289 844 b 378 756 289 796 329 756 b 467 844 426 756 467 796 b 378 933 467 893 426 933 b 289 844 329 933 289 893 z "},"Ģ":{"ha":867,"x_min":0,"x_max":0,"o":"m 807 444 b 718 533 807 493 767 533 l 556 533 b 467 444 507 533 467 493 b 556 356 467 396 507 356 l 629 356 l 629 232 b 467 178 581 194 524 178 b 200 444 319 178 200 297 b 467 711 200 592 319 711 b 656 633 535 711 604 686 b 718 607 672 615 694 607 b 807 696 765 607 807 647 b 781 758 807 718 797 742 b 467 889 693 844 581 889 b 22 444 221 889 22 690 b 467 0 22 199 221 0 b 635 33 524 0 581 11 b 718 -11 653 6 683 -11 b 818 89 774 -11 818 33 b 796 151 818 113 810 133 b 807 193 803 164 807 178 z m 400 -200 b 467 -267 400 -236 431 -267 b 533 -200 503 -267 533 -236 l 533 -111 b 467 -44 533 -75 503 -44 b 400 -111 431 -44 400 -75 z "},"ģ":{"ha":789,"x_min":0,"x_max":0,"o":"m 378 -89 b 251 -37 332 -89 288 -72 b 189 -11 235 -21 213 -11 b 100 -100 142 -11 100 -53 b 126 -162 100 -124 110 -146 b 378 -267 196 -232 288 -267 b 733 89 574 -267 733 -107 l 733 356 b 686 531 733 419 715 479 b 744 622 721 547 744 582 b 644 722 744 678 700 722 b 553 664 604 722 569 699 b 378 711 501 693 442 711 b 22 356 182 711 22 551 b 378 0 22 160 182 0 b 550 44 440 0 499 17 b 378 -89 531 -32 461 -89 z m 200 356 b 378 533 200 454 279 533 b 556 356 476 533 556 454 b 378 178 556 257 476 178 b 200 356 279 178 200 257 z m 311 822 b 378 756 311 786 342 756 b 444 822 414 756 444 786 l 444 911 b 378 978 444 947 414 978 b 311 911 342 978 311 947 z "},"Ĥ":{"ha":911,"x_min":0,"x_max":0,"o":"m 233 356 l 678 356 l 678 89 b 767 0 678 40 718 0 b 856 89 815 0 856 40 l 856 800 b 767 889 856 849 815 889 b 678 800 718 889 678 849 l 678 533 l 233 533 l 233 800 b 144 889 233 849 193 889 b 56 800 96 889 56 849 l 56 89 b 144 0 56 40 96 0 b 233 89 193 0 233 40 z m 456 994 l 497 953 b 544 933 510 940 528 933 b 611 1000 582 933 611 963 b 592 1047 611 1018 604 1035 l 503 1136 b 456 1156 490 1149 472 1156 b 408 1136 439 1156 421 1149 l 319 1047 b 300 1000 307 1035 300 1018 b 367 933 300 963 329 933 b 414 953 383 933 401 940 z "},"ĥ":{"ha":800,"x_min":0,"x_max":0,"o":"m 767 356 b 411 711 767 551 607 711 b 233 663 346 711 285 693 l 233 889 b 144 978 233 938 193 978 b 56 889 96 978 56 938 l 56 89 b 144 0 56 40 96 0 b 233 89 193 0 233 40 l 233 356 b 411 533 233 454 313 533 b 589 356 510 533 589 454 l 589 89 b 678 0 589 40 629 0 b 767 89 726 0 767 40 z m 411 994 l 453 953 b 500 933 465 940 483 933 b 567 1000 538 933 567 963 b 547 1047 567 1018 560 1035 l 458 1136 b 411 1156 446 1149 428 1156 b 364 1136 394 1156 376 1149 l 275 1047 b 256 1000 263 1035 256 1018 b 322 933 256 963 285 933 b 369 953 339 933 357 940 z "},"Ħ":{"ha":1044,"x_min":0,"x_max":0,"o":"m 300 356 l 744 356 l 744 89 b 833 0 744 40 785 0 b 922 89 882 0 922 40 l 922 578 l 967 578 b 1033 644 1003 578 1033 608 b 967 711 1033 681 1003 711 l 922 711 l 922 800 b 833 889 922 849 882 889 b 744 800 785 889 744 849 l 744 711 l 300 711 l 300 800 b 211 889 300 849 260 889 b 122 800 163 889 122 849 l 122 711 l 78 711 b 11 644 42 711 11 681 b 78 578 11 608 42 578 l 122 578 l 122 89 b 211 0 122 40 163 0 b 300 89 260 0 300 40 z m 300 533 l 300 578 l 744 578 l 744 533 z "},"ħ":{"ha":800,"x_min":0,"x_max":0,"o":"m 33 889 b -33 822 -3 889 -33 858 b 33 756 -33 786 -3 756 l 56 756 l 56 89 b 144 0 56 40 96 0 b 233 89 193 0 233 40 l 233 356 b 411 533 233 454 313 533 b 589 356 510 533 589 454 l 589 89 b 678 0 589 40 629 0 b 767 89 726 0 767 40 l 767 356 b 411 711 767 551 607 711 b 233 663 346 711 285 693 l 233 756 l 344 756 b 411 822 381 756 411 786 b 344 889 411 858 381 889 l 233 889 b 144 978 233 938 193 978 b 56 889 96 978 56 938 z "},"Ĩ":{"ha":556,"x_min":0,"x_max":0,"o":"m 189 178 l 100 178 b 11 89 51 178 11 138 b 100 0 11 40 51 0 l 456 0 b 544 89 504 0 544 40 b 456 178 544 138 504 178 l 367 178 l 367 711 l 456 711 b 544 800 504 711 544 751 b 456 889 544 849 504 889 l 100 889 b 11 800 51 889 11 849 b 100 711 11 751 51 711 l 189 711 z m 219 978 b 336 933 249 978 288 933 b 481 997 393 933 438 954 b 500 1044 493 1010 500 1026 b 433 1111 500 1082 471 1111 b 386 1092 417 1111 399 1104 b 336 1067 369 1075 360 1067 b 219 1111 307 1067 268 1111 b 75 1047 163 1111 118 1090 b 56 1000 63 1035 56 1018 b 122 933 56 963 85 933 b 169 953 139 933 157 940 b 219 978 186 969 196 978 z "},"ĩ":{"ha":289,"x_min":0,"x_max":0,"o":"m 233 622 b 144 711 233 671 193 711 b 56 622 96 711 56 671 l 56 89 b 144 0 56 40 96 0 b 233 89 193 0 233 40 z m 86 800 b 203 756 115 800 154 756 b 347 819 260 756 304 776 b 367 867 360 832 367 849 b 300 933 367 904 338 933 b 253 914 283 933 265 926 b 203 889 236 897 226 889 b 86 933 174 889 135 933 b -58 869 29 933 -15 913 b -78 822 -71 857 -78 840 b -11 756 -78 785 -49 756 b 36 775 6 756 24 763 b 86 800 53 792 63 800 z "},"Ī":{"ha":556,"x_min":0,"x_max":0,"o":"m 189 178 l 100 178 b 11 89 51 178 11 138 b 100 0 11 40 51 0 l 456 0 b 544 89 504 0 544 40 b 456 178 544 138 504 178 l 367 178 l 367 711 l 456 711 b 544 800 504 711 544 751 b 456 889 544 849 504 889 l 100 889 b 11 800 51 889 11 849 b 100 711 11 751 51 711 l 189 711 z m 122 1089 b 56 1022 86 1089 56 1058 b 122 956 56 986 86 956 l 433 956 b 500 1022 469 956 500 986 b 433 1089 500 1058 469 1089 z "},"ī":{"ha":289,"x_min":0,"x_max":0,"o":"m 233 622 b 144 711 233 671 193 711 b 56 622 96 711 56 671 l 56 89 b 144 0 56 40 96 0 b 233 89 193 0 233 40 z m -11 911 b -78 844 -47 911 -78 881 b -11 778 -78 808 -47 778 l 300 778 b 367 844 336 778 367 808 b 300 911 367 881 336 911 z "},"Ĭ":{"ha":556,"x_min":0,"x_max":0,"o":"m 189 178 l 100 178 b 11 89 51 178 11 138 b 100 0 11 40 51 0 l 456 0 b 544 89 504 0 544 40 b 456 178 544 138 504 178 l 367 178 l 367 711 l 456 711 b 544 800 504 711 544 751 b 456 889 544 849 504 889 l 100 889 b 11 800 51 889 11 849 b 100 711 11 751 51 711 l 189 711 z m 256 1067 b 233 1089 243 1067 233 1076 b 167 1156 233 1125 203 1156 b 100 1089 131 1156 100 1125 b 256 933 100 1003 169 933 l 300 933 b 456 1089 386 933 456 1003 b 389 1156 456 1125 425 1156 b 322 1089 353 1156 322 1125 b 300 1067 322 1076 313 1067 z "},"ĭ":{"ha":289,"x_min":0,"x_max":0,"o":"m 233 622 b 144 711 233 671 193 711 b 56 622 96 711 56 671 l 56 89 b 144 0 56 40 96 0 b 233 89 193 0 233 40 z m 122 889 b 100 911 110 889 100 899 b 33 978 100 947 69 978 b -33 911 -3 978 -33 947 b 122 756 -33 825 36 756 l 167 756 b 322 911 253 756 322 825 b 256 978 322 947 292 978 b 189 911 219 978 189 947 b 167 889 189 899 179 889 z "},"Į":{"ha":556,"x_min":0,"x_max":0,"o":"m 369 -114 b 322 -133 357 -126 340 -133 b 256 -67 286 -133 256 -103 b 322 0 256 -31 286 0 l 456 0 b 544 89 504 0 544 40 b 456 178 544 138 504 178 l 367 178 l 367 711 l 456 711 b 544 800 504 711 544 751 b 456 889 544 849 504 889 l 100 889 b 11 800 51 889 11 849 b 100 711 11 751 51 711 l 189 711 l 189 178 l 100 178 b 11 89 51 178 11 138 b 100 0 11 40 51 0 l 133 0 b 122 -67 126 -21 122 -43 b 322 -267 122 -176 213 -267 b 464 -208 378 -267 428 -244 b 483 -161 476 -196 483 -179 b 417 -94 483 -124 454 -94 b 369 -114 399 -94 382 -101 z "},"į":{"ha":289,"x_min":0,"x_max":0,"o":"m -56 -67 b 144 -267 -56 -176 35 -267 b 286 -208 200 -267 250 -244 b 306 -161 299 -196 306 -179 b 239 -94 306 -124 276 -94 b 192 -114 221 -94 204 -101 b 144 -133 179 -126 163 -133 b 78 -67 108 -133 78 -103 b 144 0 78 -31 108 0 b 233 89 193 0 233 40 l 233 622 b 144 711 233 671 193 711 b 56 622 96 711 56 671 l 56 113 b -56 -67 -10 79 -56 11 z m 44 856 b 144 756 44 800 89 756 b 244 856 200 756 244 800 b 144 956 244 911 200 956 b 44 856 89 956 44 911 z "},"İ":{"ha":556,"x_min":0,"x_max":0,"o":"m 189 178 l 100 178 b 11 89 51 178 11 138 b 100 0 11 40 51 0 l 456 0 b 544 89 504 0 544 40 b 456 178 544 138 504 178 l 367 178 l 367 711 l 456 711 b 544 800 504 711 544 751 b 456 889 544 849 504 889 l 100 889 b 11 800 51 889 11 849 b 100 711 11 751 51 711 l 189 711 z m 189 1022 b 278 933 189 974 229 933 b 367 1022 326 933 367 974 b 278 1111 367 1071 326 1111 b 189 1022 229 1111 189 1071 z "},"ı":{"ha":289,"x_min":0,"x_max":0,"o":"m 233 622 b 144 711 233 671 193 711 b 56 622 96 711 56 671 l 56 89 b 144 0 56 40 96 0 b 233 89 193 0 233 40 z "},"Ĳ":{"ha":1244,"x_min":0,"x_max":0,"o":"m 189 178 l 100 178 b 11 89 51 178 11 138 b 100 0 11 40 51 0 l 456 0 b 544 89 504 0 544 40 b 456 178 544 138 504 178 l 367 178 l 367 711 l 456 711 b 544 800 504 711 544 751 b 456 889 544 849 504 889 l 100 889 b 11 800 51 889 11 849 b 100 711 11 751 51 711 l 189 711 z m 500 356 b 856 0 500 160 660 0 b 1211 356 1051 0 1211 160 l 1211 800 b 1122 889 1211 849 1171 889 b 1033 800 1074 889 1033 849 l 1033 356 b 856 178 1033 257 954 178 b 678 356 757 178 678 257 b 589 444 678 404 638 444 b 500 356 540 444 500 404 z "},"ĳ":{"ha":556,"x_min":0,"x_max":0,"o":"m 233 622 b 144 711 233 671 193 711 b 56 622 96 711 56 671 l 56 89 b 144 0 56 40 96 0 b 233 89 193 0 233 40 z m 44 856 b 144 756 44 800 89 756 b 244 856 200 756 244 800 b 144 956 244 911 200 956 b 44 856 89 956 44 911 z m 233 -89 b 144 -178 185 -89 144 -129 b 233 -267 144 -226 185 -267 b 500 0 381 -267 500 -147 l 500 622 b 411 711 500 671 460 711 b 322 622 363 711 322 671 l 322 0 b 233 -89 322 -49 282 -89 z m 311 856 b 411 756 311 800 356 756 b 511 856 467 756 511 800 b 411 956 511 911 467 956 b 311 856 356 956 311 911 z "},"Ĵ":{"ha":756,"x_min":0,"x_max":0,"o":"m 11 356 b 367 0 11 160 171 0 b 722 356 563 0 722 160 l 722 800 b 633 889 722 849 682 889 b 544 800 585 889 544 849 l 544 356 b 367 178 544 257 465 178 b 189 356 268 178 189 257 b 100 444 189 404 149 444 b 11 356 51 444 11 404 z m 633 994 l 675 953 b 722 933 688 940 706 933 b 789 1000 760 933 789 963 b 769 1047 789 1018 782 1035 l 681 1136 b 633 1156 668 1149 650 1156 b 586 1136 617 1156 599 1149 l 497 1047 b 478 1000 485 1035 478 1018 b 544 933 478 963 507 933 b 592 953 561 933 579 940 z "},"ĵ":{"ha":289,"x_min":0,"x_max":0,"o":"m -33 -89 b -122 -178 -82 -89 -122 -129 b -33 -267 -122 -226 -82 -267 b 233 0 114 -267 233 -147 l 233 622 b 144 711 233 671 193 711 b 56 622 96 711 56 671 l 56 0 b -33 -89 56 -49 15 -89 z m 144 817 l 186 775 b 233 756 199 763 217 756 b 300 822 271 756 300 785 b 281 869 300 840 293 857 l 192 958 b 144 978 179 971 161 978 b 97 958 128 978 110 971 l 8 869 b -11 822 -4 857 -11 840 b 56 756 -11 785 18 756 b 103 775 72 756 90 763 z "},"Ķ":{"ha":967,"x_min":0,"x_max":0,"o":"m 918 738 b 944 800 935 754 944 776 b 856 889 944 849 904 889 b 793 863 832 889 810 879 l 233 303 l 233 800 b 144 889 233 849 193 889 b 56 800 96 889 56 849 l 56 89 b 144 0 56 40 96 0 b 207 26 167 0 190 8 l 500 319 l 793 26 b 856 0 810 8 833 0 b 944 89 904 0 944 40 b 918 151 944 111 936 135 l 625 444 z m 389 -200 b 456 -267 389 -236 419 -267 b 522 -200 492 -267 522 -236 l 522 -111 b 456 -44 522 -75 492 -44 b 389 -111 419 -44 389 -75 z "},"ķ":{"ha":800,"x_min":0,"x_max":0,"o":"m 740 560 b 767 622 757 576 767 599 b 678 711 767 671 726 711 b 615 685 654 711 632 701 l 233 303 l 233 889 b 144 978 233 938 193 978 b 56 889 96 978 56 938 l 56 89 b 144 0 56 40 96 0 b 207 26 167 0 190 8 l 411 231 l 615 26 b 678 0 632 8 656 0 b 767 89 726 0 767 40 b 740 151 767 111 758 135 l 536 356 z m 344 -200 b 411 -267 344 -236 375 -267 b 478 -200 447 -267 478 -236 l 478 -111 b 411 -44 478 -75 447 -44 b 344 -111 375 -44 344 -75 z "},"ĸ":{"ha":800,"x_min":0,"x_max":0,"o":"m 740 560 b 767 622 757 576 767 599 b 678 711 767 671 726 711 b 615 685 654 711 632 701 l 233 303 l 233 622 b 144 711 233 671 193 711 b 56 622 96 711 56 671 l 56 89 b 144 0 56 40 96 0 b 207 26 167 0 190 8 l 411 231 l 615 26 b 678 0 632 8 656 0 b 767 89 726 0 767 40 b 740 151 767 111 758 135 l 536 356 z "},"Ĺ":{"ha":778,"x_min":0,"x_max":0,"o":"m 56 89 b 144 0 56 40 96 0 l 678 0 b 767 89 726 0 767 40 b 678 178 767 138 726 178 l 233 178 l 233 800 b 144 889 233 849 193 889 b 56 800 96 889 56 849 z m 258 1042 b 278 1089 271 1054 278 1071 b 211 1156 278 1126 249 1156 b 164 1136 194 1156 176 1149 l 75 1047 b 56 1000 63 1035 56 1018 b 122 933 56 963 85 933 b 169 953 139 933 157 940 z "},"ĺ":{"ha":289,"x_min":0,"x_max":0,"o":"m 233 800 b 144 889 233 849 193 889 b 56 800 96 889 56 849 l 56 89 b 144 0 56 40 96 0 b 233 89 193 0 233 40 z m 258 1042 b 278 1089 271 1054 278 1071 b 211 1156 278 1126 249 1156 b 164 1136 194 1156 176 1149 l 75 1047 b 56 1000 63 1035 56 1018 b 122 933 56 963 85 933 b 169 953 139 933 157 940 z "},"Ļ":{"ha":778,"x_min":0,"x_max":0,"o":"m 56 89 b 144 0 56 40 96 0 l 678 0 b 767 89 726 0 767 40 b 678 178 767 138 726 178 l 233 178 l 233 800 b 144 889 233 849 193 889 b 56 800 96 889 56 849 z m 322 -200 b 389 -267 322 -236 353 -267 b 456 -200 425 -267 456 -236 l 456 -111 b 389 -44 456 -75 425 -44 b 322 -111 353 -44 322 -75 z "},"ļ":{"ha":289,"x_min":0,"x_max":0,"o":"m 233 889 b 144 978 233 938 193 978 b 56 889 96 978 56 938 l 56 89 b 144 0 56 40 96 0 b 233 89 193 0 233 40 z m 78 -200 b 144 -267 78 -236 108 -267 b 211 -200 181 -267 211 -236 l 211 -111 b 144 -44 211 -75 181 -44 b 78 -111 108 -44 78 -75 z "},"Ľ":{"ha":778,"x_min":0,"x_max":0,"o":"m 56 89 b 144 0 56 40 96 0 l 678 0 b 767 89 726 0 767 40 b 678 178 767 138 726 178 l 233 178 l 233 800 b 144 889 233 849 193 889 b 56 800 96 889 56 849 z m 278 822 b 344 756 278 786 308 756 b 411 822 381 756 411 786 l 411 911 b 344 978 411 947 381 978 b 278 911 308 978 278 947 z "},"ľ":{"ha":289,"x_min":0,"x_max":0,"o":"m 233 889 b 144 978 233 938 193 978 b 56 889 96 978 56 938 l 56 89 b 144 0 56 40 96 0 b 233 89 193 0 233 40 z m 278 822 b 344 756 278 786 308 756 b 411 822 381 756 411 786 l 411 911 b 344 978 411 947 381 978 b 278 911 308 978 278 947 z "},"Ŀ":{"ha":778,"x_min":0,"x_max":0,"o":"m 56 89 b 144 0 56 40 96 0 l 678 0 b 767 89 726 0 767 40 b 678 178 767 138 726 178 l 233 178 l 233 800 b 144 889 233 849 193 889 b 56 800 96 889 56 849 z m 289 444 b 389 344 289 389 333 344 b 489 444 444 344 489 389 b 389 544 489 500 444 544 b 289 444 333 544 289 500 z "},"ŀ":{"ha":467,"x_min":0,"x_max":0,"o":"m 233 889 b 144 978 233 938 193 978 b 56 889 96 978 56 938 l 56 89 b 144 0 56 40 96 0 b 233 89 193 0 233 40 z m 278 444 b 378 344 278 389 322 344 b 478 444 433 344 478 389 b 378 544 478 500 433 544 b 278 444 322 544 278 500 z "},"Ł":{"ha":844,"x_min":0,"x_max":0,"o":"m 122 89 b 211 0 122 40 163 0 l 744 0 b 833 89 793 0 833 40 b 744 178 833 138 793 178 l 300 178 l 300 444 l 389 444 b 456 511 425 444 456 475 b 389 578 456 547 425 578 l 300 578 l 300 800 b 211 889 300 849 260 889 b 122 800 163 889 122 849 l 122 511 l 78 511 b 11 444 42 511 11 481 b 78 378 11 408 42 378 l 122 378 z "},"ł":{"ha":422,"x_min":0,"x_max":0,"o":"m 300 889 b 211 978 300 938 260 978 b 122 889 163 978 122 938 l 122 511 l 78 511 b 11 444 42 511 11 481 b 78 378 11 408 42 378 l 122 378 l 122 89 b 211 0 122 40 163 0 b 300 89 260 0 300 40 l 300 444 l 344 444 b 411 511 381 444 411 475 b 344 578 411 547 381 578 l 300 578 z "},"Ń":{"ha":1000,"x_min":0,"x_max":0,"o":"m 767 303 b 207 863 767 303 207 863 b 144 889 190 879 168 889 b 56 800 96 889 56 849 l 56 89 b 144 0 56 40 96 0 b 233 89 193 0 233 40 l 233 586 b 793 26 233 586 793 26 b 856 0 810 8 833 0 b 944 89 904 0 944 40 l 944 800 b 856 889 944 849 904 889 b 767 800 807 889 767 849 z m 614 1042 b 633 1089 626 1054 633 1071 b 567 1156 633 1126 604 1156 b 519 1136 550 1156 532 1149 l 431 1047 b 411 1000 418 1035 411 1018 b 478 933 411 963 440 933 b 525 953 494 933 513 940 z "},"ń":{"ha":800,"x_min":0,"x_max":0,"o":"m 44 622 b 103 531 44 582 68 547 b 56 356 72 479 56 419 l 56 89 b 144 0 56 40 96 0 b 233 89 193 0 233 40 l 233 356 b 411 533 233 454 313 533 b 589 356 510 533 589 454 l 589 89 b 678 0 589 40 629 0 b 767 89 726 0 767 40 l 767 356 b 411 711 767 551 607 711 b 235 664 347 711 288 693 b 144 722 219 699 185 722 b 44 622 89 722 44 678 z m 525 864 b 544 911 538 876 544 893 b 478 978 544 949 515 978 b 431 958 461 978 443 971 l 342 869 b 322 822 329 857 322 840 b 389 756 322 785 351 756 b 436 775 406 756 424 763 z "},"Ņ":{"ha":1000,"x_min":0,"x_max":0,"o":"m 767 303 b 207 863 767 303 207 863 b 144 889 190 879 168 889 b 56 800 96 889 56 849 l 56 89 b 144 0 56 40 96 0 b 233 89 193 0 233 40 l 233 586 b 793 26 233 586 793 26 b 856 0 810 8 833 0 b 944 89 904 0 944 40 l 944 800 b 856 889 944 849 904 889 b 767 800 807 889 767 849 z m 433 -200 b 500 -267 433 -236 464 -267 b 567 -200 536 -267 567 -236 l 567 -111 b 500 -44 567 -75 536 -44 b 433 -111 464 -44 433 -75 z "},"ņ":{"ha":800,"x_min":0,"x_max":0,"o":"m 44 622 b 103 531 44 582 68 547 b 56 356 72 479 56 419 l 56 89 b 144 0 56 40 96 0 b 233 89 193 0 233 40 l 233 356 b 411 533 233 454 313 533 b 589 356 510 533 589 454 l 589 89 b 678 0 589 40 629 0 b 767 89 726 0 767 40 l 767 356 b 411 711 767 551 607 711 b 235 664 347 711 288 693 b 144 722 219 699 185 722 b 44 622 89 722 44 678 z m 344 -200 b 411 -267 344 -236 375 -267 b 478 -200 447 -267 478 -236 l 478 -111 b 411 -44 478 -75 447 -44 b 344 -111 375 -44 344 -75 z "},"Ň":{"ha":1000,"x_min":0,"x_max":0,"o":"m 767 303 b 207 863 767 303 207 863 b 144 889 190 879 168 889 b 56 800 96 889 56 849 l 56 89 b 144 0 56 40 96 0 b 233 89 193 0 233 40 l 233 586 b 793 26 233 586 793 26 b 856 0 810 8 833 0 b 944 89 904 0 944 40 l 944 800 b 856 889 944 849 904 889 b 767 800 807 889 767 849 z m 500 1094 l 458 1136 b 411 1156 446 1149 428 1156 b 344 1089 374 1156 344 1126 b 364 1042 344 1071 351 1054 l 453 953 b 500 933 465 940 483 933 b 547 953 517 933 535 940 l 636 1042 b 656 1089 649 1054 656 1071 b 589 1156 656 1126 626 1156 b 542 1136 572 1156 554 1149 z "},"ň":{"ha":800,"x_min":0,"x_max":0,"o":"m 44 622 b 103 531 44 582 68 547 b 56 356 72 479 56 419 l 56 89 b 144 0 56 40 96 0 b 233 89 193 0 233 40 l 233 356 b 411 533 233 454 313 533 b 589 356 510 533 589 454 l 589 89 b 678 0 589 40 629 0 b 767 89 726 0 767 40 l 767 356 b 411 711 767 551 607 711 b 235 664 347 711 288 693 b 144 722 219 699 185 722 b 44 622 89 722 44 678 z m 411 917 l 369 958 b 322 978 357 971 339 978 b 256 911 285 978 256 949 b 275 864 256 893 263 876 l 364 775 b 411 756 376 763 394 756 b 458 775 428 756 446 763 l 547 864 b 567 911 560 876 567 893 b 500 978 567 949 538 978 b 453 958 483 978 465 971 z "},"ŉ":{"ha":800,"x_min":0,"x_max":0,"o":"m 44 622 b 103 531 44 582 68 547 b 56 356 72 479 56 419 l 56 89 b 144 0 56 40 96 0 b 233 89 193 0 233 40 l 233 356 b 411 533 233 454 313 533 b 589 356 510 533 589 454 l 589 89 b 678 0 589 40 629 0 b 767 89 726 0 767 40 l 767 356 b 411 711 767 551 607 711 b 235 664 347 711 288 693 b 144 722 219 699 185 722 b 44 622 89 722 44 678 z m 56 822 b 122 756 56 786 86 756 b 189 822 158 756 189 786 l 189 911 b 122 978 189 947 158 978 b 56 911 86 978 56 947 z "},"Ŋ":{"ha":1000,"x_min":0,"x_max":0,"o":"m 767 0 b 678 -89 767 -49 726 -89 b 589 -178 629 -89 589 -129 b 678 -267 589 -226 629 -267 b 944 0 825 -267 944 -147 l 944 800 b 856 889 944 849 904 889 b 767 800 807 889 767 849 l 767 303 l 207 863 b 144 889 190 879 168 889 b 56 800 96 889 56 849 l 56 89 b 144 0 56 40 96 0 b 233 89 193 0 233 40 l 233 586 l 767 53 z "},"ŋ":{"ha":800,"x_min":0,"x_max":0,"o":"m 44 622 b 103 531 44 582 68 547 b 56 356 72 479 56 419 l 56 89 b 144 0 56 40 96 0 b 233 89 193 0 233 40 l 233 356 b 411 533 233 454 313 533 b 589 356 510 533 589 454 l 589 0 b 500 -89 589 -49 549 -89 b 411 -178 451 -89 411 -129 b 500 -267 411 -226 451 -267 b 767 0 647 -267 767 -147 l 767 356 b 411 711 767 551 607 711 b 235 664 347 711 288 693 b 144 722 219 699 185 722 b 44 622 89 722 44 678 z "},"Ō":{"ha":933,"x_min":0,"x_max":0,"o":"m 22 444 b 467 0 22 199 221 0 b 911 444 713 0 911 199 b 467 889 911 690 713 889 b 22 444 221 889 22 690 z m 200 444 b 467 711 200 592 319 711 b 733 444 614 711 733 592 b 467 178 733 297 614 178 b 200 444 319 178 200 297 z m 311 1089 b 244 1022 275 1089 244 1058 b 311 956 244 986 275 956 l 622 956 b 689 1022 658 956 689 986 b 622 1089 689 1058 658 1089 z "},"ō":{"ha":756,"x_min":0,"x_max":0,"o":"m 22 356 b 378 0 22 160 182 0 b 733 356 574 0 733 160 b 378 711 733 551 574 711 b 22 356 182 711 22 551 z m 200 356 b 378 533 200 454 279 533 b 556 356 476 533 556 454 b 378 178 556 257 476 178 b 200 356 279 178 200 257 z m 222 911 b 156 844 186 911 156 881 b 222 778 156 808 186 778 l 533 778 b 600 844 569 778 600 808 b 533 911 600 881 569 911 z "},"Ŏ":{"ha":933,"x_min":0,"x_max":0,"o":"m 22 444 b 467 0 22 199 221 0 b 911 444 713 0 911 199 b 467 889 911 690 713 889 b 22 444 221 889 22 690 z m 200 444 b 467 711 200 592 319 711 b 733 444 614 711 733 592 b 467 178 733 297 614 178 b 200 444 319 178 200 297 z m 444 1067 b 422 1089 432 1067 422 1076 b 356 1156 422 1125 392 1156 b 289 1089 319 1156 289 1125 b 444 933 289 1003 358 933 l 489 933 b 644 1089 575 933 644 1003 b 578 1156 644 1125 614 1156 b 511 1089 542 1156 511 1125 b 489 1067 511 1076 501 1067 z "},"ŏ":{"ha":756,"x_min":0,"x_max":0,"o":"m 22 356 b 378 0 22 160 182 0 b 733 356 574 0 733 160 b 378 711 733 551 574 711 b 22 356 182 711 22 551 z m 200 356 b 378 533 200 454 279 533 b 556 356 476 533 556 454 b 378 178 556 257 476 178 b 200 356 279 178 200 257 z m 356 889 b 333 911 343 889 333 899 b 267 978 333 947 303 978 b 200 911 231 978 200 947 b 356 756 200 825 269 756 l 400 756 b 556 911 486 756 556 825 b 489 978 556 947 525 978 b 422 911 453 978 422 947 b 400 889 422 899 413 889 z "},"Ő":{"ha":933,"x_min":0,"x_max":0,"o":"m 22 444 b 467 0 22 199 221 0 b 911 444 713 0 911 199 b 467 889 911 690 713 889 b 22 444 221 889 22 690 z m 200 444 b 467 711 200 592 319 711 b 733 444 614 711 733 592 b 467 178 733 297 614 178 b 200 444 319 178 200 297 z m 469 1042 b 489 1089 482 1054 489 1071 b 422 1156 489 1126 460 1156 b 375 1136 406 1156 388 1149 l 286 1047 b 267 1000 274 1035 267 1018 b 333 933 267 963 296 933 b 381 953 350 933 368 940 z m 736 1042 b 756 1089 749 1054 756 1071 b 689 1156 756 1126 726 1156 b 642 1136 672 1156 654 1149 l 553 1047 b 533 1000 540 1035 533 1018 b 600 933 533 963 563 933 b 647 953 617 933 635 940 z "},"ő":{"ha":756,"x_min":0,"x_max":0,"o":"m 22 356 b 378 0 22 160 182 0 b 733 356 574 0 733 160 b 378 711 733 551 574 711 b 22 356 182 711 22 551 z m 200 356 b 378 533 200 454 279 533 b 556 356 476 533 556 454 b 378 178 556 257 476 178 b 200 356 279 178 200 257 z m 381 864 b 400 911 393 876 400 893 b 333 978 400 949 371 978 b 286 958 317 978 299 971 l 197 869 b 178 822 185 857 178 840 b 244 756 178 785 207 756 b 292 775 261 756 279 763 z m 647 864 b 667 911 660 876 667 893 b 600 978 667 949 638 978 b 553 958 583 978 565 971 l 464 869 b 444 822 451 857 444 840 b 511 756 444 785 474 756 b 558 775 528 756 546 763 z "},"Œ":{"ha":1189,"x_min":0,"x_max":0,"o":"m 467 889 b 22 444 221 889 22 690 b 467 0 22 199 221 0 l 1089 0 b 1178 89 1138 0 1178 40 b 1089 178 1178 138 1138 178 l 733 178 l 733 356 l 1000 356 b 1089 444 1049 356 1089 396 b 1000 533 1089 493 1049 533 l 733 533 l 733 711 l 1089 711 b 1178 800 1138 711 1178 751 b 1089 889 1178 849 1138 889 z m 467 178 b 200 444 319 178 200 297 b 467 711 200 592 319 711 l 556 711 l 556 178 z "},"œ":{"ha":1289,"x_min":0,"x_max":0,"o":"m 1000 0 b 1089 89 1049 0 1089 40 b 1000 178 1089 138 1049 178 l 911 178 b 757 267 844 178 788 213 l 1178 267 b 1267 356 1226 267 1267 307 b 911 711 1267 551 1107 711 b 644 590 804 711 710 664 b 378 711 579 664 483 711 b 22 356 182 711 22 551 b 378 0 22 160 182 0 b 644 121 483 0 579 46 b 911 0 710 46 804 0 z m 200 356 b 378 533 200 454 279 533 b 556 356 476 533 556 454 b 378 178 556 257 476 178 b 200 356 279 178 200 257 z m 911 533 b 1065 444 976 533 1035 497 l 757 444 b 911 533 788 497 844 533 z "},"Ŕ":{"ha":889,"x_min":0,"x_max":0,"o":"m 233 356 l 375 356 l 704 26 b 767 0 721 8 744 0 b 856 89 815 0 856 40 b 829 151 856 111 847 135 l 622 357 b 856 622 754 374 856 486 b 589 889 856 769 736 889 l 144 889 b 56 800 96 889 56 849 l 56 89 b 144 0 56 40 96 0 b 233 89 193 0 233 40 z m 589 711 b 678 622 638 711 678 671 b 589 533 678 574 638 533 l 233 533 l 233 711 z m 547 1042 b 567 1089 560 1054 567 1071 b 500 1156 567 1126 538 1156 b 453 1136 483 1156 465 1149 l 364 1047 b 344 1000 351 1035 344 1018 b 411 933 344 963 374 933 b 458 953 428 933 446 940 z "},"ŕ":{"ha":511,"x_min":0,"x_max":0,"o":"m 44 622 b 103 531 44 582 68 547 b 56 356 72 479 56 419 l 56 89 b 144 0 56 40 96 0 b 233 89 193 0 233 40 l 233 356 b 411 533 233 454 313 533 b 500 622 460 533 500 574 b 411 711 500 671 460 711 b 235 664 347 711 288 693 b 144 722 219 699 185 722 b 44 622 89 722 44 678 z m 392 864 b 411 911 404 876 411 893 b 344 978 411 949 382 978 b 297 958 328 978 310 971 l 208 869 b 189 822 196 857 189 840 b 256 756 189 785 218 756 b 303 775 272 756 290 763 z "},"Ŗ":{"ha":889,"x_min":0,"x_max":0,"o":"m 233 356 l 375 356 l 704 26 b 767 0 721 8 744 0 b 856 89 815 0 856 40 b 829 151 856 111 847 135 l 622 357 b 856 622 754 374 856 486 b 589 889 856 769 736 889 l 144 889 b 56 800 96 889 56 849 l 56 89 b 144 0 56 40 96 0 b 233 89 193 0 233 40 z m 589 711 b 678 622 638 711 678 671 b 589 533 678 574 638 533 l 233 533 l 233 711 z m 389 -200 b 456 -267 389 -236 419 -267 b 522 -200 492 -267 522 -236 l 522 -111 b 456 -44 522 -75 492 -44 b 389 -111 419 -44 389 -75 z "},"ŗ":{"ha":511,"x_min":0,"x_max":0,"o":"m 44 622 b 103 531 44 582 68 547 b 56 356 72 479 56 419 l 56 89 b 144 0 56 40 96 0 b 233 89 193 0 233 40 l 233 356 b 411 533 233 454 313 533 b 500 622 460 533 500 574 b 411 711 500 671 460 711 b 235 664 347 711 288 693 b 144 722 219 699 185 722 b 44 622 89 722 44 678 z m 78 -200 b 144 -267 78 -236 108 -267 b 211 -200 181 -267 211 -236 l 211 -111 b 144 -44 211 -75 181 -44 b 78 -111 108 -44 78 -75 z "},"Ř":{"ha":889,"x_min":0,"x_max":0,"o":"m 233 356 l 375 356 l 704 26 b 767 0 721 8 744 0 b 856 89 815 0 856 40 b 829 151 856 111 847 135 l 622 357 b 856 622 754 374 856 486 b 589 889 856 769 736 889 l 144 889 b 56 800 96 889 56 849 l 56 89 b 144 0 56 40 96 0 b 233 89 193 0 233 40 z m 589 711 b 678 622 638 711 678 671 b 589 533 678 574 638 533 l 233 533 l 233 711 z m 433 1094 l 392 1136 b 344 1156 379 1149 361 1156 b 278 1089 307 1156 278 1126 b 297 1042 278 1071 285 1054 l 386 953 b 433 933 399 940 417 933 b 481 953 450 933 468 940 l 569 1042 b 589 1089 582 1054 589 1071 b 522 1156 589 1126 560 1156 b 475 1136 506 1156 488 1149 z "},"ř":{"ha":511,"x_min":0,"x_max":0,"o":"m 44 622 b 103 531 44 582 68 547 b 56 356 72 479 56 419 l 56 89 b 144 0 56 40 96 0 b 233 89 193 0 233 40 l 233 356 b 411 533 233 454 313 533 b 500 622 460 533 500 574 b 411 711 500 671 460 711 b 235 664 347 711 288 693 b 144 722 219 699 185 722 b 44 622 89 722 44 678 z m 278 917 l 236 958 b 189 978 224 971 206 978 b 122 911 151 978 122 949 b 142 864 122 893 129 876 l 231 775 b 278 756 243 763 261 756 b 325 775 294 756 313 763 l 414 864 b 433 911 426 876 433 893 b 367 978 433 949 404 978 b 319 958 350 978 332 971 z "},"Ś":{"ha":844,"x_min":0,"x_max":0,"o":"m 122 178 b 33 89 74 178 33 138 b 122 0 33 40 74 0 l 567 0 b 833 267 714 0 833 119 b 567 533 833 414 714 533 l 300 533 b 211 622 251 533 211 574 b 300 711 211 671 251 711 l 700 711 b 789 800 749 711 789 751 b 700 889 789 849 749 889 l 300 889 b 33 622 153 889 33 769 b 300 356 33 475 153 356 l 567 356 b 656 267 615 356 656 315 b 567 178 656 218 615 178 z m 547 1042 b 567 1089 560 1054 567 1071 b 500 1156 567 1126 538 1156 b 453 1136 483 1156 465 1149 l 364 1047 b 344 1000 351 1035 344 1018 b 411 933 344 963 374 933 b 458 953 428 933 446 940 z "},"ś":{"ha":678,"x_min":0,"x_max":0,"o":"m 122 178 b 33 89 74 178 33 138 b 122 0 33 40 74 0 l 433 0 b 656 222 556 0 656 100 b 433 444 656 344 556 444 l 256 444 b 211 489 231 444 211 464 b 256 533 211 514 231 533 l 522 533 b 611 622 571 533 611 574 b 522 711 611 671 571 711 l 256 711 b 33 489 133 711 33 611 b 256 267 33 367 133 267 l 433 267 b 478 222 458 267 478 247 b 433 178 478 197 458 178 z m 458 864 b 478 911 471 876 478 893 b 411 978 478 949 449 978 b 364 958 394 978 376 971 l 275 869 b 256 822 263 857 256 840 b 322 756 256 785 285 756 b 369 775 339 756 357 763 z "},"Ŝ":{"ha":844,"x_min":0,"x_max":0,"o":"m 122 178 b 33 89 74 178 33 138 b 122 0 33 40 74 0 l 567 0 b 833 267 714 0 833 119 b 567 533 833 414 714 533 l 300 533 b 211 622 251 533 211 574 b 300 711 211 671 251 711 l 700 711 b 789 800 749 711 789 751 b 700 889 789 849 749 889 l 300 889 b 33 622 153 889 33 769 b 300 356 33 475 153 356 l 567 356 b 656 267 615 356 656 315 b 567 178 656 218 615 178 z m 433 994 l 475 953 b 522 933 488 940 506 933 b 589 1000 560 933 589 963 b 569 1047 589 1018 582 1035 l 481 1136 b 433 1156 468 1149 450 1156 b 386 1136 417 1156 399 1149 l 297 1047 b 278 1000 285 1035 278 1018 b 344 933 278 963 307 933 b 392 953 361 933 379 940 z "},"ŝ":{"ha":678,"x_min":0,"x_max":0,"o":"m 122 178 b 33 89 74 178 33 138 b 122 0 33 40 74 0 l 433 0 b 656 222 556 0 656 100 b 433 444 656 344 556 444 l 256 444 b 211 489 231 444 211 464 b 256 533 211 514 231 533 l 522 533 b 611 622 571 533 611 574 b 522 711 611 671 571 711 l 256 711 b 33 489 133 711 33 611 b 256 267 33 367 133 267 l 433 267 b 478 222 458 267 478 247 b 433 178 478 197 458 178 z m 344 817 l 386 775 b 433 756 399 763 417 756 b 500 822 471 756 500 785 b 481 869 500 840 493 857 l 392 958 b 344 978 379 971 361 978 b 297 958 328 978 310 971 l 208 869 b 189 822 196 857 189 840 b 256 756 189 785 218 756 b 303 775 272 756 290 763 z "},"Ş":{"ha":844,"x_min":0,"x_max":0,"o":"m 411 0 b 478 -67 447 0 478 -31 b 411 -133 478 -103 447 -133 b 364 -114 393 -133 376 -126 b 317 -94 351 -101 335 -94 b 250 -161 279 -94 250 -124 b 269 -208 250 -179 257 -196 b 411 -267 306 -244 356 -267 b 611 -67 521 -267 611 -176 b 599 1 611 -42 606 -19 b 833 267 731 18 833 131 b 567 533 833 414 714 533 l 300 533 b 211 622 251 533 211 574 b 300 711 211 671 251 711 l 700 711 b 789 800 749 711 789 751 b 700 889 789 849 749 889 l 300 889 b 33 622 153 889 33 769 b 300 356 33 475 153 356 l 567 356 b 656 267 615 356 656 315 b 567 178 656 218 615 178 l 122 178 b 33 89 74 178 33 138 b 122 0 33 40 74 0 z "},"ş":{"ha":678,"x_min":0,"x_max":0,"o":"m 311 0 b 378 -67 347 0 378 -31 b 311 -133 378 -103 347 -133 b 264 -114 293 -133 276 -126 b 217 -94 251 -101 235 -94 b 150 -161 179 -94 150 -124 b 169 -208 150 -179 157 -196 b 311 -267 206 -244 256 -267 b 511 -67 421 -267 511 -176 b 496 8 511 -40 506 -14 b 656 222 588 36 656 121 b 433 444 656 344 556 444 l 256 444 b 211 489 231 444 211 464 b 256 533 211 514 231 533 l 522 533 b 611 622 571 533 611 574 b 522 711 611 671 571 711 l 256 711 b 33 489 133 711 33 611 b 256 267 33 367 133 267 l 433 267 b 478 222 458 267 478 247 b 433 178 478 197 458 178 l 122 178 b 33 89 74 178 33 138 b 122 0 33 40 74 0 z "},"Š":{"ha":844,"x_min":0,"x_max":0,"o":"m 122 178 b 33 89 74 178 33 138 b 122 0 33 40 74 0 l 567 0 b 833 267 714 0 833 119 b 567 533 833 414 714 533 l 300 533 b 211 622 251 533 211 574 b 300 711 211 671 251 711 l 700 711 b 789 800 749 711 789 751 b 700 889 789 849 749 889 l 300 889 b 33 622 153 889 33 769 b 300 356 33 475 153 356 l 567 356 b 656 267 615 356 656 315 b 567 178 656 218 615 178 z m 433 1094 l 392 1136 b 344 1156 379 1149 361 1156 b 278 1089 307 1156 278 1126 b 297 1042 278 1071 285 1054 l 386 953 b 433 933 399 940 417 933 b 481 953 450 933 468 940 l 569 1042 b 589 1089 582 1054 589 1071 b 522 1156 589 1126 560 1156 b 475 1136 506 1156 488 1149 z "},"š":{"ha":678,"x_min":0,"x_max":0,"o":"m 122 178 b 33 89 74 178 33 138 b 122 0 33 40 74 0 l 433 0 b 656 222 556 0 656 100 b 433 444 656 344 556 444 l 256 444 b 211 489 231 444 211 464 b 256 533 211 514 231 533 l 522 533 b 611 622 571 533 611 574 b 522 711 611 671 571 711 l 256 711 b 33 489 133 711 33 611 b 256 267 33 367 133 267 l 433 267 b 478 222 458 267 478 247 b 433 178 478 197 458 178 z m 344 917 l 303 958 b 256 978 290 971 272 978 b 189 911 218 978 189 949 b 208 864 189 893 196 876 l 297 775 b 344 756 310 763 328 756 b 392 775 361 756 379 763 l 481 864 b 500 911 493 876 500 893 b 433 978 500 949 471 978 b 386 958 417 978 399 971 z "},"Ţ":{"ha":822,"x_min":0,"x_max":0,"o":"m 500 711 l 722 711 b 811 800 771 711 811 751 b 722 889 811 849 771 889 l 100 889 b 11 800 51 889 11 849 b 100 711 11 751 51 711 l 322 711 l 322 89 b 411 0 322 40 363 0 b 478 -67 447 0 478 -31 b 411 -133 478 -103 447 -133 b 364 -114 393 -133 376 -126 b 317 -94 351 -101 335 -94 b 250 -161 279 -94 250 -124 b 269 -208 250 -179 257 -196 b 411 -267 306 -244 356 -267 b 611 -67 521 -267 611 -176 b 500 113 611 11 565 79 z "},"ţ":{"ha":578,"x_min":0,"x_max":0,"o":"m 482 0 b 567 89 528 1 567 42 b 478 178 567 138 526 178 l 433 178 b 344 267 385 178 344 218 l 344 533 l 478 533 b 567 622 526 533 567 574 b 478 711 567 671 526 711 l 344 711 l 344 800 b 256 889 344 849 304 889 b 167 800 207 889 167 849 l 167 711 l 100 711 b 11 622 51 711 11 671 b 100 533 11 574 51 533 l 167 533 l 167 267 b 244 78 167 199 192 129 l 343 -19 b 361 -67 356 -32 361 -50 b 294 -133 361 -103 331 -133 b 247 -114 276 -133 260 -126 b 200 -94 235 -101 218 -94 b 133 -161 163 -94 133 -124 b 153 -208 133 -179 140 -196 b 294 -267 189 -244 239 -267 b 494 -67 404 -267 494 -176 b 482 0 494 -43 490 -21 z "},"Ť":{"ha":822,"x_min":0,"x_max":0,"o":"m 322 89 b 411 0 322 40 363 0 b 500 89 460 0 500 40 l 500 711 l 722 711 b 811 800 771 711 811 751 b 722 889 811 849 771 889 l 100 889 b 11 800 51 889 11 849 b 100 711 11 751 51 711 l 322 711 z m 411 1094 l 369 1136 b 322 1156 357 1149 339 1156 b 256 1089 285 1156 256 1126 b 275 1042 256 1071 263 1054 l 364 953 b 411 933 376 940 394 933 b 458 953 428 933 446 940 l 547 1042 b 567 1089 560 1054 567 1071 b 500 1156 567 1126 538 1156 b 453 1136 483 1156 465 1149 z "},"ť":{"ha":578,"x_min":0,"x_max":0,"o":"m 100 711 b 11 622 51 711 11 671 b 100 533 11 574 51 533 l 167 533 l 167 267 b 433 0 167 119 286 0 l 478 0 b 567 89 526 0 567 40 b 478 178 567 138 526 178 l 433 178 b 344 267 385 178 344 218 l 344 533 l 478 533 b 567 622 526 533 567 574 b 478 711 567 671 526 711 l 344 711 l 344 800 b 256 889 344 849 304 889 b 167 800 207 889 167 849 l 167 711 z m 389 822 b 456 756 389 786 419 756 b 522 822 492 756 522 786 l 522 911 b 456 978 522 947 492 978 b 389 911 419 978 389 947 z "},"Ŧ":{"ha":822,"x_min":0,"x_max":0,"o":"m 322 89 b 411 0 322 40 363 0 b 500 89 460 0 500 40 l 500 356 l 544 356 b 633 444 593 356 633 396 b 544 533 633 493 593 533 l 500 533 l 500 711 l 722 711 b 811 800 771 711 811 751 b 722 889 811 849 771 889 l 100 889 b 11 800 51 889 11 849 b 100 711 11 751 51 711 l 322 711 l 322 533 l 278 533 b 189 444 229 533 189 493 b 278 356 189 396 229 356 l 322 356 z "},"ŧ":{"ha":600,"x_min":0,"x_max":0,"o":"m 111 711 b 22 622 63 711 22 671 b 111 533 22 574 63 533 l 178 533 l 178 467 l 111 467 b 22 378 63 467 22 426 b 111 289 22 329 63 289 l 178 289 l 178 267 b 444 0 178 119 297 0 l 489 0 b 578 89 538 0 578 40 b 489 178 578 138 538 178 l 444 178 b 356 267 396 178 356 218 l 356 289 l 489 289 b 578 378 538 289 578 329 b 489 467 578 426 538 467 l 356 467 l 356 533 l 489 533 b 578 622 538 533 578 574 b 489 711 578 671 538 711 l 356 711 l 356 800 b 267 889 356 849 315 889 b 178 800 218 889 178 849 l 178 711 z "},"Ũ":{"ha":867,"x_min":0,"x_max":0,"o":"m 833 800 b 744 889 833 849 793 889 b 656 800 696 889 656 849 l 656 400 b 433 178 656 278 556 178 b 211 400 311 178 211 278 l 211 800 b 122 889 211 849 171 889 b 33 800 74 889 33 849 l 33 400 b 433 0 33 179 213 0 b 833 400 654 0 833 179 z m 375 978 b 492 933 404 978 443 933 b 636 997 549 933 593 954 b 656 1044 649 1010 656 1026 b 589 1111 656 1082 626 1111 b 542 1092 572 1111 554 1104 b 492 1067 525 1075 515 1067 b 375 1111 463 1067 424 1111 b 231 1047 318 1111 274 1090 b 211 1000 218 1035 211 1018 b 278 933 211 963 240 933 b 325 953 294 933 313 940 b 375 978 342 969 351 978 z "},"ũ":{"ha":800,"x_min":0,"x_max":0,"o":"m 744 622 b 656 711 744 671 704 711 b 567 622 607 711 567 671 l 567 356 b 389 178 567 257 488 178 b 211 356 290 178 211 257 l 211 622 b 122 711 211 671 171 711 b 33 622 74 711 33 671 l 33 356 b 389 0 33 160 193 0 b 564 47 453 0 513 17 b 656 -11 581 13 615 -11 b 756 89 711 -11 756 33 b 697 179 756 129 732 164 b 744 356 726 232 744 292 z m 331 800 b 447 756 360 800 399 756 b 592 819 504 756 549 776 b 611 867 604 832 611 849 b 544 933 611 904 582 933 b 497 914 528 933 510 926 b 447 889 481 897 471 889 b 331 933 418 889 379 933 b 186 869 274 933 229 913 b 167 822 174 857 167 840 b 233 756 167 785 196 756 b 281 775 250 756 268 763 b 331 800 297 792 307 800 z "},"Ū":{"ha":867,"x_min":0,"x_max":0,"o":"m 833 800 b 744 889 833 849 793 889 b 656 800 696 889 656 849 l 656 400 b 433 178 656 278 556 178 b 211 400 311 178 211 278 l 211 800 b 122 889 211 849 171 889 b 33 800 74 889 33 849 l 33 400 b 433 0 33 179 213 0 b 833 400 654 0 833 179 z m 278 1089 b 211 1022 242 1089 211 1058 b 278 956 211 986 242 956 l 589 956 b 656 1022 625 956 656 986 b 589 1089 656 1058 625 1089 z "},"ū":{"ha":800,"x_min":0,"x_max":0,"o":"m 744 622 b 656 711 744 671 704 711 b 567 622 607 711 567 671 l 567 356 b 389 178 567 257 488 178 b 211 356 290 178 211 257 l 211 622 b 122 711 211 671 171 711 b 33 622 74 711 33 671 l 33 356 b 389 0 33 160 193 0 b 564 47 453 0 513 17 b 656 -11 581 13 615 -11 b 756 89 711 -11 756 33 b 697 179 756 129 732 164 b 744 356 726 232 744 292 z m 233 911 b 167 844 197 911 167 881 b 233 778 167 808 197 778 l 544 778 b 611 844 581 778 611 808 b 544 911 611 881 581 911 z "},"Ŭ":{"ha":867,"x_min":0,"x_max":0,"o":"m 833 800 b 744 889 833 849 793 889 b 656 800 696 889 656 849 l 656 400 b 433 178 656 278 556 178 b 211 400 311 178 211 278 l 211 800 b 122 889 211 849 171 889 b 33 800 74 889 33 849 l 33 400 b 433 0 33 179 213 0 b 833 400 654 0 833 179 z m 411 1067 b 389 1089 399 1067 389 1076 b 322 1156 389 1125 358 1156 b 256 1089 286 1156 256 1125 b 411 933 256 1003 325 933 l 456 933 b 611 1089 542 933 611 1003 b 544 1156 611 1125 581 1156 b 478 1089 508 1156 478 1125 b 456 1067 478 1076 468 1067 z "},"ŭ":{"ha":800,"x_min":0,"x_max":0,"o":"m 744 622 b 656 711 744 671 704 711 b 567 622 607 711 567 671 l 567 356 b 389 178 567 257 488 178 b 211 356 290 178 211 257 l 211 622 b 122 711 211 671 171 711 b 33 622 74 711 33 671 l 33 356 b 389 0 33 160 193 0 b 564 47 453 0 513 17 b 656 -11 581 13 615 -11 b 756 89 711 -11 756 33 b 697 179 756 129 732 164 b 744 356 726 232 744 292 z m 367 889 b 344 911 354 889 344 899 b 278 978 344 947 314 978 b 211 911 242 978 211 947 b 367 756 211 825 281 756 l 411 756 b 567 911 497 756 567 825 b 500 978 567 947 536 978 b 433 911 464 978 433 947 b 411 889 433 899 424 889 z "},"Ů":{"ha":867,"x_min":0,"x_max":0,"o":"m 833 800 b 744 889 833 849 793 889 b 656 800 696 889 656 849 l 656 400 b 433 178 656 278 556 178 b 211 400 311 178 211 278 l 211 800 b 122 889 211 849 171 889 b 33 800 74 889 33 849 l 33 400 b 433 0 33 179 213 0 b 833 400 654 0 833 179 z m 361 961 b 433 1033 361 1001 393 1033 b 506 961 474 1033 506 1001 b 433 889 506 921 474 889 b 361 961 393 889 361 921 z m 239 961 b 433 767 239 854 326 767 b 628 961 540 767 628 854 b 433 1156 628 1068 540 1156 b 239 961 326 1156 239 1068 z "},"ů":{"ha":800,"x_min":0,"x_max":0,"o":"m 744 622 b 656 711 744 671 704 711 b 567 622 607 711 567 671 l 567 356 b 389 178 567 257 488 178 b 211 356 290 178 211 257 l 211 622 b 122 711 211 671 171 711 b 33 622 74 711 33 671 l 33 356 b 389 0 33 160 193 0 b 564 47 453 0 513 17 b 656 -11 581 13 615 -11 b 756 89 711 -11 756 33 b 697 179 756 129 732 164 b 744 356 726 232 744 292 z m 317 783 b 389 856 317 824 349 856 b 461 783 429 856 461 824 b 389 711 461 743 429 711 b 317 783 349 711 317 743 z m 194 783 b 389 589 194 676 282 589 b 583 783 496 589 583 676 b 389 978 583 890 496 978 b 194 783 282 978 194 890 z "},"Ű":{"ha":867,"x_min":0,"x_max":0,"o":"m 833 800 b 744 889 833 849 793 889 b 656 800 696 889 656 849 l 656 400 b 433 178 656 278 556 178 b 211 400 311 178 211 278 l 211 800 b 122 889 211 849 171 889 b 33 800 74 889 33 849 l 33 400 b 433 0 33 179 213 0 b 833 400 654 0 833 179 z m 436 1042 b 456 1089 449 1054 456 1071 b 389 1156 456 1126 426 1156 b 342 1136 372 1156 354 1149 l 253 1047 b 233 1000 240 1035 233 1018 b 300 933 233 963 263 933 b 347 953 317 933 335 940 z m 703 1042 b 722 1089 715 1054 722 1071 b 656 1156 722 1126 693 1156 b 608 1136 639 1156 621 1149 l 519 1047 b 500 1000 507 1035 500 1018 b 567 933 500 963 529 933 b 614 953 583 933 601 940 z "},"ű":{"ha":800,"x_min":0,"x_max":0,"o":"m 744 622 b 656 711 744 671 704 711 b 567 622 607 711 567 671 l 567 356 b 389 178 567 257 488 178 b 211 356 290 178 211 257 l 211 622 b 122 711 211 671 171 711 b 33 622 74 711 33 671 l 33 356 b 389 0 33 160 193 0 b 564 47 453 0 513 17 b 656 -11 581 13 615 -11 b 756 89 711 -11 756 33 b 697 179 756 129 732 164 b 744 356 726 232 744 292 z m 392 864 b 411 911 404 876 411 893 b 344 978 411 949 382 978 b 297 958 328 978 310 971 l 208 869 b 189 822 196 857 189 840 b 256 756 189 785 218 756 b 303 775 272 756 290 763 z m 658 864 b 678 911 671 876 678 893 b 611 978 678 949 649 978 b 564 958 594 978 576 971 l 475 869 b 456 822 463 857 456 840 b 522 756 456 785 485 756 b 569 775 539 756 557 763 z "},"Ų":{"ha":867,"x_min":0,"x_max":0,"o":"m 436 0 b 425 -67 429 -21 425 -43 b 625 -267 425 -176 515 -267 b 767 -208 681 -267 731 -244 b 786 -161 779 -196 786 -179 b 719 -94 786 -124 757 -94 b 672 -114 701 -94 685 -101 b 625 -133 660 -126 643 -133 b 558 -67 589 -133 558 -103 b 578 -21 558 -49 565 -33 l 717 118 b 833 400 789 192 833 289 l 833 800 b 744 889 833 849 793 889 b 656 800 696 889 656 849 l 656 400 b 433 178 656 278 556 178 b 211 400 311 178 211 278 l 211 800 b 122 889 211 849 171 889 b 33 800 74 889 33 849 l 33 400 b 433 0 33 179 213 0 z "},"ų":{"ha":800,"x_min":0,"x_max":0,"o":"m 744 622 b 656 711 744 671 704 711 b 567 622 607 711 567 671 l 567 356 b 389 178 567 257 488 178 b 211 356 290 178 211 257 l 211 622 b 122 711 211 671 171 711 b 33 622 74 711 33 671 l 33 356 b 389 0 33 160 193 0 b 471 10 417 0 444 3 b 456 -67 461 -14 456 -39 b 656 -267 456 -176 546 -267 b 797 -208 711 -267 761 -244 b 817 -161 810 -196 817 -179 b 750 -94 817 -124 788 -94 b 703 -114 732 -94 715 -101 b 656 -133 690 -126 674 -133 b 589 -67 619 -133 589 -103 b 656 0 589 -31 619 0 b 756 100 711 0 756 44 b 703 188 756 138 733 171 b 744 356 729 238 744 294 z "},"Ŵ":{"ha":1089,"x_min":0,"x_max":0,"o":"m 1033 800 b 944 889 1033 849 993 889 b 856 800 896 889 856 849 l 856 303 l 607 551 b 544 578 590 569 567 578 b 482 551 522 578 499 569 l 233 303 l 233 800 b 144 889 233 849 193 889 b 56 800 96 889 56 849 l 56 89 b 144 0 56 40 96 0 b 207 26 168 0 190 10 l 544 364 l 882 26 b 944 0 899 10 921 0 b 1033 89 993 0 1033 40 z m 544 994 l 586 953 b 633 933 599 940 617 933 b 700 1000 671 933 700 963 b 681 1047 700 1018 693 1035 l 592 1136 b 544 1156 579 1149 561 1156 b 497 1136 528 1156 510 1149 l 408 1047 b 389 1000 396 1035 389 1018 b 456 933 389 963 418 933 b 503 953 472 933 490 940 z "},"ŵ":{"ha":1133,"x_min":0,"x_max":0,"o":"m 344 178 b 211 311 271 178 211 238 l 211 622 b 122 711 211 671 171 711 b 33 622 74 711 33 671 l 33 311 b 344 0 33 139 172 0 b 567 93 432 0 510 35 b 789 0 622 35 701 0 b 1100 311 961 0 1100 139 l 1100 622 b 1011 711 1100 671 1060 711 b 922 622 963 711 922 671 l 922 311 b 789 178 922 238 863 178 b 656 311 715 178 656 238 l 656 622 b 567 711 656 671 615 711 b 478 622 518 711 478 671 l 478 311 b 344 178 478 238 418 178 z m 567 817 l 608 775 b 656 756 621 763 639 756 b 722 822 693 756 722 785 b 703 869 722 840 715 857 l 614 958 b 567 978 601 971 583 978 b 519 958 550 978 532 971 l 431 869 b 411 822 418 857 411 840 b 478 756 411 785 440 756 b 525 775 494 756 513 763 z "},"Ŷ":{"ha":911,"x_min":0,"x_max":0,"o":"m 456 0 b 544 89 504 0 544 40 l 544 408 l 874 738 b 900 800 890 754 900 776 b 811 889 900 847 858 889 b 749 863 788 889 765 879 l 456 569 l 163 863 b 100 889 146 879 124 889 b 11 800 53 889 11 847 b 38 738 11 776 21 754 l 367 408 l 367 89 b 456 0 367 40 407 0 z m 456 994 l 497 953 b 544 933 510 940 528 933 b 611 1000 582 933 611 963 b 592 1047 611 1018 604 1035 l 503 1136 b 456 1156 490 1149 472 1156 b 408 1136 439 1156 421 1149 l 319 1047 b 300 1000 307 1035 300 1018 b 367 933 300 963 329 933 b 414 953 383 933 401 940 z "},"ŷ":{"ha":800,"x_min":0,"x_max":0,"o":"m 389 -89 b 263 -37 343 -89 299 -72 b 200 -11 246 -21 224 -11 b 111 -100 153 -11 111 -53 b 138 -162 111 -124 121 -146 b 389 -267 207 -232 299 -267 b 744 89 585 -267 744 -107 l 744 622 b 656 711 744 671 704 711 b 567 622 607 711 567 671 l 567 356 b 389 178 567 257 488 178 b 211 356 290 178 211 257 l 211 622 b 122 711 211 671 171 711 b 33 622 74 711 33 671 l 33 356 b 389 0 33 160 193 0 b 561 44 451 0 510 17 b 389 -89 542 -32 472 -89 z m 389 817 l 431 775 b 478 756 443 763 461 756 b 544 822 515 756 544 785 b 525 869 544 840 538 857 l 436 958 b 389 978 424 971 406 978 b 342 958 372 978 354 971 l 253 869 b 233 822 240 857 233 840 b 300 756 233 785 263 756 b 347 775 317 756 335 763 z "},"Ÿ":{"ha":911,"x_min":0,"x_max":0,"o":"m 456 0 b 544 89 504 0 544 40 l 544 408 l 874 738 b 900 800 890 754 900 776 b 811 889 900 847 858 889 b 749 863 788 889 765 879 l 456 569 l 163 863 b 100 889 146 879 124 889 b 11 800 53 889 11 847 b 38 738 11 776 21 754 l 367 408 l 367 89 b 456 0 367 40 407 0 z m 256 1022 b 344 933 256 974 296 933 b 433 1022 393 933 433 974 b 344 1111 433 1071 393 1111 b 256 1022 296 1111 256 1071 z m 478 1022 b 567 933 478 974 518 933 b 656 1022 615 933 656 974 b 567 1111 656 1071 615 1111 b 478 1022 518 1111 478 1071 z "},"Ź":{"ha":933,"x_min":0,"x_max":0,"o":"m 608 711 b 49 151 608 711 49 151 b 22 89 32 135 22 113 b 111 0 22 40 63 0 l 822 0 b 911 89 871 0 911 40 b 822 178 911 138 871 178 l 325 178 b 885 738 325 178 885 738 b 911 800 903 754 911 778 b 822 889 911 849 871 889 l 111 889 b 22 800 63 889 22 849 b 111 711 22 751 63 711 z m 603 1042 b 622 1089 615 1054 622 1071 b 556 1156 622 1126 593 1156 b 508 1136 539 1156 521 1149 l 419 1047 b 400 1000 407 1035 400 1018 b 467 933 400 963 429 933 b 514 953 483 933 501 940 z "},"ź":{"ha":767,"x_min":0,"x_max":0,"o":"m 58 151 b 33 89 42 135 33 113 b 122 0 33 40 74 0 l 644 0 b 733 89 693 0 733 40 b 644 178 733 138 693 178 l 333 178 l 708 560 b 733 622 725 576 733 599 b 644 711 733 671 693 711 l 122 711 b 33 622 74 711 33 671 b 122 533 33 574 74 533 l 433 533 z m 503 864 b 522 911 515 876 522 893 b 456 978 522 949 493 978 b 408 958 439 978 421 971 l 319 869 b 300 822 307 857 300 840 b 367 756 300 785 329 756 b 414 775 383 756 401 763 z "},"Ż":{"ha":933,"x_min":0,"x_max":0,"o":"m 608 711 b 49 151 608 711 49 151 b 22 89 32 135 22 113 b 111 0 22 40 63 0 l 822 0 b 911 89 871 0 911 40 b 822 178 911 138 871 178 l 325 178 b 885 738 325 178 885 738 b 911 800 903 754 911 778 b 822 889 911 849 871 889 l 111 889 b 22 800 63 889 22 849 b 111 711 22 751 63 711 z m 378 1022 b 467 933 378 974 418 933 b 556 1022 515 933 556 974 b 467 1111 556 1071 515 1111 b 378 1022 418 1111 378 1071 z "},"ż":{"ha":767,"x_min":0,"x_max":0,"o":"m 58 151 b 33 89 42 135 33 113 b 122 0 33 40 74 0 l 644 0 b 733 89 693 0 733 40 b 644 178 733 138 693 178 l 333 178 l 708 560 b 733 622 725 576 733 599 b 644 711 733 671 693 711 l 122 711 b 33 622 74 711 33 671 b 122 533 33 574 74 533 l 433 533 z m 300 844 b 389 756 300 796 340 756 b 478 844 438 756 478 796 b 389 933 478 893 438 933 b 300 844 340 933 300 893 z "},"Ž":{"ha":933,"x_min":0,"x_max":0,"o":"m 608 711 b 49 151 608 711 49 151 b 22 89 32 135 22 113 b 111 0 22 40 63 0 l 822 0 b 911 89 871 0 911 40 b 822 178 911 138 871 178 l 325 178 b 885 738 325 178 885 738 b 911 800 903 754 911 778 b 822 889 911 849 871 889 l 111 889 b 22 800 63 889 22 849 b 111 711 22 751 63 711 z m 467 1094 l 425 1136 b 378 1156 413 1149 394 1156 b 311 1089 340 1156 311 1126 b 331 1042 311 1071 318 1054 l 419 953 b 467 933 432 940 450 933 b 514 953 483 933 501 940 l 603 1042 b 622 1089 615 1054 622 1071 b 556 1156 622 1126 593 1156 b 508 1136 539 1156 521 1149 z "},"ž":{"ha":767,"x_min":0,"x_max":0,"o":"m 58 151 b 33 89 42 135 33 113 b 122 0 33 40 74 0 l 644 0 b 733 89 693 0 733 40 b 644 178 733 138 693 178 l 333 178 l 708 560 b 733 622 725 576 733 599 b 644 711 733 671 693 711 l 122 711 b 33 622 74 711 33 671 b 122 533 33 574 74 533 l 433 533 z m 389 917 l 347 958 b 300 978 335 971 317 978 b 233 911 263 978 233 949 b 253 864 233 893 240 876 l 342 775 b 389 756 354 763 372 756 b 436 775 406 756 424 763 l 525 864 b 544 911 538 876 544 893 b 478 978 544 949 515 978 b 431 958 461 978 443 971 z "},"ƒ":{"ha":778,"x_min":0,"x_max":0,"o":"m 567 356 b 656 444 615 356 656 396 b 567 533 656 493 615 533 l 478 533 l 478 711 b 567 800 478 760 518 800 l 656 800 b 744 889 704 800 744 840 b 656 978 744 938 704 978 l 567 978 b 300 711 419 978 300 858 l 300 533 l 211 533 b 122 444 163 533 122 493 b 211 356 122 396 163 356 l 300 356 l 300 0 b 211 -89 300 -49 260 -89 l 122 -89 b 33 -178 74 -89 33 -129 b 122 -267 33 -226 74 -267 l 211 -267 b 478 0 358 -267 478 -147 l 478 356 z "},"Ș":{"ha":844,"x_min":0,"x_max":0,"o":"m 122 178 b 33 89 74 178 33 138 b 122 0 33 40 74 0 l 567 0 b 833 267 714 0 833 119 b 567 533 833 414 714 533 l 300 533 b 211 622 251 533 211 574 b 300 711 211 671 251 711 l 700 711 b 789 800 749 711 789 751 b 700 889 789 849 749 889 l 300 889 b 33 622 153 889 33 769 b 300 356 33 475 153 356 l 567 356 b 656 267 615 356 656 315 b 567 178 656 218 615 178 z m 367 -200 b 433 -267 367 -236 397 -267 b 500 -200 469 -267 500 -236 l 500 -111 b 433 -44 500 -75 469 -44 b 367 -111 397 -44 367 -75 z "},"ș":{"ha":678,"x_min":0,"x_max":0,"o":"m 122 178 b 33 89 74 178 33 138 b 122 0 33 40 74 0 l 433 0 b 656 222 556 0 656 100 b 433 444 656 344 556 444 l 256 444 b 211 489 231 444 211 464 b 256 533 211 514 231 533 l 522 533 b 611 622 571 533 611 574 b 522 711 611 671 571 711 l 256 711 b 33 489 133 711 33 611 b 256 267 33 367 133 267 l 433 267 b 478 222 458 267 478 247 b 433 178 478 197 458 178 z m 278 -200 b 344 -267 278 -236 308 -267 b 411 -200 381 -267 411 -236 l 411 -111 b 344 -44 411 -75 381 -44 b 278 -111 308 -44 278 -75 z "},"Ț":{"ha":822,"x_min":0,"x_max":0,"o":"m 322 89 b 411 0 322 40 363 0 b 500 89 460 0 500 40 l 500 711 l 722 711 b 811 800 771 711 811 751 b 722 889 811 849 771 889 l 100 889 b 11 800 51 889 11 849 b 100 711 11 751 51 711 l 322 711 z m 344 -200 b 411 -267 344 -236 375 -267 b 478 -200 447 -267 478 -236 l 478 -111 b 411 -44 478 -75 447 -44 b 344 -111 375 -44 344 -75 z "},"ț":{"ha":578,"x_min":0,"x_max":0,"o":"m 100 711 b 11 622 51 711 11 671 b 100 533 11 574 51 533 l 167 533 l 167 267 b 433 0 167 119 286 0 l 478 0 b 567 89 526 0 567 40 b 478 178 567 138 526 178 l 433 178 b 344 267 385 178 344 218 l 344 533 l 478 533 b 567 622 526 533 567 574 b 478 711 567 671 526 711 l 344 711 l 344 800 b 256 889 344 849 304 889 b 167 800 207 889 167 849 l 167 711 z m 233 -200 b 300 -267 233 -236 264 -267 b 367 -200 336 -267 367 -236 l 367 -111 b 300 -44 367 -75 336 -44 b 233 -111 264 -44 233 -75 z "},"Ȧ":{"ha":911,"x_min":0,"x_max":0,"o":"m 856 489 b 456 889 856 710 676 889 b 56 489 235 889 56 710 l 56 89 b 144 0 56 40 96 0 b 233 89 193 0 233 40 l 233 267 l 678 267 l 678 89 b 767 0 678 40 718 0 b 856 89 815 0 856 40 z m 233 489 b 456 711 233 611 333 711 b 678 489 578 711 678 611 l 678 444 l 233 444 z m 367 1022 b 456 933 367 974 407 933 b 544 1022 504 933 544 974 b 456 1111 544 1071 504 1111 b 367 1022 407 1111 367 1071 z "},"ȧ":{"ha":778,"x_min":0,"x_max":0,"o":"m 22 356 b 378 0 22 160 182 0 b 553 47 442 0 501 17 b 644 -11 569 13 604 -11 b 744 89 700 -11 744 33 b 686 179 744 129 721 164 b 733 356 715 232 733 292 b 378 711 733 551 574 711 b 22 356 182 711 22 551 z m 200 356 b 378 533 200 454 279 533 b 556 356 476 533 556 454 b 378 178 556 257 476 178 b 200 356 279 178 200 257 z m 289 844 b 378 756 289 796 329 756 b 467 844 426 756 467 796 b 378 933 467 893 426 933 b 289 844 329 933 289 893 z "},"Ȯ":{"ha":933,"x_min":0,"x_max":0,"o":"m 22 444 b 467 0 22 199 221 0 b 911 444 713 0 911 199 b 467 889 911 690 713 889 b 22 444 221 889 22 690 z m 200 444 b 467 711 200 592 319 711 b 733 444 614 711 733 592 b 467 178 733 297 614 178 b 200 444 319 178 200 297 z m 378 1022 b 467 933 378 974 418 933 b 556 1022 515 933 556 974 b 467 1111 556 1071 515 1111 b 378 1022 418 1111 378 1071 z "},"ȯ":{"ha":756,"x_min":0,"x_max":0,"o":"m 22 356 b 378 0 22 160 182 0 b 733 356 574 0 733 160 b 378 711 733 551 574 711 b 22 356 182 711 22 551 z m 200 356 b 378 533 200 454 279 533 b 556 356 476 533 556 454 b 378 178 556 257 476 178 b 200 356 279 178 200 257 z m 289 844 b 378 756 289 796 329 756 b 467 844 426 756 467 796 b 378 933 467 893 426 933 b 289 844 329 933 289 893 z "},"Ȳ":{"ha":911,"x_min":0,"x_max":0,"o":"m 456 0 b 544 89 504 0 544 40 l 544 408 l 874 738 b 900 800 890 754 900 776 b 811 889 900 847 858 889 b 749 863 788 889 765 879 l 456 569 l 163 863 b 100 889 146 879 124 889 b 11 800 53 889 11 847 b 38 738 11 776 21 754 l 367 408 l 367 89 b 456 0 367 40 407 0 z m 300 1089 b 233 1022 264 1089 233 1058 b 300 956 233 986 264 956 l 611 956 b 678 1022 647 956 678 986 b 611 1089 678 1058 647 1089 z "},"ȳ":{"ha":800,"x_min":0,"x_max":0,"o":"m 389 -89 b 263 -37 343 -89 299 -72 b 200 -11 246 -21 224 -11 b 111 -100 153 -11 111 -53 b 138 -162 111 -124 121 -146 b 389 -267 207 -232 299 -267 b 744 89 585 -267 744 -107 l 744 622 b 656 711 744 671 704 711 b 567 622 607 711 567 671 l 567 356 b 389 178 567 257 488 178 b 211 356 290 178 211 257 l 211 622 b 122 711 211 671 171 711 b 33 622 74 711 33 671 l 33 356 b 389 0 33 160 193 0 b 561 44 451 0 510 17 b 389 -89 542 -32 472 -89 z m 233 911 b 167 844 197 911 167 881 b 233 778 167 808 197 778 l 544 778 b 611 844 581 778 611 808 b 544 911 611 881 581 911 z "},"ˆ":{"ha":378,"x_min":0,"x_max":0,"o":"m 189 817 l 231 775 b 278 756 243 763 261 756 b 344 822 315 756 344 785 b 325 869 344 840 338 857 l 236 958 b 189 978 224 971 206 978 b 142 958 172 978 154 971 l 53 869 b 33 822 40 857 33 840 b 100 756 33 785 63 756 b 147 775 117 756 135 763 z "},"ˇ":{"ha":378,"x_min":0,"x_max":0,"o":"m 189 917 l 147 958 b 100 978 135 971 117 978 b 33 911 63 978 33 949 b 53 864 33 893 40 876 l 142 775 b 189 756 154 763 172 756 b 236 775 206 756 224 763 l 325 864 b 344 911 338 876 344 893 b 278 978 344 949 315 978 b 231 958 261 978 243 971 z "},"˘":{"ha":422,"x_min":0,"x_max":0,"o":"m 189 889 b 167 911 176 889 167 899 b 100 978 167 947 136 978 b 33 911 64 978 33 947 b 189 756 33 825 103 756 l 233 756 b 389 911 319 756 389 825 b 322 978 389 947 358 978 b 256 911 286 978 256 947 b 233 889 256 899 246 889 z "},"˙":{"ha":244,"x_min":0,"x_max":0,"o":"m 33 844 b 122 756 33 796 74 756 b 211 844 171 756 211 796 b 122 933 211 893 171 933 b 33 844 74 933 33 893 z "},"˚":{"ha":467,"x_min":0,"x_max":0,"o":"m 161 783 b 233 856 161 824 193 856 b 306 783 274 856 306 824 b 233 711 306 743 274 711 b 161 783 193 711 161 743 z m 39 783 b 233 589 39 676 126 589 b 428 783 340 589 428 676 b 233 978 428 890 340 978 b 39 783 126 978 39 890 z "},"˛":{"ha":467,"x_min":0,"x_max":0,"o":"m 281 -114 b 233 -133 268 -126 251 -133 b 167 -67 197 -133 167 -103 b 233 0 167 -31 197 0 b 300 67 269 0 300 31 b 233 133 300 103 269 133 b 33 -67 124 133 33 43 b 233 -267 33 -176 124 -267 b 375 -208 289 -267 339 -244 b 394 -161 388 -196 394 -179 b 328 -94 394 -124 365 -94 b 281 -114 310 -94 293 -101 z "},"˜":{"ha":511,"x_min":0,"x_max":0,"o":"m 197 800 b 314 756 226 800 265 756 b 458 819 371 756 415 776 b 478 867 471 832 478 849 b 411 933 478 904 449 933 b 364 914 394 933 376 926 b 314 889 347 897 338 889 b 197 933 285 889 246 933 b 53 869 140 933 96 913 b 33 822 40 857 33 840 b 100 756 33 785 63 756 b 147 775 117 756 135 763 b 197 800 164 792 174 800 z "},"˝":{"ha":556,"x_min":0,"x_max":0,"o":"m 236 864 b 256 911 249 876 256 893 b 189 978 256 949 226 978 b 142 958 172 978 154 971 l 53 869 b 33 822 40 857 33 840 b 100 756 33 785 63 756 b 147 775 117 756 135 763 z m 503 864 b 522 911 515 876 522 893 b 456 978 522 949 493 978 b 408 958 439 978 421 971 l 319 869 b 300 822 307 857 300 840 b 367 756 300 785 329 756 b 414 775 383 756 401 763 z "},"Ẁ":{"ha":1089,"x_min":0,"x_max":0,"o":"m 1033 800 b 944 889 1033 849 993 889 b 856 800 896 889 856 849 l 856 303 l 607 551 b 544 578 590 569 567 578 b 482 551 522 578 499 569 l 233 303 l 233 800 b 144 889 233 849 193 889 b 56 800 96 889 56 849 l 56 89 b 144 0 56 40 96 0 b 207 26 168 0 190 10 l 544 364 l 882 26 b 944 0 899 10 921 0 b 1033 89 993 0 1033 40 z m 519 953 b 567 933 532 940 550 933 b 633 1000 604 933 633 963 b 614 1047 633 1018 626 1035 l 525 1136 b 478 1156 513 1149 494 1156 b 411 1089 440 1156 411 1126 b 431 1042 411 1071 418 1054 z "},"ẁ":{"ha":1133,"x_min":0,"x_max":0,"o":"m 344 178 b 211 311 271 178 211 238 l 211 622 b 122 711 211 671 171 711 b 33 622 74 711 33 671 l 33 311 b 344 0 33 139 172 0 b 567 93 432 0 510 35 b 789 0 622 35 701 0 b 1100 311 961 0 1100 139 l 1100 622 b 1011 711 1100 671 1060 711 b 922 622 963 711 922 671 l 922 311 b 789 178 922 238 863 178 b 656 311 715 178 656 238 l 656 622 b 567 711 656 671 615 711 b 478 622 518 711 478 671 l 478 311 b 344 178 478 238 418 178 z m 542 775 b 589 756 554 763 572 756 b 656 822 626 756 656 785 b 636 869 656 840 649 857 l 547 958 b 500 978 535 971 517 978 b 433 911 463 978 433 949 b 453 864 433 893 440 876 z "},"Ẃ":{"ha":1089,"x_min":0,"x_max":0,"o":"m 1033 800 b 944 889 1033 849 993 889 b 856 800 896 889 856 849 l 856 303 l 607 551 b 544 578 590 569 567 578 b 482 551 522 578 499 569 l 233 303 l 233 800 b 144 889 233 849 193 889 b 56 800 96 889 56 849 l 56 89 b 144 0 56 40 96 0 b 207 26 168 0 190 10 l 544 364 l 882 26 b 944 0 899 10 921 0 b 1033 89 993 0 1033 40 z m 658 1042 b 678 1089 671 1054 678 1071 b 611 1156 678 1126 649 1156 b 564 1136 594 1156 576 1149 l 475 1047 b 456 1000 463 1035 456 1018 b 522 933 456 963 485 933 b 569 953 539 933 557 940 z "},"ẃ":{"ha":1133,"x_min":0,"x_max":0,"o":"m 344 178 b 211 311 271 178 211 238 l 211 622 b 122 711 211 671 171 711 b 33 622 74 711 33 671 l 33 311 b 344 0 33 139 172 0 b 567 93 432 0 510 35 b 789 0 622 35 701 0 b 1100 311 961 0 1100 139 l 1100 622 b 1011 711 1100 671 1060 711 b 922 622 963 711 922 671 l 922 311 b 789 178 922 238 863 178 b 656 311 715 178 656 238 l 656 622 b 567 711 656 671 615 711 b 478 622 518 711 478 671 l 478 311 b 344 178 478 238 418 178 z m 681 864 b 700 911 693 876 700 893 b 633 978 700 949 671 978 b 586 958 617 978 599 971 l 497 869 b 478 822 485 857 478 840 b 544 756 478 785 507 756 b 592 775 561 756 579 763 z "},"Ẅ":{"ha":1089,"x_min":0,"x_max":0,"o":"m 1033 800 b 944 889 1033 849 993 889 b 856 800 896 889 856 849 l 856 303 l 607 551 b 544 578 590 569 567 578 b 482 551 522 578 499 569 l 233 303 l 233 800 b 144 889 233 849 193 889 b 56 800 96 889 56 849 l 56 89 b 144 0 56 40 96 0 b 207 26 168 0 190 10 l 544 364 l 882 26 b 944 0 899 10 921 0 b 1033 89 993 0 1033 40 z m 344 1022 b 433 933 344 974 385 933 b 522 1022 482 933 522 974 b 433 1111 522 1071 482 1111 b 344 1022 385 1111 344 1071 z m 567 1022 b 656 933 567 974 607 933 b 744 1022 704 933 744 974 b 656 1111 744 1071 704 1111 b 567 1022 607 1111 567 1071 z "},"ẅ":{"ha":1133,"x_min":0,"x_max":0,"o":"m 344 178 b 211 311 271 178 211 238 l 211 622 b 122 711 211 671 171 711 b 33 622 74 711 33 671 l 33 311 b 344 0 33 139 172 0 b 567 93 432 0 510 35 b 789 0 622 35 701 0 b 1100 311 961 0 1100 139 l 1100 622 b 1011 711 1100 671 1060 711 b 922 622 963 711 922 671 l 922 311 b 789 178 922 238 863 178 b 656 311 715 178 656 238 l 656 622 b 567 711 656 671 615 711 b 478 622 518 711 478 671 l 478 311 b 344 178 478 238 418 178 z m 367 844 b 456 756 367 796 407 756 b 544 844 504 756 544 796 b 456 933 544 893 504 933 b 367 844 407 933 367 893 z m 589 844 b 678 756 589 796 629 756 b 767 844 726 756 767 796 b 678 933 767 893 726 933 b 589 844 629 933 589 893 z "},"Ẽ":{"ha":778,"x_min":0,"x_max":0,"o":"m 233 356 l 589 356 b 678 444 638 356 678 396 b 589 533 678 493 638 533 l 233 533 l 233 711 l 678 711 b 767 800 726 711 767 751 b 678 889 767 849 726 889 l 144 889 b 56 800 96 889 56 849 l 56 89 b 144 0 56 40 96 0 l 678 0 b 767 89 726 0 767 40 b 678 178 767 138 726 178 l 233 178 z m 353 978 b 469 933 382 978 421 933 b 614 997 526 933 571 954 b 633 1044 626 1010 633 1026 b 567 1111 633 1082 604 1111 b 519 1092 550 1111 532 1104 b 469 1067 503 1075 493 1067 b 353 1111 440 1067 401 1111 b 208 1047 296 1111 251 1090 b 189 1000 196 1035 189 1018 b 256 933 189 963 218 933 b 303 953 272 933 290 940 b 353 978 319 969 329 978 z "},"ẽ":{"ha":756,"x_min":0,"x_max":0,"o":"m 467 0 b 556 89 515 0 556 40 b 467 178 556 138 515 178 l 378 178 b 224 267 311 178 254 213 l 644 267 b 733 356 693 267 733 307 b 378 711 733 551 574 711 b 22 356 182 711 22 551 b 378 0 22 160 182 0 z m 378 533 b 532 444 443 533 501 497 l 224 444 b 378 533 254 497 311 533 z m 319 800 b 436 756 349 800 388 756 b 581 819 493 756 538 776 b 600 867 593 832 600 849 b 533 933 600 904 571 933 b 486 914 517 933 499 926 b 436 889 469 897 460 889 b 319 933 407 889 368 933 b 175 869 263 933 218 913 b 156 822 163 857 156 840 b 222 756 156 785 185 756 b 269 775 239 756 257 763 b 319 800 286 792 296 800 z "},"Ỳ":{"ha":911,"x_min":0,"x_max":0,"o":"m 456 0 b 544 89 504 0 544 40 l 544 408 l 874 738 b 900 800 890 754 900 776 b 811 889 900 847 858 889 b 749 863 788 889 765 879 l 456 569 l 163 863 b 100 889 146 879 124 889 b 11 800 53 889 11 847 b 38 738 11 776 21 754 l 367 408 l 367 89 b 456 0 367 40 407 0 z m 431 953 b 478 933 443 940 461 933 b 544 1000 515 933 544 963 b 525 1047 544 1018 538 1035 l 436 1136 b 389 1156 424 1149 406 1156 b 322 1089 351 1156 322 1126 b 342 1042 322 1071 329 1054 z "},"ỳ":{"ha":800,"x_min":0,"x_max":0,"o":"m 389 -89 b 263 -37 343 -89 299 -72 b 200 -11 246 -21 224 -11 b 111 -100 153 -11 111 -53 b 138 -162 111 -124 121 -146 b 389 -267 207 -232 299 -267 b 744 89 585 -267 744 -107 l 744 622 b 656 711 744 671 704 711 b 567 622 607 711 567 671 l 567 356 b 389 178 567 257 488 178 b 211 356 290 178 211 257 l 211 622 b 122 711 211 671 171 711 b 33 622 74 711 33 671 l 33 356 b 389 0 33 160 193 0 b 561 44 451 0 510 17 b 389 -89 542 -32 472 -89 z m 364 775 b 411 756 376 763 394 756 b 478 822 449 756 478 785 b 458 869 478 840 471 857 l 369 958 b 322 978 357 971 339 978 b 256 911 285 978 256 949 b 275 864 256 893 263 876 z "},"Ỹ":{"ha":911,"x_min":0,"x_max":0,"o":"m 456 0 b 544 89 504 0 544 40 l 544 408 l 874 738 b 900 800 890 754 900 776 b 811 889 900 847 858 889 b 749 863 788 889 765 879 l 456 569 l 163 863 b 100 889 146 879 124 889 b 11 800 53 889 11 847 b 38 738 11 776 21 754 l 367 408 l 367 89 b 456 0 367 40 407 0 z m 397 978 b 514 933 426 978 465 933 b 658 997 571 933 615 954 b 678 1044 671 1010 678 1026 b 611 1111 678 1082 649 1111 b 564 1092 594 1111 576 1104 b 514 1067 547 1075 538 1067 b 397 1111 485 1067 446 1111 b 253 1047 340 1111 296 1090 b 233 1000 240 1035 233 1018 b 300 933 233 963 263 933 b 347 953 317 933 335 940 b 397 978 364 969 374 978 z "},"ỹ":{"ha":800,"x_min":0,"x_max":0,"o":"m 389 -89 b 263 -37 343 -89 299 -72 b 200 -11 246 -21 224 -11 b 111 -100 153 -11 111 -53 b 138 -162 111 -124 121 -146 b 389 -267 207 -232 299 -267 b 744 89 585 -267 744 -107 l 744 622 b 656 711 744 671 704 711 b 567 622 607 711 567 671 l 567 356 b 389 178 567 257 488 178 b 211 356 290 178 211 257 l 211 622 b 122 711 211 671 171 711 b 33 622 74 711 33 671 l 33 356 b 389 0 33 160 193 0 b 561 44 451 0 510 17 b 389 -89 542 -32 472 -89 z m 331 800 b 447 756 360 800 399 756 b 592 819 504 756 549 776 b 611 867 604 832 611 849 b 544 933 611 904 582 933 b 497 914 528 933 510 926 b 447 889 481 897 471 889 b 331 933 418 889 379 933 b 186 869 274 933 229 913 b 167 822 174 857 167 840 b 233 756 167 785 196 756 b 281 775 250 756 268 763 b 331 800 297 792 307 800 z "},"–":{"ha":778,"x_min":0,"x_max":0,"o":"m 656 356 b 744 444 704 356 744 396 b 656 533 744 493 704 533 l 122 533 b 33 444 74 533 33 493 b 122 356 33 396 74 356 z "},"—":{"ha":1089,"x_min":0,"x_max":0,"o":"m 967 356 b 1056 444 1015 356 1056 396 b 967 533 1056 493 1015 533 l 122 533 b 33 444 74 533 33 493 b 122 356 33 396 74 356 z "},"‘":{"ha":244,"x_min":0,"x_max":0,"o":"m 33 711 b 122 622 33 663 74 622 b 211 711 171 622 211 663 l 211 889 b 122 978 211 938 171 978 b 33 889 74 978 33 938 z "},"’":{"ha":244,"x_min":0,"x_max":0,"o":"m 33 711 b 122 622 33 663 74 622 b 211 711 171 622 211 663 l 211 889 b 122 978 211 938 171 978 b 33 889 74 978 33 938 z "},"‚":{"ha":244,"x_min":0,"x_max":0,"o":"m 33 -89 b 122 -178 33 -137 74 -178 b 211 -89 171 -178 211 -137 l 211 89 b 122 178 211 138 171 178 b 33 89 74 178 33 138 z "},"“":{"ha":467,"x_min":0,"x_max":0,"o":"m 33 711 b 122 622 33 663 74 622 b 211 711 171 622 211 663 l 211 889 b 122 978 211 938 171 978 b 33 889 74 978 33 938 z m 256 711 b 344 622 256 663 296 622 b 433 711 393 622 433 663 l 433 889 b 344 978 433 938 393 978 b 256 889 296 978 256 938 z "},"”":{"ha":467,"x_min":0,"x_max":0,"o":"m 33 711 b 122 622 33 663 74 622 b 211 711 171 622 211 663 l 211 889 b 122 978 211 938 171 978 b 33 889 74 978 33 938 z m 256 711 b 344 622 256 663 296 622 b 433 711 393 622 433 663 l 433 889 b 344 978 433 938 393 978 b 256 889 296 978 256 938 z "},"„":{"ha":467,"x_min":0,"x_max":0,"o":"m 33 -89 b 122 -178 33 -137 74 -178 b 211 -89 171 -178 211 -137 l 211 89 b 122 178 211 138 171 178 b 33 89 74 178 33 138 z m 256 -89 b 344 -178 256 -137 296 -178 b 433 -89 393 -178 433 -137 l 433 89 b 344 178 433 138 393 178 b 256 89 296 178 256 138 z "},"†":{"ha":556,"x_min":0,"x_max":0,"o":"m 189 533 l 189 89 b 278 0 189 40 229 0 b 367 89 326 0 367 40 l 367 533 l 456 533 b 544 622 504 533 544 574 b 456 711 544 671 504 711 l 367 711 l 367 800 b 278 889 367 849 326 889 b 189 800 229 889 189 849 l 189 711 l 100 711 b 11 622 51 711 11 671 b 100 533 11 574 51 533 z "},"‡":{"ha":556,"x_min":0,"x_max":0,"o":"m 189 89 b 278 0 189 40 229 0 b 367 89 326 0 367 40 l 367 178 l 456 178 b 544 267 504 178 544 218 b 456 356 544 315 504 356 l 367 356 l 367 533 l 456 533 b 544 622 504 533 544 574 b 456 711 544 671 504 711 l 367 711 l 367 800 b 278 889 367 849 326 889 b 189 800 229 889 189 849 l 189 711 l 100 711 b 11 622 51 711 11 671 b 100 533 11 574 51 533 l 189 533 l 189 356 l 100 356 b 11 267 51 356 11 315 b 100 178 11 218 51 178 l 189 178 z "},"•":{"ha":511,"x_min":0,"x_max":0,"o":"m 33 444 b 256 222 33 322 133 222 b 478 444 378 222 478 322 b 256 667 478 567 378 667 b 33 444 133 667 33 567 z "},"…":{"ha":778,"x_min":0,"x_max":0,"o":"m 22 100 b 122 0 22 44 67 0 b 222 100 178 0 222 44 b 122 200 222 156 178 200 b 22 100 67 200 22 156 z m 289 100 b 389 0 289 44 333 0 b 489 100 444 0 489 44 b 389 200 489 156 444 200 b 289 100 333 200 289 156 z m 556 100 b 656 0 556 44 600 0 b 756 100 711 0 756 44 b 656 200 756 156 711 200 b 556 100 600 200 556 156 z "},"‰":{"ha":1400,"x_min":0,"x_max":0,"o":"m 903 775 b 922 822 915 788 922 804 b 856 889 922 860 893 889 b 808 869 838 889 821 882 l 53 114 b 33 67 40 101 33 83 b 100 0 33 29 63 0 b 147 19 118 0 135 7 z m 33 689 b 233 489 33 579 124 489 b 433 689 343 489 433 579 b 233 889 433 799 343 889 b 33 689 124 889 33 799 z m 967 200 b 1167 0 967 90 1057 0 b 1367 200 1276 0 1367 90 b 1167 400 1367 310 1276 400 b 967 200 1057 400 967 310 z m 522 200 b 722 0 522 90 613 0 b 922 200 832 0 922 90 b 722 400 922 310 832 400 b 522 200 613 400 522 310 z m 656 200 b 722 267 656 236 686 267 b 789 200 758 267 789 236 b 722 133 789 164 758 133 b 656 200 686 133 656 164 z m 167 689 b 233 756 167 725 197 756 b 300 689 269 756 300 725 b 233 622 300 653 269 622 b 167 689 197 622 167 653 z m 1100 200 b 1167 267 1100 236 1131 267 b 1233 200 1203 267 1233 236 b 1167 133 1233 164 1203 133 b 1100 200 1131 133 1100 164 z "},"‹":{"ha":467,"x_min":0,"x_max":0,"o":"m 58 418 b 33 356 43 403 33 378 b 58 293 33 332 42 308 l 282 71 b 344 44 299 54 321 44 b 433 133 392 44 433 86 b 408 196 432 156 424 179 l 249 356 l 408 515 b 433 578 424 531 433 556 b 344 667 433 625 392 667 b 282 640 321 667 299 657 z "},"›":{"ha":467,"x_min":0,"x_max":0,"o":"m 185 640 b 122 667 168 657 146 667 b 33 578 75 667 33 625 b 58 515 33 554 42 531 l 218 356 l 58 196 b 33 133 43 181 33 156 b 122 44 33 86 75 44 b 185 71 146 44 168 54 l 408 293 b 433 356 424 308 433 333 b 408 418 432 378 425 403 z "},"⁄":{"ha":867,"x_min":0,"x_max":0,"o":"m 858 775 b 878 822 871 788 878 804 b 811 889 878 860 849 889 b 764 869 793 889 776 882 l 8 114 b -11 67 -4 101 -11 83 b 56 0 -11 29 18 0 b 103 19 74 0 90 7 z "},"€":{"ha":778,"x_min":0,"x_max":0,"o":"m 544 289 b 611 356 581 289 611 319 b 544 422 611 392 581 422 l 300 422 l 300 467 l 589 467 b 656 533 625 467 656 497 b 589 600 656 569 625 600 l 313 600 b 478 711 339 665 403 711 b 604 660 524 711 569 696 b 667 633 621 642 643 633 b 756 722 714 633 756 674 b 729 785 756 744 746 768 b 478 889 660 854 568 889 b 128 600 304 889 160 764 l 100 600 b 33 533 64 600 33 569 b 100 467 33 497 64 467 l 122 467 l 122 422 l 100 422 b 33 356 64 422 33 392 b 100 289 33 319 64 289 l 128 289 b 478 0 160 125 304 0 b 729 104 568 0 660 35 b 756 167 746 121 756 143 b 667 256 756 214 714 256 b 604 229 643 256 621 246 b 478 178 568 194 524 178 b 313 289 403 178 339 224 z "},"™":{"ha":1244,"x_min":0,"x_max":0,"o":"m 478 756 b 544 822 514 756 544 786 b 478 889 544 858 514 889 l 78 889 b 11 822 42 889 11 858 b 78 756 11 786 42 756 l 211 756 l 211 422 b 278 356 211 386 242 356 b 344 422 314 356 344 386 l 344 756 z m 722 661 l 853 531 b 900 511 865 518 882 511 b 947 531 918 511 935 518 l 1078 661 l 1078 422 b 1144 356 1078 386 1108 356 b 1211 422 1181 356 1211 386 l 1211 822 b 1144 889 1211 858 1181 889 b 1097 869 1126 889 1110 882 l 900 672 l 703 869 b 656 889 690 882 674 889 b 589 822 619 889 589 858 l 589 422 b 656 356 589 386 619 356 b 722 422 692 356 722 386 z "},"−":{"ha":778,"x_min":0,"x_max":0,"o":"m 656 356 b 744 444 704 356 744 396 b 656 533 744 493 704 533 l 122 533 b 33 444 74 533 33 493 b 122 356 33 396 74 356 z "}}}
